<?xml version="1.0" encoding="utf-8"?>
<!-- Generator: Adobe Illustrator 21.1.0, SVG Export Plug-In . SVG Version: 6.00 Build 0)  -->
<svg version="1.1" id="Layer_1" xmlns="http://www.w3.org/2000/svg" xmlns:xlink="http://www.w3.org/1999/xlink" x="0px" y="0px"
	 viewBox="0 0 1920 1412.9" style="enable-background:new 0 0 1920 1412.9;" xml:space="preserve">
<style type="text/css">
	.st0{fill:#F6F6F6;stroke:#414042;stroke-width:2;stroke-miterlimit:10;}
	.st1{fill:#FFFFFF;stroke:#414042;stroke-width:2;stroke-miterlimit:10;}
	.st2{fill:none;stroke:#282829;stroke-width:4.2189;stroke-linecap:round;stroke-linejoin:round;stroke-miterlimit:10;}
	.st3{fill:#FFFFFF;stroke:#414042;stroke-width:3.1642;stroke-miterlimit:10;}
	.st4{fill:#E29D26;}
	.st5{fill:#282829;stroke:#282829;stroke-width:0.4978;stroke-miterlimit:10;}
	.st6{fill:#EB6231;}
	.st7{enable-background:new    ;}
	.st8{fill:#414042;}
	.st9{fill:#5D80B4;}
	.st10{fill:none;stroke:#414042;stroke-width:3;stroke-linecap:round;stroke-linejoin:round;}
	.st11{fill:#8FB03E;}
	.st12{opacity:0.23;fill:#E19C26;enable-background:new    ;}
	.st13{fill:none;stroke:#E19C26;stroke-width:3;stroke-miterlimit:10;}
	.st14{fill:#C6C6C6;stroke:#404041;stroke-width:2;stroke-miterlimit:10;}
	.st15{opacity:0.23;fill:#8EAF3E;enable-background:new    ;}
	.st16{fill:none;stroke:#8EAF3E;stroke-width:3;stroke-miterlimit:10;}
	.st17{fill:#404041;}
	.st18{font-family:'LMSans10-Bold';}
	.st19{font-size:27px;}
	.st20{font-size:40px;}
	.st21{fill:none;stroke:#221F1F;stroke-width:2.4443;stroke-linecap:round;stroke-linejoin:round;}
	.st22{fill:#221F1F;}
	.st23{fill:#6BB2E2;stroke:#434243;stroke-width:1.427;stroke-linecap:round;stroke-linejoin:round;stroke-miterlimit:10;}
	.st24{fill:#3888C8;stroke:#434243;stroke-width:1.427;stroke-linecap:round;stroke-linejoin:round;stroke-miterlimit:10;}
	.st25{fill:#3EB44A;stroke:#434243;stroke-width:1.427;stroke-linecap:round;stroke-linejoin:round;stroke-miterlimit:10;}
	.st26{fill:#A87D51;stroke:#434243;stroke-width:1.427;stroke-linecap:round;stroke-linejoin:round;stroke-miterlimit:10;}
	.st27{fill:#C1B49B;stroke:#434243;stroke-width:1.427;stroke-linecap:round;stroke-linejoin:round;stroke-miterlimit:10;}
	.st28{fill:#9A8479;stroke:#434243;stroke-width:1.427;stroke-linecap:round;stroke-linejoin:round;stroke-miterlimit:10;}
	.st29{fill:#FAAF41;stroke:#434243;stroke-width:1.427;stroke-linecap:round;stroke-linejoin:round;stroke-miterlimit:10;}
	.st30{fill:#F6EB35;stroke:#434243;stroke-width:1.427;stroke-linecap:round;stroke-linejoin:round;stroke-miterlimit:10;}
	.st31{fill:#D7DF2C;stroke:#434243;stroke-width:1.427;stroke-linecap:round;stroke-linejoin:round;stroke-miterlimit:10;}
	.st32{fill:#8DC541;stroke:#434243;stroke-width:1.427;stroke-linecap:round;stroke-linejoin:round;stroke-miterlimit:10;}
	.st33{fill:#DDF1FC;stroke:#434243;stroke-width:1.427;stroke-linecap:round;stroke-linejoin:round;stroke-miterlimit:10;}
	.st34{fill:#A5D6F3;stroke:#434243;stroke-width:1.427;stroke-linecap:round;stroke-linejoin:round;stroke-miterlimit:10;}
	.st35{fill:#EC8762;stroke:#434243;stroke-width:1.427;stroke-linecap:round;stroke-linejoin:round;stroke-miterlimit:10;}
	.st36{fill:#FBB87C;stroke:#434243;stroke-width:1.427;stroke-linecap:round;stroke-linejoin:round;stroke-miterlimit:10;}
	.st37{fill:#D2574A;stroke:#434243;stroke-width:1.427;stroke-linecap:round;stroke-linejoin:round;stroke-miterlimit:10;}
	.st38{fill:#FFDEA3;stroke:#434243;stroke-width:1.427;stroke-linecap:round;stroke-linejoin:round;stroke-miterlimit:10;}
	.st39{fill:#FCF8CE;stroke:#434243;stroke-width:1.427;stroke-linecap:round;stroke-linejoin:round;stroke-miterlimit:10;}
	.st40{fill:#F05B2C;stroke:#434243;stroke-width:1.427;stroke-linecap:round;stroke-linejoin:round;stroke-miterlimit:10;}
	.st41{fill:#C1976C;stroke:#434243;stroke-width:1.427;stroke-linecap:round;stroke-linejoin:round;stroke-miterlimit:10;}
	.st42{fill:#2BB574;stroke:#434243;stroke-width:1.427;stroke-linecap:round;stroke-linejoin:round;stroke-miterlimit:10;}
	.st43{fill:#00A69C;stroke:#434243;stroke-width:1.427;stroke-linecap:round;stroke-linejoin:round;stroke-miterlimit:10;}
	.st44{fill:#F79523;stroke:#434243;stroke-width:1.427;stroke-linecap:round;stroke-linejoin:round;stroke-miterlimit:10;}
	.st45{font-size:24px;}
	.st46{font-family:'LMSans10-BoldOblique';}
	.st47{font-size:13.992px;}
	.st48{fill:#6BB2E2;stroke:#434243;stroke-width:1.4271;stroke-linecap:round;stroke-linejoin:round;stroke-miterlimit:10;}
	.st49{fill:#3888C8;stroke:#434243;stroke-width:1.4271;stroke-linecap:round;stroke-linejoin:round;stroke-miterlimit:10;}
	.st50{fill:#3EB44A;stroke:#434243;stroke-width:1.4271;stroke-linecap:round;stroke-linejoin:round;stroke-miterlimit:10;}
	.st51{fill:#A87D51;stroke:#434243;stroke-width:1.4271;stroke-linecap:round;stroke-linejoin:round;stroke-miterlimit:10;}
	.st52{fill:#C1B49B;stroke:#434243;stroke-width:1.4271;stroke-linecap:round;stroke-linejoin:round;stroke-miterlimit:10;}
	.st53{fill:#9A8479;stroke:#434243;stroke-width:1.4271;stroke-linecap:round;stroke-linejoin:round;stroke-miterlimit:10;}
	.st54{fill:#FAAF41;stroke:#434243;stroke-width:1.4271;stroke-linecap:round;stroke-linejoin:round;stroke-miterlimit:10;}
	.st55{fill:#F6EB35;stroke:#434243;stroke-width:1.4271;stroke-linecap:round;stroke-linejoin:round;stroke-miterlimit:10;}
	.st56{fill:#D7DF2C;stroke:#434243;stroke-width:1.4271;stroke-linecap:round;stroke-linejoin:round;stroke-miterlimit:10;}
	.st57{fill:#8DC541;stroke:#434243;stroke-width:1.4271;stroke-linecap:round;stroke-linejoin:round;stroke-miterlimit:10;}
	.st58{fill:#DDF1FC;stroke:#434243;stroke-width:1.4271;stroke-linecap:round;stroke-linejoin:round;stroke-miterlimit:10;}
	.st59{fill:#A5D6F3;stroke:#434243;stroke-width:1.4271;stroke-linecap:round;stroke-linejoin:round;stroke-miterlimit:10;}
	.st60{fill:#EC8762;stroke:#434243;stroke-width:1.4271;stroke-linecap:round;stroke-linejoin:round;stroke-miterlimit:10;}
	.st61{fill:#FBB87C;stroke:#434243;stroke-width:1.4271;stroke-linecap:round;stroke-linejoin:round;stroke-miterlimit:10;}
	.st62{fill:#D2574A;stroke:#434243;stroke-width:1.4271;stroke-linecap:round;stroke-linejoin:round;stroke-miterlimit:10;}
	.st63{fill:#FFDEA3;stroke:#434243;stroke-width:1.4271;stroke-linecap:round;stroke-linejoin:round;stroke-miterlimit:10;}
	.st64{fill:#FCF8CE;stroke:#434243;stroke-width:1.4271;stroke-linecap:round;stroke-linejoin:round;stroke-miterlimit:10;}
	.st65{fill:#F05B2C;stroke:#434243;stroke-width:1.4271;stroke-linecap:round;stroke-linejoin:round;stroke-miterlimit:10;}
	.st66{fill:#C1976C;stroke:#434243;stroke-width:1.4271;stroke-linecap:round;stroke-linejoin:round;stroke-miterlimit:10;}
	.st67{fill:#2BB574;stroke:#434243;stroke-width:1.4271;stroke-linecap:round;stroke-linejoin:round;stroke-miterlimit:10;}
	.st68{fill:#00A69C;stroke:#434243;stroke-width:1.4271;stroke-linecap:round;stroke-linejoin:round;stroke-miterlimit:10;}
	.st69{fill:#F79523;stroke:#434243;stroke-width:1.4271;stroke-linecap:round;stroke-linejoin:round;stroke-miterlimit:10;}
	.st70{font-family:'ArialMT';}
	.st71{fill:none;}
	.st72{font-family:'MyriadPro-Regular';}
</style>
<g>
	<path class="st0" d="M913.1,1223h-886c-6.6,0-12-5.4-12-12V485c0-6.6,5.4-12,12-12h886c6.6,0,12,5.4,12,12v726
		C925.1,1217.6,919.7,1223,913.1,1223z"/>
	<path class="st1" d="M672.4,1259.4H291.1c-6.6,0-12-5.4-12-12v-49c0-6.6,5.4-12,12-12h381.3c6.6,0,12,5.4,12,12v49
		C684.4,1254,679,1259.4,672.4,1259.4z"/>
	<path class="st0" d="M1897.6,1223H953.9c-6.6,0-12-5.4-12-12V485c0-6.6,5.4-12,12-12h943.6c6.6,0,12,5.4,12,12v726
		C1909.6,1217.6,1904.2,1223,1897.6,1223z"/>
	<g>
		<line class="st2" x1="604.3" y1="61.8" x2="604.3" y2="141.5"/>
		<line class="st2" x1="753.3" y1="61.8" x2="604.3" y2="61.8"/>
		<line class="st2" x1="753.3" y1="141.5" x2="604.3" y2="141.5"/>
		<line class="st2" x1="421.4" y1="101.6" x2="604.3" y2="101.6"/>
		<line class="st2" x1="421.4" y1="221.2" x2="421.4" y2="101.6"/>
		<line class="st2" x1="757.1" y1="221.2" x2="421.4" y2="221.2"/>
	</g>
	<path class="st3" d="M1256.1,91.1H749c-1.7,0-3.1-1.4-3.1-3.1V37.9c0-1.7,1.4-3.1,3.1-3.1h507.1c1.7,0,3.1,1.4,3.1,3.1V88
		C1259.2,89.7,1257.8,91.1,1256.1,91.1z"/>
	<path class="st3" d="M1256.1,169.7H749c-1.7,0-3.1-1.4-3.1-3.1v-50.1c0-1.7,1.4-3.1,3.1-3.1h507.1c1.7,0,3.1,1.4,3.1,3.1v50.1
		C1259.2,168.3,1257.8,169.7,1256.1,169.7z"/>
	<path class="st3" d="M1256.1,249.4H749c-1.7,0-3.1-1.4-3.1-3.1v-50.1c0-1.7,1.4-3.1,3.1-3.1h507.1c1.7,0,3.1,1.4,3.1,3.1v50.1
		C1259.2,248,1257.8,249.4,1256.1,249.4z"/>
	<g>
		<rect x="776.4" y="44.4" class="st4" width="37.1" height="37.1"/>
		<path class="st5" d="M803.5,72c-2,0.9-4.3,1.5-6.6,1.5c-3,0-5.9-0.5-8.1-2.7c-2-2-2.7-5-2.7-7.8s0.7-5.9,2.7-7.9s5.1-2.7,8.1-2.7
			c1.1,0,2.1,0.1,3.2,0.4c1.1,0.3,2.1,0.7,3.1,1.1c0.1,0,0.3,0.3,0.3,0.4l-0.5,3.1c0,0.1-0.1,0.3-0.4,0.3c-0.1,0-0.3,0-0.3-0.1
			c-0.7-0.7-1.5-1.3-2.4-1.7s-1.9-0.5-2.8-0.5c-1.7,0-3.6,0.5-4.8,1.9c-1.3,1.6-1.6,3.6-1.6,5.8c0,2,0.3,4.2,1.6,5.8
			c1.2,1.3,3,1.9,4.8,1.9c0.9,0,1.9-0.1,2.8-0.3v-3.8h-2.4c-0.3,0-0.4-0.1-0.4-0.4v-2c0-0.3,0.1-0.4,0.4-0.4h6
			c0.3,0,0.4,0.1,0.4,0.4V72C803.6,71.8,803.5,72,803.5,72z"/>
	</g>
	<g>
		<rect x="850.5" y="44.4" class="st4" width="37.1" height="37.1"/>
		<path class="st5" d="M877.6,72c-2,0.9-4.3,1.5-6.6,1.5c-3,0-5.9-0.5-8.1-2.7c-2-2-2.7-5-2.7-7.8s0.7-5.9,2.7-7.9s5.1-2.7,8.1-2.7
			c1.1,0,2.1,0.1,3.2,0.4c1.1,0.3,2.1,0.7,3.1,1.1c0.1,0,0.3,0.3,0.3,0.4l-0.5,3.1c0,0.1-0.1,0.3-0.4,0.3c-0.1,0-0.3,0-0.3-0.1
			c-0.7-0.7-1.5-1.3-2.4-1.7s-1.9-0.5-2.8-0.5c-1.7,0-3.6,0.5-4.8,1.9c-1.3,1.6-1.6,3.6-1.6,5.8c0,2,0.3,4.2,1.6,5.8
			c1.2,1.3,3,1.9,4.8,1.9c0.9,0,1.9-0.1,2.8-0.3v-3.8h-2.4c-0.3,0-0.4-0.1-0.4-0.4v-2c0-0.3,0.1-0.4,0.4-0.4h6
			c0.3,0,0.4,0.1,0.4,0.4V72C877.8,71.8,877.6,72,877.6,72z"/>
	</g>
	<g>
		<rect x="813.4" y="44.4" class="st6" width="37.1" height="37.1"/>
		<path class="st5" d="M840.2,73h-1.6c-1.3,0-1.6-0.5-2-1.6l-0.9-2.8h-8.2l-1.1,3.2c-0.4,1.2-1.3,1.2-1.9,1.2h-1.1
			c-0.4,0-1.1,0-1.1-0.8c0-0.1,0-0.3,0.1-0.5l6.2-17.7c0.4-1.2,1.3-1.2,1.9-1.2h2.6c0.5,0,1.5,0,1.9,1.2l6.2,17.7
			c0.1,0.4,0.1,0.4,0.1,0.5C841.2,73,840.6,73,840.2,73z M832,58c-0.3-0.7-0.3-0.7-0.4-1.5l0,0c-0.3,1.1-0.7,2.1-1.1,3.5l-2.1,6.2
			h6.3L832,58z"/>
	</g>
	<g class="st7">
		<path class="st8" d="M763.2,67.2c-2.1,0-3-1.6-3-1.7s0.3-0.6,0.5-0.9c0.1-0.1,0.1-0.2,0.2-0.2c0.1,0,0.1,0.1,0.2,0.2
			c0.6,1.1,1.6,1.3,2,1.3c1.5,0,1.5-1.1,1.5-2.2c0-1.1,0-2.2-0.9-2.2c-0.6,0-1.1,0.3-1.4,0.8c-0.2,0.3-0.3,0.3-0.7,0.3
			s-0.7,0-0.7-0.7v-4.4c0-0.6,0.2-0.7,0.7-0.7h4c0.7,0,0.7,0.3,0.7,0.7s0,0.7-0.7,0.7h-2.8v2.2c0.3-0.1,0.7-0.2,1.1-0.2
			c2.2,0,3,1.4,3,3.3C766.8,66.1,765.5,67.2,763.2,67.2z"/>
		<path class="st8" d="M769.8,60.2c-0.1,0.2-0.1,0.2-0.4,0.2h-0.2c-0.2,0-0.4,0-0.4-0.2c0-0.1,0-0.1,0-0.2l0.4-1.2
			c-0.5,0-0.5,0-0.5-0.4v-1.1c0-0.4,0-0.4,0.4-0.4h1.1c0.4,0,0.4,0,0.4,0.4v1.4L769.8,60.2z"/>
	</g>
	<g>
		<rect x="850.4" y="123" class="st4" width="37.1" height="37.1"/>
		<path class="st5" d="M877.6,150.5c-2,0.9-4.3,1.5-6.6,1.5c-3,0-5.9-0.5-8.1-2.7c-2-2-2.7-5-2.7-7.8s0.7-5.9,2.7-7.9
			s5.1-2.7,8.1-2.7c1.1,0,2.1,0.1,3.2,0.4c1.1,0.3,2.1,0.7,3.1,1.1c0.1,0,0.3,0.3,0.3,0.4l-0.5,3.1c0,0.1-0.1,0.3-0.4,0.3
			c-0.1,0-0.3,0-0.3-0.1c-0.7-0.7-1.5-1.3-2.4-1.7s-1.9-0.5-2.8-0.5c-1.7,0-3.6,0.5-4.8,1.9c-1.3,1.6-1.6,3.6-1.6,5.8
			c0,2,0.3,4.2,1.6,5.8c1.2,1.3,3,1.9,4.8,1.9c0.9,0,1.9-0.1,2.8-0.3v-4h-2.4c-0.3,0-0.4-0.1-0.4-0.4v-2c0-0.3,0.1-0.4,0.4-0.4h6
			c0.3,0,0.4,0.1,0.4,0.4v7.7C877.7,150.4,877.6,150.5,877.6,150.5z"/>
	</g>
	<g>
		<rect x="813.4" y="123" class="st6" width="37.1" height="37.1"/>
		<path class="st5" d="M840.1,151.6h-1.6c-1.3,0-1.6-0.5-2-1.6l-0.9-2.8h-8.2l-1.1,3.2c-0.4,1.2-1.3,1.2-1.9,1.2h-1.1
			c-0.4,0-1.1,0-1.1-0.8c0-0.1,0-0.3,0.1-0.5l6.2-17.7c0.4-1.2,1.3-1.2,1.9-1.2h2.6c0.5,0,1.5,0,1.9,1.2l6.2,17.7
			c0.1,0.4,0.1,0.4,0.1,0.5C841.2,151.6,840.5,151.6,840.1,151.6z M831.9,136.5c-0.3-0.7-0.3-0.7-0.4-1.5l0,0
			c-0.3,1.1-0.7,2.1-1.1,3.5l-2.1,6.2h6.3L831.9,136.5z"/>
	</g>
	<g>
		<rect x="776.3" y="123" class="st9" width="37.1" height="37.1"/>
		<path class="st5" d="M803.3,150.2c-0.9,0.5-2,1.1-3,1.3c-1.1,0.3-2.1,0.3-3.2,0.3c-3,0-5.9-0.5-8.1-2.7c-2-2-2.7-5-2.7-7.8
			s0.7-5.9,2.7-7.9s5.1-2.7,8.1-2.7c0.9,0,2,0,3,0.3c0.9,0.1,2,0.4,2.8,0.8c0.1,0,0.3,0.1,0.3,0.4l-0.5,3.1c0,0.1-0.1,0.3-0.4,0.3
			c-0.1,0-0.1,0-0.3-0.1c-0.7-0.7-1.3-1.1-2.3-1.5c-0.8-0.3-1.7-0.4-2.7-0.4c-1.7,0-3.6,0.5-4.8,1.9c-1.3,1.6-1.6,3.6-1.6,5.8
			s0.3,4.2,1.6,5.8c1.2,1.3,3,1.9,4.8,1.9c0.9,0,2,0,3-0.4c0.9-0.3,1.7-0.9,2.7-1.6c0.1,0,0.1,0,0.3,0s0.4,0.1,0.4,0.3l0.3,2.6
			C803.4,150.1,803.3,150.2,803.3,150.2z"/>
	</g>
	<g class="st7">
		<path class="st8" d="M763.2,146.8c-2.1,0-3-1.6-3-1.7c0-0.1,0.3-0.6,0.5-0.9c0.1-0.1,0.1-0.2,0.2-0.2c0.1,0,0.1,0.1,0.2,0.2
			c0.6,1.1,1.6,1.3,2,1.3c1.5,0,1.5-1.1,1.5-2.2c0-1.1,0-2.2-0.9-2.2c-0.6,0-1.1,0.3-1.4,0.8c-0.2,0.3-0.3,0.3-0.7,0.3
			s-0.7,0-0.7-0.7v-4.4c0-0.6,0.2-0.7,0.7-0.7h4c0.7,0,0.7,0.3,0.7,0.7s0,0.7-0.7,0.7h-2.8v2.2c0.3-0.1,0.7-0.2,1.1-0.2
			c2.2,0,3,1.4,3,3.3C766.8,145.6,765.5,146.8,763.2,146.8z"/>
		<path class="st8" d="M769.8,139.7c-0.1,0.2-0.1,0.2-0.4,0.2h-0.2c-0.2,0-0.4,0-0.4-0.2c0-0.1,0-0.1,0-0.2l0.4-1.2
			c-0.5,0-0.5,0-0.5-0.4v-1.1c0-0.4,0-0.4,0.4-0.4h1.1c0.4,0,0.4,0,0.4,0.4v1.4L769.8,139.7z"/>
	</g>
	<g>
		<rect x="850.4" y="202.7" class="st6" width="37.1" height="37.1"/>
		<path class="st5" d="M877.2,231.3h-1.6c-1.3,0-1.6-0.5-2-1.6l-0.9-2.8h-8.2l-1.1,3.2c-0.4,1.2-1.3,1.2-1.9,1.2h-1.1
			c-0.4,0-1.1,0-1.1-0.8c0-0.1,0-0.3,0.1-0.5l6.2-17.7c0.4-1.2,1.3-1.2,1.9-1.2h2.6c0.5,0,1.5,0,1.9,1.2l6.2,17.7
			c0.1,0.4,0.1,0.4,0.1,0.5C878.2,231.3,877.6,231.3,877.2,231.3z M869,216.3c-0.3-0.7-0.3-0.7-0.4-1.5l0,0
			c-0.3,1.1-0.7,2.1-1.1,3.5l-2.1,6.2h6.3L869,216.3z"/>
	</g>
	<g>
		<rect x="813.4" y="202.7" class="st6" width="37.1" height="37.1"/>
		<path class="st5" d="M840.1,231.3h-1.6c-1.3,0-1.6-0.5-2-1.6l-0.9-2.8h-8.2l-1.1,3.2c-0.4,1.2-1.3,1.2-1.9,1.2h-1.1
			c-0.4,0-1.1,0-1.1-0.8c0-0.1,0-0.3,0.1-0.5l6.2-17.7c0.4-1.2,1.3-1.2,1.9-1.2h2.6c0.5,0,1.5,0,1.9,1.2L841,230
			c0.1,0.4,0.1,0.4,0.1,0.5C841.2,231.3,840.5,231.3,840.1,231.3z M831.9,216.3c-0.3-0.7-0.3-0.7-0.4-1.5l0,0
			c-0.3,1.1-0.7,2.1-1.1,3.5l-2.1,6.2h6.3L831.9,216.3z"/>
	</g>
	<g>
		<rect x="776.3" y="202.7" class="st9" width="37.1" height="37.1"/>
		<path class="st5" d="M803.3,230c-0.9,0.5-2,1.1-3,1.3c-1.1,0.3-2.1,0.3-3.2,0.3c-3,0-5.9-0.5-8.1-2.7c-2-2-2.7-5-2.7-7.8
			s0.7-5.9,2.7-7.9s5.1-2.7,8.1-2.7c0.9,0,2,0,3,0.3c0.9,0.1,2,0.4,2.8,0.8c0.1,0,0.3,0.1,0.3,0.4l-0.5,3.1c0,0.1-0.1,0.3-0.4,0.3
			c-0.1,0-0.1,0-0.3-0.1c-0.7-0.7-1.3-1.1-2.3-1.5c-0.8-0.3-1.7-0.4-2.7-0.4c-1.7,0-3.6,0.5-4.8,1.9c-1.3,1.6-1.6,3.6-1.6,5.8
			c0,2.1,0.3,4.2,1.6,5.8c1.2,1.3,3,1.9,4.8,1.9c0.9,0,2,0,3-0.4c0.9-0.3,1.7-0.9,2.7-1.6c0.1,0,0.1,0,0.3,0s0.4,0.1,0.4,0.3
			l0.3,2.6C803.4,229.8,803.3,230,803.3,230z"/>
	</g>
	<g class="st7">
		<path class="st8" d="M763.2,226.6c-2.1,0-3-1.6-3-1.7c0-0.1,0.3-0.6,0.5-0.9c0.1-0.1,0.1-0.2,0.2-0.2c0.1,0,0.1,0.1,0.2,0.2
			c0.6,1.1,1.6,1.3,2,1.3c1.5,0,1.5-1.1,1.5-2.2c0-1.1,0-2.2-0.9-2.2c-0.6,0-1.1,0.3-1.4,0.8c-0.2,0.3-0.3,0.3-0.7,0.3
			s-0.7,0-0.7-0.7v-4.4c0-0.6,0.2-0.7,0.7-0.7h4c0.7,0,0.7,0.3,0.7,0.7s0,0.7-0.7,0.7h-2.8v2.2c0.3-0.1,0.7-0.2,1.1-0.2
			c2.2,0,3,1.4,3,3.3C766.8,225.4,765.5,226.6,763.2,226.6z"/>
		<path class="st8" d="M769.8,219.5c-0.1,0.2-0.1,0.2-0.4,0.2h-0.2c-0.2,0-0.4,0-0.4-0.2c0-0.1,0-0.1,0-0.2l0.4-1.2
			c-0.5,0-0.5,0-0.5-0.4v-1.1c0-0.4,0-0.4,0.4-0.4h1.1c0.4,0,0.4,0,0.4,0.4v1.4L769.8,219.5z"/>
	</g>
	<g>
		<g>
			<line class="st10" x1="822.5" y1="285.6" x2="198.1" y2="453.4"/>
			<g>
				<polygon class="st8" points="203.4,440.5 201.7,452.5 209.1,462 180.8,458.1 				"/>
			</g>
		</g>
	</g>
	<g>
		<g>
			<line class="st10" x1="823.7" y1="285.2" x2="1126.1" y2="449.5"/>
			<g>
				<polygon class="st8" points="1113.4,455.3 1122.9,447.8 1124,435.8 1141.9,458.1 				"/>
			</g>
		</g>
	</g>
	<g>
		<g>
			<g>
				<line class="st10" x1="1729.1" y1="598" x2="1729.1" y2="642.9"/>
				<g>
					<polygon class="st8" points="1718,634.5 1729.1,639.2 1740.2,634.5 1729.1,660.8 					"/>
				</g>
			</g>
		</g>
		<g>
			<g>
				<line class="st10" x1="1442.7" y1="598" x2="1442.7" y2="642.9"/>
				<g>
					<polygon class="st8" points="1431.6,634.5 1442.7,639.2 1453.8,634.5 1442.7,660.8 					"/>
				</g>
			</g>
		</g>
		<g>
			<g>
				<line class="st10" x1="1156.2" y1="598" x2="1156.2" y2="642.9"/>
				<g>
					<polygon class="st8" points="1145.1,634.5 1156.2,639.2 1167.4,634.5 1156.2,660.8 					"/>
				</g>
			</g>
		</g>
	</g>
	<g>
		<g>
			<g>
				<line class="st10" x1="755.8" y1="784.8" x2="755.8" y2="829.7"/>
				<g>
					<polygon class="st8" points="744.7,821.3 755.8,826 766.9,821.3 755.8,847.6 					"/>
				</g>
			</g>
		</g>
		<g>
			<g>
				<line class="st10" x1="469.4" y1="784.8" x2="469.4" y2="829.7"/>
				<g>
					<polygon class="st8" points="458.3,821.3 469.4,826 480.5,821.3 469.4,847.6 					"/>
				</g>
			</g>
		</g>
		<g>
			<g>
				<line class="st10" x1="182.9" y1="784.8" x2="182.9" y2="829.7"/>
				<g>
					<polygon class="st8" points="171.8,821.3 182.9,826 194.1,821.3 182.9,847.6 					"/>
				</g>
			</g>
		</g>
	</g>
	<g>
		<rect x="1006" y="44.4" class="st4" width="37.1" height="37.1"/>
		<path class="st5" d="M1033.1,72c-2,0.9-4.3,1.5-6.6,1.5c-3,0-5.9-0.5-8.1-2.7c-2-2-2.7-5-2.7-7.8s0.7-5.9,2.7-7.9s5.1-2.7,8.1-2.7
			c1.1,0,2.1,0.1,3.2,0.4s2.1,0.7,3.1,1.1c0.1,0,0.3,0.3,0.3,0.4l-0.5,3.1c0,0.1-0.1,0.3-0.4,0.3c-0.1,0-0.3,0-0.3-0.1
			c-0.7-0.7-1.5-1.3-2.4-1.7s-1.9-0.5-2.8-0.5c-1.7,0-3.6,0.5-4.8,1.9c-1.3,1.6-1.6,3.6-1.6,5.8c0,2,0.3,4.2,1.6,5.8
			c1.2,1.3,3,1.9,4.8,1.9c0.9,0,1.9-0.1,2.8-0.3v-3.8h-2.4c-0.3,0-0.4-0.1-0.4-0.4v-2c0-0.3,0.1-0.4,0.4-0.4h6
			c0.3,0,0.4,0.1,0.4,0.4V72C1033.3,71.8,1033.1,72,1033.1,72z"/>
	</g>
	<g>
		<rect x="1154.3" y="44.4" class="st4" width="37.1" height="37.1"/>
		<path class="st5" d="M1181.4,72c-2,0.9-4.3,1.5-6.6,1.5c-3,0-5.9-0.5-8.1-2.7c-2-2-2.7-5-2.7-7.8s0.7-5.9,2.7-7.9s5.1-2.7,8.1-2.7
			c1.1,0,2.1,0.1,3.2,0.4c1.1,0.3,2.1,0.7,3.1,1.1c0.1,0,0.3,0.3,0.3,0.4l-0.5,3.1c0,0.1-0.1,0.3-0.4,0.3c-0.1,0-0.3,0-0.3-0.1
			c-0.7-0.7-1.5-1.3-2.4-1.7s-1.9-0.5-2.8-0.5c-1.7,0-3.6,0.5-4.8,1.9c-1.3,1.6-1.6,3.6-1.6,5.8c0,2,0.3,4.2,1.6,5.8
			c1.2,1.3,3,1.9,4.8,1.9c0.9,0,1.9-0.1,2.8-0.3v-3.8h-2.4c-0.3,0-0.4-0.1-0.4-0.4v-2c0-0.3,0.1-0.4,0.4-0.4h6
			c0.3,0,0.4,0.1,0.4,0.4V72C1181.6,71.8,1181.4,72,1181.4,72z"/>
	</g>
	<g>
		<rect x="1080.2" y="44.4" class="st4" width="37.1" height="37.1"/>
		<path class="st5" d="M1107.3,72c-2,0.9-4.3,1.5-6.6,1.5c-3,0-5.9-0.5-8.1-2.7c-2-2-2.7-5-2.7-7.8s0.7-5.9,2.7-7.9s5.1-2.7,8.1-2.7
			c1.1,0,2.1,0.1,3.2,0.4c1.1,0.3,2.1,0.7,3.1,1.1c0.1,0,0.3,0.3,0.3,0.4l-0.5,3.1c0,0.1-0.1,0.3-0.4,0.3c-0.1,0-0.3,0-0.3-0.1
			c-0.7-0.7-1.5-1.3-2.4-1.7s-1.9-0.5-2.8-0.5c-1.7,0-3.6,0.5-4.8,1.9c-1.3,1.6-1.6,3.6-1.6,5.8c0,2,0.3,4.2,1.6,5.8
			c1.2,1.3,3,1.9,4.8,1.9c0.9,0,1.9-0.1,2.8-0.3v-3.8h-2.4c-0.3,0-0.4-0.1-0.4-0.4v-2c0-0.3,0.1-0.4,0.4-0.4h6
			c0.3,0,0.4,0.1,0.4,0.4V72C1107.4,71.8,1107.3,72,1107.3,72z"/>
	</g>
	<g>
		<rect x="1043.1" y="44.4" class="st11" width="37.1" height="37.1"/>
		<path class="st5" d="M1069.5,56l-5.9-0.1v15.7c0,1.1-0.3,1.3-1.3,1.3h-1.5c-1.1,0-1.3-0.4-1.3-1.3V55.9l-5.9,0.1
			c-0.8,0-1.6,0-1.6-1.3v-0.3c0-1.1,0.4-1.3,1.3-1.3h16.3c1.2,0,1.3,0.4,1.3,1.3v0.3C1071.2,56,1070.5,56,1069.5,56z"/>
	</g>
	<g>
		<rect x="1117.2" y="44.4" class="st6" width="37.1" height="37.1"/>
		<path class="st5" d="M1143.9,73h-1.6c-1.3,0-1.6-0.5-2-1.6l-0.9-2.8h-8.2l-1.1,3.2c-0.4,1.2-1.3,1.2-1.9,1.2h-1.1
			c-0.4,0-1.1,0-1.1-0.8c0-0.1,0-0.3,0.1-0.5l6.2-17.7c0.4-1.2,1.3-1.2,1.9-1.2h2.6c0.5,0,1.5,0,1.9,1.2l6.2,17.7
			c0.1,0.4,0.1,0.4,0.1,0.5C1145,73,1144.3,73,1143.9,73z M1135.8,58c-0.3-0.7-0.3-0.7-0.4-1.5l0,0c-0.3,1.1-0.7,2.1-1.1,3.5
			l-2.1,6.2h6.3L1135.8,58z"/>
	</g>
	<g>
		<rect x="1191.4" y="44.4" class="st9" width="37.1" height="37.1"/>
		<path class="st5" d="M1218.3,71.7c-0.9,0.5-2,1.1-3,1.3c-1.1,0.3-2.1,0.3-3.2,0.3c-3,0-5.9-0.5-8.1-2.7c-2-2-2.7-5-2.7-7.8
			s0.7-5.9,2.7-7.9s5.1-2.7,8.1-2.7c0.9,0,2,0,3,0.3c0.9,0.1,2,0.4,2.8,0.8c0.1,0,0.3,0.1,0.3,0.4l-0.5,3.1c0,0.1-0.1,0.3-0.4,0.3
			c-0.1,0-0.1,0-0.3-0.1c-0.7-0.7-1.3-1.1-2.3-1.5c-0.8-0.3-1.7-0.4-2.7-0.4c-1.7,0-3.6,0.5-4.8,1.9c-1.3,1.6-1.6,3.6-1.6,5.8
			c0,2.1,0.3,4.2,1.6,5.8c1.2,1.3,3,1.9,4.8,1.9c0.9,0,2,0,3-0.4c0.9-0.3,1.7-0.9,2.7-1.6c0.1,0,0.1,0,0.3,0s0.4,0.1,0.4,0.3
			l0.3,2.6C1218.5,71.6,1218.3,71.7,1218.3,71.7z"/>
	</g>
	<g class="st7">
		<path class="st8" d="M1238.8,67.2c-1.9,0-3.1-1.2-3.1-1.4c0-0.1,0.2-1,0.2-1s0-0.2,0.2-0.2c0.1,0,0.1,0,0.2,0.1c1,0.9,2,1,2.5,1
			c1.3,0,1.4-0.9,1.4-1.9c0-1.1-0.2-1.9-1.5-1.9h-0.6c-0.4,0-0.4,0-0.4-0.4v-0.3c0-0.2,0-0.3,0.1-0.4c0,0,0.3,0,0.5-0.1
			c0.4,0,0.8-0.1,1.1-0.5c0.4-0.5,0.4-1.2,0.4-1.4c0-0.7-0.1-1.2-1-1.2c-0.2,0-1.2,0-1.9,1c-0.1,0.1-0.1,0.2-0.2,0.2
			c0,0-0.1,0-0.2-0.2l-0.4-0.6c0,0-0.1-0.1-0.1-0.2c0-0.1,1-1.5,2.9-1.5c0.9,0,3,0.2,3,2.5c0,0.8-0.4,1.8-1.6,2.4
			c1.3,0.3,2,1.2,2,2.5C1242.2,65.9,1241.3,67.2,1238.8,67.2z"/>
		<path class="st8" d="M1245.1,60.2c-0.1,0.2-0.1,0.2-0.4,0.2h-0.2c-0.2,0-0.4,0-0.4-0.2c0-0.1,0-0.1,0-0.2l0.4-1.2
			c-0.5,0-0.5,0-0.5-0.4v-1.1c0-0.4,0-0.4,0.4-0.4h1.1c0.4,0,0.4,0,0.4,0.4v1.4L1245.1,60.2z"/>
	</g>
	<g>
		<rect x="1080" y="123" class="st4" width="37.1" height="37.1"/>
		<path class="st5" d="M1107.1,150.5c-2,0.9-4.3,1.5-6.6,1.5c-3,0-5.9-0.5-8.1-2.7c-2-2-2.7-5-2.7-7.8s0.7-5.9,2.7-7.9
			s5.1-2.7,8.1-2.7c1.1,0,2.1,0.1,3.2,0.4s2.1,0.7,3.1,1.1c0.1,0,0.3,0.3,0.3,0.4l-0.5,3.1c0,0.1-0.1,0.3-0.4,0.3
			c-0.1,0-0.3,0-0.3-0.1c-0.7-0.7-1.5-1.3-2.4-1.7s-1.9-0.5-2.8-0.5c-1.7,0-3.6,0.5-4.8,1.9c-1.3,1.6-1.6,3.6-1.6,5.8
			c0,2,0.3,4.2,1.6,5.8c1.2,1.3,3,1.9,4.8,1.9c0.9,0,1.9-0.1,2.8-0.3v-4h-2.4c-0.3,0-0.4-0.1-0.4-0.4v-2c0-0.3,0.1-0.4,0.4-0.4h6
			c0.3,0,0.4,0.1,0.4,0.4v7.7C1107.3,150.4,1107.1,150.5,1107.1,150.5z"/>
	</g>
	<g>
		<rect x="1154.1" y="123" class="st11" width="37.1" height="37.1"/>
		<path class="st5" d="M1180.6,134.5l-5.9-0.1v15.7c0,1.1-0.3,1.3-1.3,1.3h-1.5c-1.1,0-1.3-0.4-1.3-1.3v-15.7l-5.9,0.1
			c-0.8,0-1.6,0-1.6-1.3v-0.3c0-1.1,0.4-1.3,1.3-1.3h16.3c1.2,0,1.3,0.4,1.3,1.3v0.3C1182.2,134.5,1181.5,134.5,1180.6,134.5z"/>
	</g>
	<g>
		<rect x="1042.9" y="123" class="st11" width="37.1" height="37.1"/>
		<path class="st5" d="M1069.4,134.5l-5.9-0.1v15.7c0,1.1-0.3,1.3-1.3,1.3h-1.5c-1.1,0-1.3-0.4-1.3-1.3v-15.7l-5.9,0.1
			c-0.8,0-1.6,0-1.6-1.3v-0.3c0-1.1,0.4-1.3,1.3-1.3h16.3c1.2,0,1.3,0.4,1.3,1.3v0.3C1071,134.5,1070.3,134.5,1069.4,134.5z"/>
	</g>
	<g>
		<rect x="1005.9" y="123" class="st6" width="37.1" height="37.1"/>
		<path class="st5" d="M1032.6,151.6h-1.6c-1.3,0-1.6-0.5-2-1.6l-0.9-2.8h-8.2l-1.1,3.2c-0.4,1.2-1.3,1.2-1.9,1.2h-1.1
			c-0.4,0-1.1,0-1.1-0.8c0-0.1,0-0.3,0.1-0.5l6.2-17.7c0.4-1.2,1.3-1.2,1.9-1.2h2.6c0.5,0,1.5,0,1.9,1.2l6.2,17.7
			c0.1,0.4,0.1,0.4,0.1,0.5C1033.7,151.6,1033,151.6,1032.6,151.6z M1024.4,136.5c-0.3-0.7-0.3-0.7-0.4-1.5l0,0
			c-0.3,1.1-0.7,2.1-1.1,3.5l-2.1,6.2h6.3L1024.4,136.5z"/>
	</g>
	<g>
		<rect x="1117.1" y="123" class="st6" width="37.1" height="37.1"/>
		<path class="st5" d="M1143.8,151.6h-1.6c-1.3,0-1.6-0.5-2-1.6l-0.9-2.8h-8.2l-1.1,3.2c-0.4,1.2-1.3,1.2-1.9,1.2h-1.1
			c-0.4,0-1.1,0-1.1-0.8c0-0.1,0-0.3,0.1-0.5l6.2-17.7c0.4-1.2,1.3-1.2,1.9-1.2h2.6c0.5,0,1.5,0,1.9,1.2l6.2,17.7
			c0.1,0.4,0.1,0.4,0.1,0.5C1144.9,151.6,1144.2,151.6,1143.8,151.6z M1135.6,136.5c-0.3-0.7-0.3-0.7-0.4-1.5l0,0
			c-0.3,1.1-0.7,2.1-1.1,3.5l-2.1,6.2h6.3L1135.6,136.5z"/>
	</g>
	<g>
		<rect x="1191.2" y="123" class="st9" width="37.1" height="37.1"/>
		<path class="st5" d="M1218.2,150.2c-0.9,0.5-2,1.1-3,1.3c-1.1,0.3-2.1,0.3-3.2,0.3c-3,0-5.9-0.5-8.1-2.7c-2-2-2.7-5-2.7-7.8
			s0.7-5.9,2.7-7.9s5.1-2.7,8.1-2.7c0.9,0,2,0,3,0.3c0.9,0.1,2,0.4,2.8,0.8c0.1,0,0.3,0.1,0.3,0.4l-0.5,3.1c0,0.1-0.1,0.3-0.4,0.3
			c-0.1,0-0.1,0-0.3-0.1c-0.7-0.7-1.3-1.1-2.3-1.5c-0.8-0.3-1.7-0.4-2.7-0.4c-1.7,0-3.6,0.5-4.8,1.9c-1.3,1.6-1.6,3.6-1.6,5.8
			s0.3,4.2,1.6,5.8c1.2,1.3,3,1.9,4.8,1.9c0.9,0,2,0,3-0.4c0.9-0.3,1.7-0.9,2.7-1.6c0.1,0,0.1,0,0.3,0s0.4,0.1,0.4,0.3l0.3,2.6
			C1218.3,150.1,1218.2,150.2,1218.2,150.2z"/>
	</g>
	<g class="st7">
		<path class="st8" d="M1238.8,146.8c-1.9,0-3.1-1.2-3.1-1.4c0-0.1,0.2-1,0.2-1s0-0.2,0.2-0.2c0.1,0,0.1,0,0.2,0.1c1,0.9,2,1,2.5,1
			c1.3,0,1.4-0.9,1.4-1.9c0-1.1-0.2-1.9-1.5-1.9h-0.6c-0.4,0-0.4,0-0.4-0.4V141c0-0.2,0-0.3,0.1-0.4c0,0,0.3,0,0.5-0.1
			c0.4,0,0.8-0.1,1.1-0.5c0.4-0.5,0.4-1.2,0.4-1.4c0-0.7-0.1-1.2-1-1.2c-0.2,0-1.2,0-1.9,1c-0.1,0.1-0.1,0.2-0.2,0.2
			c0,0-0.1,0-0.2-0.2l-0.4-0.6c0,0-0.1-0.1-0.1-0.2c0-0.1,1-1.5,2.9-1.5c0.9,0,3,0.2,3,2.5c0,0.8-0.4,1.8-1.6,2.4
			c1.3,0.3,2,1.2,2,2.5C1242.2,145.5,1241.3,146.8,1238.8,146.8z"/>
		<path class="st8" d="M1245.1,139.7c-0.1,0.2-0.1,0.2-0.4,0.2h-0.2c-0.2,0-0.4,0-0.4-0.2c0-0.1,0-0.1,0-0.2l0.4-1.2
			c-0.5,0-0.5,0-0.5-0.4v-1.1c0-0.4,0-0.4,0.4-0.4h1.1c0.4,0,0.4,0,0.4,0.4v1.4L1245.1,139.7z"/>
	</g>
	<g>
		<rect x="1005.9" y="202.7" class="st4" width="37.1" height="37.1"/>
		<path class="st5" d="M1033,230.2c-2,0.9-4.3,1.5-6.6,1.5c-3,0-5.9-0.5-8.1-2.7c-2-2-2.7-5-2.7-7.8s0.7-5.9,2.7-7.9
			s5.1-2.7,8.1-2.7c1.1,0,2.1,0.1,3.2,0.4c1.1,0.3,2.1,0.7,3.1,1.1c0.1,0,0.3,0.3,0.3,0.4l-0.5,3.1c0,0.1-0.1,0.3-0.4,0.3
			c-0.1,0-0.3,0-0.3-0.1c-0.7-0.7-1.5-1.3-2.4-1.7s-1.9-0.5-2.8-0.5c-1.7,0-3.6,0.5-4.8,1.9c-1.3,1.6-1.6,3.6-1.6,5.8
			c0,2,0.3,4.2,1.6,5.8c1.2,1.3,3,1.9,4.8,1.9c0.9,0,1.9-0.1,2.8-0.3v-3.8h-2.4c-0.3,0-0.4-0.1-0.4-0.4v-2c0-0.3,0.1-0.4,0.4-0.4h6
			c0.3,0,0.4,0.1,0.4,0.4v7.7C1033.1,230.1,1033,230.2,1033,230.2z"/>
	</g>
	<g>
		<rect x="1191.2" y="202.7" class="st11" width="37.1" height="37.1"/>
		<path class="st5" d="M1217.6,214.3l-5.9-0.1v15.7c0,1.1-0.3,1.3-1.3,1.3h-1.5c-1.1,0-1.3-0.4-1.3-1.3v-15.7l-5.9,0.1
			c-0.8,0-1.6,0-1.6-1.3v-0.3c0-1.1,0.4-1.3,1.3-1.3h16.3c1.2,0,1.3,0.4,1.3,1.3v0.3C1219.3,214.3,1218.6,214.3,1217.6,214.3z"/>
	</g>
	<g>
		<rect x="1080" y="202.7" class="st9" width="37.1" height="37.1"/>
		<path class="st5" d="M1107,230c-0.9,0.5-2,1.1-3,1.3c-1.1,0.3-2.1,0.3-3.2,0.3c-3,0-5.9-0.5-8.1-2.7c-2-2-2.7-5-2.7-7.8
			s0.7-5.9,2.7-7.9s5.1-2.7,8.1-2.7c0.9,0,2,0,3,0.3c0.9,0.1,2,0.4,2.8,0.8c0.1,0,0.3,0.1,0.3,0.4l-0.5,3.1c0,0.1-0.1,0.3-0.4,0.3
			c-0.1,0-0.1,0-0.3-0.1c-0.7-0.7-1.3-1.1-2.3-1.5c-0.8-0.3-1.7-0.4-2.7-0.4c-1.7,0-3.6,0.5-4.8,1.9c-1.3,1.6-1.6,3.6-1.6,5.8
			c0,2.1,0.3,4.2,1.6,5.8c1.2,1.3,3,1.9,4.8,1.9c0.9,0,2,0,3-0.4c0.9-0.3,1.7-0.9,2.7-1.6c0.1,0,0.1,0,0.3,0s0.4,0.1,0.4,0.3
			l0.3,2.6C1107.1,229.8,1107,230,1107,230z"/>
	</g>
	<g>
		<rect x="1154.1" y="202.7" class="st11" width="37.1" height="37.1"/>
		<path class="st5" d="M1180.6,214.3l-5.9-0.1v15.7c0,1.1-0.3,1.3-1.3,1.3h-1.5c-1.1,0-1.3-0.4-1.3-1.3v-15.7l-5.9,0.1
			c-0.8,0-1.6,0-1.6-1.3v-0.3c0-1.1,0.4-1.3,1.3-1.3h16.3c1.2,0,1.3,0.4,1.3,1.3v0.3C1182.2,214.3,1181.5,214.3,1180.6,214.3z"/>
	</g>
	<g>
		<rect x="1042.9" y="202.7" class="st11" width="37.1" height="37.1"/>
		<path class="st5" d="M1069.4,214.3l-5.9-0.1v15.7c0,1.1-0.3,1.3-1.3,1.3h-1.5c-1.1,0-1.3-0.4-1.3-1.3v-15.7l-5.9,0.1
			c-0.8,0-1.6,0-1.6-1.3v-0.3c0-1.1,0.4-1.3,1.3-1.3h16.3c1.2,0,1.3,0.4,1.3,1.3v0.3C1071,214.3,1070.3,214.3,1069.4,214.3z"/>
	</g>
	<g>
		<rect x="1117.1" y="202.7" class="st6" width="37.1" height="37.1"/>
		<path class="st5" d="M1143.8,231.3h-1.6c-1.3,0-1.6-0.5-2-1.6l-0.9-2.8h-8.2l-1.1,3.2c-0.4,1.2-1.3,1.2-1.9,1.2h-1.1
			c-0.4,0-1.1,0-1.1-0.8c0-0.1,0-0.3,0.1-0.5l6.2-17.7c0.4-1.2,1.3-1.2,1.9-1.2h2.6c0.5,0,1.5,0,1.9,1.2l6.2,17.7
			c0.1,0.4,0.1,0.4,0.1,0.5C1144.9,231.3,1144.2,231.3,1143.8,231.3z M1135.6,216.3c-0.3-0.7-0.3-0.7-0.4-1.5l0,0
			c-0.3,1.1-0.7,2.1-1.1,3.5l-2.1,6.2h6.3L1135.6,216.3z"/>
	</g>
	<g class="st7">
		<path class="st8" d="M1238.8,226.6c-1.9,0-3.1-1.2-3.1-1.4c0-0.1,0.2-1,0.2-1s0-0.2,0.2-0.2c0.1,0,0.1,0,0.2,0.1c1,0.9,2,1,2.5,1
			c1.3,0,1.4-0.9,1.4-1.9c0-1.1-0.2-1.9-1.5-1.9h-0.6c-0.4,0-0.4,0-0.4-0.4v-0.3c0-0.2,0-0.3,0.1-0.4c0,0,0.3,0,0.5-0.1
			c0.4,0,0.8-0.1,1.1-0.5c0.4-0.5,0.4-1.2,0.4-1.4c0-0.7-0.1-1.2-1-1.2c-0.2,0-1.2,0-1.9,1c-0.1,0.1-0.1,0.2-0.2,0.2
			c0,0-0.1,0-0.2-0.2l-0.4-0.6c0,0-0.1-0.1-0.1-0.2c0-0.1,1-1.5,2.9-1.5c0.9,0,3,0.2,3,2.5c0,0.8-0.4,1.8-1.6,2.4
			c1.3,0.3,2,1.2,2,2.5C1242.2,225.2,1241.3,226.6,1238.8,226.6z"/>
		<path class="st8" d="M1245.1,219.5c-0.1,0.2-0.1,0.2-0.4,0.2h-0.2c-0.2,0-0.4,0-0.4-0.2c0-0.1,0-0.1,0-0.2l0.4-1.2
			c-0.5,0-0.5,0-0.5-0.4v-1.1c0-0.4,0-0.4,0.4-0.4h1.1c0.4,0,0.4,0,0.4,0.4v1.4L1245.1,219.5z"/>
	</g>
	<g>
		<g>
			<line class="st10" x1="1115" y1="285.6" x2="769.5" y2="450.4"/>
			<g>
				<polygon class="st8" points="772.3,436.7 772.8,448.8 781.9,456.8 753.3,458.1 				"/>
			</g>
		</g>
	</g>
	<g>
		<g>
			<line class="st10" x1="1117.1" y1="285.6" x2="1685" y2="453"/>
			<g>
				<polygon class="st8" points="1673.8,461.3 1681.5,452 1680.1,440 1702.2,458.1 				"/>
			</g>
		</g>
	</g>
	<path class="st12" d="M1215.1,270.6l-195.9,0.1c-6.6,0-12-5.4-12-12l-0.1-237.5c0-6.6,5.4-12,12-12L1215,9.1c6.6,0,12,5.4,12,12
		l0.1,237.5C1227.1,265.2,1221.7,270.6,1215.1,270.6z"/>
	<path class="st13" d="M1216.3,270.6l-198.6,0.1c-6.6,0-12-5.4-12-12l-0.1-237.5c0-6.6,5.4-12,12-12l198.6-0.1c6.6,0,12,5.4,12,12
		l0.1,237.5C1228.3,265.2,1222.9,270.6,1216.3,270.6z"/>
	<g>
		<circle class="st14" cx="925.1" cy="221.4" r="4.5"/>
		<circle class="st14" cx="946.4" cy="221.4" r="4.5"/>
		<circle class="st14" cx="967.6" cy="221.4" r="4.5"/>
	</g>
	<g>
		<circle class="st14" cx="925.1" cy="141.7" r="4.5"/>
		<circle class="st14" cx="946.4" cy="141.7" r="4.5"/>
		<circle class="st14" cx="967.6" cy="141.7" r="4.5"/>
	</g>
	<g>
		<circle class="st14" cx="925.1" cy="62.1" r="4.5"/>
		<circle class="st14" cx="946.4" cy="62.1" r="4.5"/>
		<circle class="st14" cx="967.6" cy="62.1" r="4.5"/>
	</g>
	<path class="st15" d="M875.1,270.7h-91.7c-4.6,0-8.4-3.8-8.4-8.4l-0.1-244.6c0-4.6,3.8-8.4,8.4-8.4H875c4.6,0,8.4,3.8,8.4,8.4
		l0.1,244.6C883.5,266.9,879.7,270.7,875.1,270.7z"/>
	<path class="st16" d="M879.1,270.7h-95.7c-4.6,0-8.4-3.8-8.4-8.4l-0.1-244.6c0-4.6,3.8-8.4,8.4-8.4H879c4.6,0,8.4,3.8,8.4,8.4
		l0.1,244.6C887.6,266.9,883.8,270.7,879.1,270.7z"/>
	<g>
		<path d="M757.3,1364c0,4.1,2.3,7.3,5.5,7.3c3.3,0,6.7-4.1,6.7-12.7c0-6.3-2.2-12-5.3-15v-0.2h5.5c2.8,2.4,5.5,8,5.5,15.3
			c0,11.9-6,17.4-12.1,17.4c-3.9,0-7-2.2-8.3-5.7h-0.3c-1.5,3.5-4.6,5.7-8.4,5.7c-5.5,0-11.7-4.7-11.7-16.8c0-7.2,2.8-13.1,5.6-15.8
			h5.3v0.2c-3,3.2-5.3,8.7-5.3,15.5c0,8.9,3.8,12.1,6.8,12.1s5.3-3.2,5.3-7.2l-0.1-12.2h5.5L757.3,1364z"/>
		<path d="M784.8,1389.2l-2.7,8.2h-3.5l8.8-25.9h4l8.9,25.9h-3.6l-2.8-8.2H784.8z M793.3,1386.6l-2.5-7.5c-0.6-1.7-1-3.2-1.3-4.7
			h-0.1c-0.4,1.5-0.8,3.1-1.3,4.7l-2.5,7.5H793.3z"/>
		<path d="M817.8,1353.1v-4h34.1v4H817.8z M817.8,1366.1v-4h34.1v4H817.8z"/>
		<path d="M894,1364c0,4.1,2.3,7.3,5.5,7.3c3.3,0,6.7-4.1,6.7-12.7c0-6.3-2.2-12-5.3-15v-0.2h5.5c2.8,2.4,5.5,8,5.5,15.3
			c0,11.9-6,17.4-12.1,17.4c-3.9,0-7-2.2-8.3-5.7h-0.3c-1.5,3.5-4.6,5.7-8.4,5.7c-5.5,0-11.7-4.7-11.7-16.8c0-7.2,2.8-13.1,5.6-15.8
			h5.3v0.2c-3,3.2-5.3,8.7-5.3,15.5c0,8.9,3.8,12.1,6.8,12.1s5.3-3.2,5.3-7.2l-0.1-12.2h5.5L894,1364z"/>
		<path d="M946.6,1355.4v4.3h-16.3v-4.3H946.6z"/>
		<path d="M988,1364c0,4.1,2.3,7.3,5.5,7.3c3.3,0,6.7-4.1,6.7-12.7c0-6.3-2.2-12-5.3-15v-0.2h5.5c2.8,2.4,5.5,8,5.5,15.3
			c0,11.9-6,17.4-12.1,17.4c-3.9,0-7-2.2-8.3-5.7h-0.3c-1.5,3.5-4.6,5.7-8.4,5.7c-5.5,0-11.7-4.7-11.7-16.8c0-7.2,2.8-13.1,5.6-15.8
			h5.3v0.2c-3,3.2-5.3,8.7-5.3,15.5c0,8.9,3.8,12.1,6.8,12.1s5.3-3.2,5.3-7.2l-0.1-12.2h5.5L988,1364z"/>
		<path d="M1026.7,1384.6c0,8.5-3.2,13.2-8.7,13.2c-4.9,0-8.2-4.6-8.3-12.9c0-8.4,3.6-13,8.7-13
			C1023.7,1371.9,1026.7,1376.6,1026.7,1384.6z M1013.1,1385c0,6.5,2,10.2,5.1,10.2c3.5,0,5.1-4,5.1-10.4c0-6.2-1.6-10.2-5.1-10.2
			C1015.3,1374.5,1013.1,1378.2,1013.1,1385z"/>
	</g>
	<g>
		<g>
			<line class="st10" x1="946.2" y1="285.6" x2="486.2" y2="452"/>
			<g>
				<polygon class="st8" points="490.4,438.7 489.7,450.7 497.9,459.6 469.4,458.1 				"/>
			</g>
		</g>
	</g>
	<g>
		<g>
			<line class="st10" x1="946.2" y1="285.6" x2="1425.8" y2="452.2"/>
			<g>
				<polygon class="st8" points="1414.2,459.9 1422.3,451 1421.4,438.9 1442.7,458.1 				"/>
			</g>
		</g>
	</g>
	<g>
		<g>
			<g>
				<path d="M1151.7,960.7c0,4.1,2.3,7.3,5.5,7.3c3.3,0,6.7-4.1,6.7-12.7c0-6.3-2.3-12.1-5.3-15v-0.2h5.5c2.8,2.5,5.5,8,5.5,15.4
					c0,11.9-6,17.4-12.1,17.4c-3.9,0-7-2.2-8.3-5.7h-0.3c-1.5,3.5-4.6,5.7-8.5,5.7c-5.6,0-11.7-4.7-11.7-16.9
					c0-7.2,2.8-13.1,5.6-15.9h5.4v0.2c-3,3.2-5.3,8.7-5.3,15.6c0,8.9,3.8,12.2,6.8,12.2s5.3-3.2,5.3-7.2l-0.1-12.3h5.5L1151.7,960.7
					z"/>
				<path d="M1190.5,981.4c0,8.5-3.2,13.3-8.7,13.3c-4.9,0-8.2-4.6-8.3-12.9c0-8.4,3.6-13.1,8.7-13.1
					C1187.5,968.6,1190.5,973.4,1190.5,981.4z M1176.9,981.7c0,6.5,2,10.2,5.1,10.2c3.5,0,5.1-4.1,5.1-10.5c0-6.2-1.6-10.2-5.1-10.2
					C1179,971.3,1176.9,974.9,1176.9,981.7z"/>
			</g>
			<g>
				<path d="M1184.1,919.7c-2.8,3.8-4.9,8.8-4.9,15.8c0,6.9,2.1,11.8,4.9,15.7h-2.7c-2.4-3.2-5.1-8.2-5.1-15.7
					c0-7.6,2.6-12.6,5.1-15.8H1184.1z"/>
				<path d="M1194,924.6L1194,924.6l-4.4,2.4l-0.7-2.6l5.5-2.9h2.9v25.1h-3.3V924.6z"/>
				<path d="M1205.4,951.2c2.7-3.8,4.9-8.8,4.9-15.8c0-6.9-2.1-11.9-4.9-15.7h2.6c2.5,3.2,5.1,8.1,5.1,15.7c0,7.6-2.6,12.5-5.1,15.8
					H1205.4z"/>
			</g>
		</g>
		<g>
			<g>
				<path d="M1440.2,960.7c0,4.1,2.3,7.3,5.5,7.3c3.3,0,6.7-4.1,6.7-12.7c0-6.3-2.3-12.1-5.3-15v-0.2h5.5c2.8,2.5,5.5,8,5.5,15.4
					c0,11.9-6,17.4-12.1,17.4c-3.9,0-7-2.2-8.3-5.7h-0.3c-1.5,3.5-4.6,5.7-8.5,5.7c-5.6,0-11.7-4.7-11.7-16.9
					c0-7.2,2.8-13.1,5.6-15.9h5.4v0.2c-3,3.2-5.3,8.7-5.3,15.6c0,8.9,3.8,12.2,6.8,12.2s5.3-3.2,5.3-7.2l-0.1-12.3h5.5L1440.2,960.7
					z"/>
				<path d="M1479,981.4c0,8.5-3.2,13.3-8.7,13.3c-4.9,0-8.2-4.6-8.3-12.9c0-8.4,3.6-13.1,8.7-13.1
					C1476,968.6,1479,973.4,1479,981.4z M1465.4,981.7c0,6.5,2,10.2,5.1,10.2c3.5,0,5.1-4.1,5.1-10.5c0-6.2-1.6-10.2-5.1-10.2
					C1467.6,971.3,1465.4,974.9,1465.4,981.7z"/>
			</g>
			<g>
				<path d="M1472.6,919.7c-2.8,3.8-4.9,8.8-4.9,15.8c0,6.9,2.1,11.8,4.9,15.7h-2.7c-2.4-3.2-5.1-8.2-5.1-15.7
					c0-7.6,2.6-12.6,5.1-15.8H1472.6z"/>
				<path d="M1480,922.5c0,1.2-0.8,2.1-2.2,2.1c-1.2,0-2-0.9-2-2.1c0-1.2,0.9-2.1,2.1-2.1C1479.2,920.4,1480,921.3,1480,922.5z
					 M1476.2,946.5v-18.7h3.4v18.7H1476.2z"/>
				<path d="M1483.2,951.2c2.7-3.8,4.9-8.8,4.9-15.8c0-6.9-2.1-11.9-4.9-15.7h2.6c2.5,3.2,5.1,8.1,5.1,15.7c0,7.6-2.6,12.5-5.1,15.8
					H1483.2z"/>
			</g>
		</g>
		<g>
			<g>
				<path d="M1726.6,960.7c0,4.1,2.3,7.3,5.5,7.3c3.3,0,6.7-4.1,6.7-12.7c0-6.3-2.3-12.1-5.3-15v-0.2h5.5c2.8,2.5,5.5,8,5.5,15.4
					c0,11.9-6,17.4-12.1,17.4c-3.9,0-7-2.2-8.3-5.7h-0.3c-1.5,3.5-4.6,5.7-8.5,5.7c-5.6,0-11.7-4.7-11.7-16.9
					c0-7.2,2.8-13.1,5.6-15.9h5.4v0.2c-3,3.2-5.3,8.7-5.3,15.6c0,8.9,3.8,12.2,6.8,12.2s5.3-3.2,5.3-7.2l-0.1-12.3h5.5L1726.6,960.7
					z"/>
				<path d="M1765.5,981.4c0,8.5-3.2,13.3-8.7,13.3c-4.9,0-8.2-4.6-8.3-12.9c0-8.4,3.6-13.1,8.7-13.1
					C1762.5,968.6,1765.5,973.4,1765.5,981.4z M1751.8,981.7c0,6.5,2,10.2,5.1,10.2c3.5,0,5.1-4.1,5.1-10.5c0-6.2-1.6-10.2-5.1-10.2
					C1754,971.3,1751.8,974.9,1751.8,981.7z"/>
			</g>
			<g>
				<path d="M1759.1,919.7c-2.8,3.8-4.9,8.8-4.9,15.8c0,6.9,2.1,11.8,4.9,15.7h-2.7c-2.4-3.2-5.1-8.2-5.1-15.7
					c0-7.6,2.6-12.6,5.1-15.8H1759.1z"/>
				<path d="M1766,936.4L1766,936.4c0.5-0.7,1.2-1.5,1.7-2.1l5.5-6.5h4.1l-7.2,7.7l8.2,11h-4.1l-6.5-9l-1.7,1.9v7h-3.4V919h3.4
					V936.4z"/>
				<path d="M1778.7,951.2c2.7-3.8,4.9-8.8,4.9-15.8c0-6.9-2.1-11.9-4.9-15.7h2.6c2.5,3.2,5.1,8.1,5.1,15.7c0,7.6-2.6,12.5-5.1,15.8
					H1778.7z"/>
			</g>
		</g>
	</g>
	<g>
		<g>
			<path d="M185.1,907.3c0,4.1,2.3,7.3,5.5,7.3c3.3,0,6.7-4.1,6.7-12.7c0-6.3-2.3-12.1-5.3-15v-0.2h5.5c2.8,2.5,5.5,8,5.5,15.4
				c0,11.9-6,17.4-12.1,17.4c-3.9,0-7-2.2-8.3-5.7h-0.3c-1.5,3.5-4.6,5.7-8.5,5.7c-5.6,0-11.7-4.7-11.7-16.9
				c0-7.2,2.8-13.1,5.6-15.9h5.4v0.2c-3,3.2-5.3,8.7-5.3,15.6c0,8.9,3.8,12.2,6.8,12.2s5.3-3.2,5.3-7.2l-0.1-12.3h5.5L185.1,907.3z"
				/>
		</g>
		<g>
			<path d="M216.5,866.3c-2.8,3.8-4.9,8.8-4.9,15.8c0,6.9,2.1,11.8,4.9,15.7h-2.7c-2.4-3.2-5.1-8.2-5.1-15.7
				c0-7.6,2.6-12.6,5.1-15.8H216.5z"/>
			<path d="M226.4,871.2L226.4,871.2l-4.4,2.4l-0.7-2.6l5.5-2.9h2.9v25.1h-3.3V871.2z"/>
			<path d="M237.9,897.8c2.7-3.8,4.9-8.8,4.9-15.8c0-6.9-2.1-11.9-4.9-15.7h2.6c2.5,3.2,5.1,8.1,5.1,15.7c0,7.6-2.6,12.5-5.1,15.8
				H237.9z"/>
		</g>
	</g>
	<g>
		<g>
			<path d="M472.3,905.6c0,4.1,2.3,7.3,5.5,7.3c3.3,0,6.7-4.1,6.7-12.7c0-6.3-2.3-12.1-5.3-15V885h5.5c2.8,2.5,5.5,8,5.5,15.4
				c0,11.9-6,17.4-12.1,17.4c-3.9,0-7-2.2-8.3-5.7h-0.3c-1.5,3.5-4.6,5.7-8.5,5.7c-5.6,0-11.7-4.7-11.7-16.9
				c0-7.2,2.8-13.1,5.6-15.9h5.4v0.2c-3,3.2-5.3,8.7-5.3,15.6c0,8.9,3.8,12.2,6.8,12.2s5.3-3.2,5.3-7.2l-0.1-12.3h5.5L472.3,905.6z"
				/>
		</g>
		<g>
			<path d="M503.7,864.5c-2.8,3.8-4.9,8.8-4.9,15.8c0,6.9,2.1,11.8,4.9,15.7H501c-2.4-3.2-5.1-8.2-5.1-15.7c0-7.6,2.6-12.6,5.1-15.8
				H503.7z"/>
			<path d="M511.1,867.4c0,1.2-0.8,2.1-2.2,2.1c-1.2,0-2-0.9-2-2.1c0-1.2,0.9-2.1,2.1-2.1C510.3,865.2,511.1,866.2,511.1,867.4z
				 M507.3,891.3v-18.7h3.4v18.7H507.3z"/>
			<path d="M514.3,896c2.7-3.8,4.9-8.8,4.9-15.8c0-6.9-2.1-11.9-4.9-15.7h2.6c2.5,3.2,5.1,8.1,5.1,15.7c0,7.6-2.6,12.5-5.1,15.8
				H514.3z"/>
		</g>
	</g>
	<g>
		<g>
			<path d="M755.5,903.8c0,4.1,2.3,7.3,5.5,7.3c3.3,0,6.7-4.1,6.7-12.7c0-6.3-2.3-12.1-5.3-15v-0.2h5.5c2.8,2.5,5.5,8,5.5,15.4
				c0,11.9-6,17.4-12.1,17.4c-3.9,0-7-2.2-8.3-5.7h-0.3c-1.5,3.5-4.6,5.7-8.5,5.7c-5.6,0-11.7-4.7-11.7-16.9
				c0-7.2,2.8-13.1,5.6-15.9h5.4v0.2c-3,3.2-5.3,8.7-5.3,15.6c0,8.9,3.8,12.2,6.8,12.2s5.3-3.2,5.3-7.2l-0.1-12.3h5.5L755.5,903.8z"
				/>
		</g>
		<g>
			<path d="M786.9,862.7c-2.8,3.8-4.9,8.8-4.9,15.8c0,6.9,2.1,11.8,4.9,15.7h-2.7c-2.4-3.2-5.1-8.2-5.1-15.7
				c0-7.6,2.6-12.6,5.1-15.8H786.9z"/>
			<path d="M793.8,879.4L793.8,879.4c0.5-0.7,1.2-1.5,1.7-2.1l5.5-6.5h4.1l-7.2,7.7l8.2,11H802l-6.5-9l-1.7,1.9v7h-3.4V862h3.4
				V879.4z"/>
			<path d="M806.5,894.2c2.7-3.8,4.9-8.8,4.9-15.8c0-6.9-2.1-11.9-4.9-15.7h2.6c2.5,3.2,5.1,8.1,5.1,15.7c0,7.6-2.6,12.5-5.1,15.8
				H806.5z"/>
		</g>
	</g>
	<text transform="matrix(1 0 0 1 1283.6816 107.5106)" class="st17 st18 st19">Alignment of protein-coding </text>
	<text transform="matrix(1 0 0 1 1283.6816 139.9106)" class="st17 st18 st19">orthologues in multiple species</text>
	<text transform="matrix(1 0 0 1 493.3383 253.3962)" class="st17 st18 st19">Species tree</text>
	<text transform="matrix(1 0 0 1 321.8234 1233.9502)" class="st17 st18 st20">Codon site-model</text>
	<g>
		<g>
			<circle class="st14" cx="1421.4" cy="708.3" r="4.5"/>
			<circle class="st14" cx="1442.7" cy="708.3" r="4.5"/>
			<circle class="st14" cx="1463.9" cy="708.3" r="4.5"/>
		</g>
		<g>
			<g>
				<g>
					<g>
						<line class="st21" x1="992.4" y1="778.6" x2="1341.9" y2="778.6"/>
						<g>
							<polygon class="st22" points="1337.8,784 1340.1,778.6 1337.8,773.3 1350.5,778.6 							"/>
						</g>
					</g>
				</g>
				<g>
					<g>
						<line class="st21" x1="992.4" y1="778.6" x2="992.4" y2="648.7"/>
						<g>
							<polygon class="st22" points="997.8,652.8 992.4,650.5 987,652.8 992.4,640.1 							"/>
						</g>
					</g>
				</g>
				<g>
					<g>
						<rect x="1104.5" y="767.7" class="st23" width="12.5" height="6.8"/>
					</g>
					<g>
						<g>
							<rect x="1119.6" y="673.3" class="st24" width="12.5" height="101.2"/>
						</g>
					</g>
					<g>
						<rect x="1134.8" y="763.5" class="st25" width="12.5" height="11"/>
					</g>
					<rect x="1150" y="752.5" class="st26" width="12.5" height="21.9"/>
					<rect x="1165.1" y="762" class="st27" width="12.5" height="12.5"/>
					<rect x="1180.3" y="673.5" class="st28" width="12.5" height="101"/>
					<rect x="1225.7" y="767.7" class="st29" width="12.5" height="6.8"/>
					<g>
						<rect x="1240.9" y="759.4" class="st30" width="12.5" height="15.1"/>
					</g>
					<g>
						<rect x="1256" y="768.3" class="st31" width="12.5" height="6.2"/>
					</g>
					<g>
						<rect x="1271.1" y="752.5" class="st32" width="12.5" height="21.9"/>
					</g>
					<rect x="1074.2" y="767.7" class="st33" width="12.5" height="6.8"/>
					<g>
						<rect x="1089.3" y="677.4" class="st34" width="12.5" height="97.1"/>
					</g>
					<rect x="1013.6" y="669.5" class="st35" width="12.5" height="105"/>
					<rect x="1028.8" y="677.3" class="st36" width="12.5" height="97.1"/>
					<rect x="998.5" y="667.2" class="st37" width="12.5" height="107.2"/>
					<rect x="1043.9" y="673.3" class="st38" width="12.5" height="101.2"/>
					<rect x="1059.1" y="771.1" class="st39" width="12.5" height="3.4"/>
					<rect x="1195.4" y="767.7" class="st40" width="12.5" height="6.8"/>
					<g>
						<rect x="1286.3" y="771.1" class="st41" width="12.5" height="3.4"/>
					</g>
					<rect x="1301.4" y="765" class="st42" width="12.5" height="9.4"/>
					<rect x="1316.6" y="765.8" class="st43" width="12.5" height="8.7"/>
					<rect x="1210.6" y="667.2" class="st44" width="12.5" height="107.2"/>
				</g>
			</g>
			<text transform="matrix(0 -1 1 0 977.3164 775.6738)" class="st17 st18 st45">Fitness (</text>
			<text transform="matrix(0 -1 1 0 977.3164 680.1074)" class="st17 st46 st45">f</text>
			<text transform="matrix(0 -1 1 0 985.3086 672.0439)" class="st17 st46 st47">a</text>
			<text transform="matrix(0 -1 1 0 977.3164 664.6982)" class="st17 st18 st45">)</text>
			<text transform="matrix(1 0 0 1 1073.8281 805.3408)" class="st17 st18 st45">Amino-acid (</text>
			<text transform="matrix(1 0 0 1 1216.8281 805.3408)" class="st17 st46 st45">a</text>
			<text transform="matrix(1 0 0 1 1229.4281 805.3408)" class="st17 st18 st45">)</text>
		</g>
		<g>
			<g>
				<g>
					<g>
						<g>
							<line class="st21" x1="1541.3" y1="779.3" x2="1890.7" y2="779.3"/>
							<g>
								<polygon class="st22" points="1886.6,784.7 1888.9,779.3 1886.6,774 1899.4,779.3 								"/>
							</g>
						</g>
					</g>
					<g>
						<g>
							<line class="st21" x1="1541.3" y1="779.3" x2="1541.3" y2="649.4"/>
							<g>
								<polygon class="st22" points="1546.6,653.5 1541.3,651.2 1535.9,653.5 1541.3,640.8 								"/>
							</g>
						</g>
					</g>
				</g>
				<g>
					<g>
						<g>
							<rect x="1653.4" y="768.4" class="st48" width="12.5" height="6.8"/>
						</g>
					</g>
					<g>
						<g>
							<rect x="1668.5" y="771.8" class="st49" width="12.5" height="3.4"/>
						</g>
					</g>
					<g>
						<g>
							<rect x="1683.6" y="764.2" class="st50" width="12.5" height="11"/>
						</g>
					</g>
					<g>
						<rect x="1698.8" y="769" class="st51" width="12.5" height="6.2"/>
					</g>
					<g>
						<rect x="1713.9" y="762.7" class="st52" width="12.5" height="12.5"/>
					</g>
					<g>
						<rect x="1729.1" y="764.2" class="st53" width="12.5" height="11"/>
					</g>
					<g>
						<rect x="1774.5" y="768.4" class="st54" width="12.5" height="6.8"/>
					</g>
					<g>
						<g>
							<rect x="1789.7" y="760.1" class="st55" width="12.5" height="15.1"/>
						</g>
					</g>
					<g>
						<g>
							<rect x="1804.9" y="769" class="st56" width="12.5" height="6.2"/>
						</g>
					</g>
					<g>
						<g>
							<rect x="1820" y="768.4" class="st57" width="12.5" height="6.8"/>
						</g>
					</g>
					<g>
						<rect x="1623.1" y="768.4" class="st58" width="12.5" height="6.8"/>
					</g>
					<g>
						<g>
							<rect x="1638.2" y="663.4" class="st59" width="12.5" height="111.8"/>
						</g>
					</g>
					<g>
						<rect x="1562.4" y="663.4" class="st60" width="12.5" height="111.8"/>
					</g>
					<g>
						<rect x="1577.6" y="769.7" class="st61" width="12.5" height="5.5"/>
					</g>
					<g>
						<rect x="1547.3" y="767.7" class="st62" width="12.5" height="7.5"/>
					</g>
					<g>
						<rect x="1592.8" y="764.2" class="st63" width="12.5" height="11"/>
					</g>
					<g>
						<rect x="1607.9" y="771.8" class="st64" width="12.5" height="3.4"/>
					</g>
					<g>
						<rect x="1744.2" y="768.4" class="st65" width="12.5" height="6.8"/>
					</g>
					<g>
						<g>
							<rect x="1835.1" y="771.8" class="st66" width="12.5" height="3.4"/>
						</g>
					</g>
					<g>
						<rect x="1850.3" y="766.2" class="st67" width="12.5" height="9"/>
					</g>
					<g>
						<rect x="1865.4" y="766.2" class="st68" width="12.5" height="9"/>
					</g>
					<g>
						<rect x="1759.4" y="766.2" class="st69" width="12.5" height="9"/>
					</g>
				</g>
			</g>
			<text transform="matrix(0 -1 1 0 1523.9707 775.6738)" class="st17 st18 st45">Fitness (</text>
			<text transform="matrix(0 -1 1 0 1523.9707 680.1074)" class="st17 st46 st45">f</text>
			<text transform="matrix(0 -1 1 0 1531.9629 672.0439)" class="st17 st46 st47">a</text>
			<text transform="matrix(0 -1 1 0 1523.9707 664.6982)" class="st17 st18 st45">)</text>
			<text transform="matrix(1 0 0 1 1624.5332 804.6318)" class="st17 st18 st45">Amino-acid (</text>
			<text transform="matrix(1 0 0 1 1767.5332 804.6318)" class="st17 st46 st45">a</text>
			<text transform="matrix(1 0 0 1 1780.1332 804.6318)" class="st17 st18 st45">)</text>
		</g>
	</g>
	<text transform="matrix(1 0 0 1 49.729 969.0576)" class="st17 st18 st19">In codon site-model, each codon fall into a categorie </text>
	<text transform="matrix(1 0 0 1 712.629 969.0576)" class="st17 st70 st19">i </text>
	<text transform="matrix(1 0 0 1 724.629 969.0576)" class="st17 st18 st19">with its own </text>
	<text transform="matrix(1 0 0 1 886.729 969.0576)" class="st17 st70 st19">ω.</text>
	<path class="st71" d="M899.8,789.7H39c-6.6,0-12-5.4-12-12V497.4c0-6.6,5.4-12,12-12h860.8c6.6,0,12,5.4,12,12v280.3
		C911.8,784.3,906.4,789.7,899.8,789.7z"/>
	<text transform="matrix(1 0 0 1 32.5811 504.0908)" class="st17 st18 st19">A mutation of a nucleotide in a codon can be either synonymous or </text>
	<text transform="matrix(1 0 0 1 26.9811 537.1908)" class="st17 st18 st19">non-synonymous. In a case of a non-synonymous mutation, the substi</text>
	<text transform="matrix(1 0 0 1 890.5811 537.1908)" class="st17 st18 st19">-</text>
	<text transform="matrix(1 0 0 1 26.9811 570.3908)" class="st17 st18 st19">tution rate is multiplied by a factor </text>
	<text transform="matrix(1 0 0 1 473.6811 570.3908)" class="st17 st70 st19">ω</text>
	<text transform="matrix(1 0 0 1 492.4811 570.3908)" class="st17 st18 st19">, capturing any deviation from </text>
	<text transform="matrix(1 0 0 1 26.9811 603.4908)" class="st17 st18 st19">neutrality.</text>
	<text transform="matrix(1 0 0 1 26.9811 669.6908)" class="st17 st18 st19">An excess of non-synonymous substitution (</text>
	<text transform="matrix(1 0 0 1 572.1811 669.6908)" class="st17 st70 st19">ω&gt;1</text>
	<text transform="matrix(1 0 0 1 620.8811 669.6908)" class="st17 st18 st19">) is interpred as a sig</text>
	<text transform="matrix(1 0 0 1 884.0811 669.6908)" class="st17 st18 st19">-</text>
	<text transform="matrix(1 0 0 1 26.9811 702.8908)" class="st17 st18 st19">nature of positive selection. On the opposite, a default of non-synony</text>
	<text transform="matrix(1 0 0 1 887.3811 702.8908)" class="st17 st18 st19">-</text>
	<text transform="matrix(1 0 0 1 26.9811 735.9908)" class="st17 st18 st19">mous substitution (</text>
	<text transform="matrix(1 0 0 1 267.9811 735.9908)" class="st17 st70 st19">ω&lt;1</text>
	<text transform="matrix(1 0 0 1 316.5811 735.9908)" class="st17 st18 st19">) is the signature of purifying selection.</text>
	<g>
		<g>
			<path d="M472.3,1147.5c0,4.1,2.3,7.3,5.5,7.3c3.3,0,6.7-4.1,6.7-12.7c0-6.3-2.3-12.1-5.3-15v-0.2h5.5c2.8,2.5,5.5,8,5.5,15.4
				c0,11.9-6,17.4-12.1,17.4c-3.9,0-7-2.2-8.3-5.7h-0.3c-1.5,3.5-4.6,5.7-8.5,5.7c-5.6,0-11.7-4.7-11.7-16.9
				c0-7.2,2.8-13.1,5.6-15.9h5.4v0.2c-3,3.2-5.3,8.7-5.3,15.6c0,8.9,3.8,12.2,6.8,12.2s5.3-3.2,5.3-7.2l-0.1-12.3h5.5L472.3,1147.5z
				"/>
		</g>
	</g>
	<g>
		<g>
			<path d="M1446.4,1147.5c0,4.1,2.3,7.3,5.5,7.3c3.3,0,6.7-4.1,6.7-12.7c0-6.3-2.3-12.1-5.3-15v-0.2h5.5c2.8,2.5,5.5,8,5.5,15.4
				c0,11.9-6,17.4-12.1,17.4c-3.9,0-7-2.2-8.3-5.7h-0.3c-1.5,3.5-4.6,5.7-8.5,5.7c-5.6,0-11.7-4.7-11.7-16.9
				c0-7.2,2.8-13.1,5.6-15.9h5.4v0.2c-3,3.2-5.3,8.7-5.3,15.6c0,8.9,3.8,12.2,6.8,12.2s5.3-3.2,5.3-7.2l-0.1-12.3h5.5L1446.4,1147.5
				z"/>
			<path d="M1485.2,1168.1c0,8.5-3.2,13.3-8.7,13.3c-4.9,0-8.2-4.6-8.3-12.9c0-8.4,3.6-13.1,8.7-13.1
				C1482.2,1155.4,1485.2,1160.1,1485.2,1168.1z M1471.6,1168.5c0,6.5,2,10.2,5.1,10.2c3.5,0,5.1-4.1,5.1-10.5
				c0-6.2-1.6-10.2-5.1-10.2C1473.7,1158.1,1471.6,1161.7,1471.6,1168.5z"/>
		</g>
	</g>
	<path class="st1" d="M1768.8,1259.4H1093c-6.6,0-12-5.4-12-12v-49c0-6.6,5.4-12,12-12h675.8c6.6,0,12,5.4,12,12v49
		C1780.8,1254,1775.4,1259.4,1768.8,1259.4z"/>
	<text transform="matrix(1 0 0 1 1094.5431 1233.9502)" class="st17 st18 st20">Codon mutation-selection site-model</text>
	<path class="st71" d="M1876.5,591.5H973.1c-6.6,0-12-5.4-12-12v-80.1c0-6.6,5.4-12,12-12h903.4c6.6,0,12,5.4,12,12v80.1
		C1888.5,586.1,1883.1,591.5,1876.5,591.5z"/>
	<text transform="matrix(1 0 0 1 966.6729 506.0908)" class="st17 st18 st19">For any non-synonymous mutation, the probability of reaching fixation is </text>
	<text transform="matrix(1 0 0 1 961.0729 539.1908)" class="st17 st18 st19">determined by the ratio between the amino-acid preference of the mutat</text>
	<text transform="matrix(1 0 0 1 1866.1729 539.1908)" class="st17 st18 st19">-</text>
	<text transform="matrix(1 0 0 1 961.0729 572.3908)" class="st17 st18 st19">ed codon, and the amino-acid preference of the original codon.</text>
	<g>
		<g>
			<g>
				<line class="st10" x1="1729.1" y1="1065.8" x2="1493.9" y2="1114.2"/>
				<g>
					<polygon class="st8" points="1499.9,1101.6 1497.5,1113.5 1504.4,1123.4 1476.3,1117.8 					"/>
				</g>
			</g>
		</g>
		<g>
			<g>
				<line class="st10" x1="1442.7" y1="1065.8" x2="1442.7" y2="1099.9"/>
				<g>
					<polygon class="st8" points="1431.6,1091.5 1442.7,1096.2 1453.8,1091.5 1442.7,1117.8 					"/>
				</g>
			</g>
		</g>
		<g>
			<g>
				<line class="st10" x1="1156.2" y1="1065.8" x2="1397.1" y2="1114.3"/>
				<g>
					<polygon class="st8" points="1386.6,1123.5 1393.5,1113.6 1391,1101.7 1414.6,1117.8 					"/>
				</g>
			</g>
		</g>
	</g>
	<path class="st71" d="M1894.4,1065.8H963.8c-6.6,0-12-5.4-12-12v-39.5c0-6.6,5.4-12,12-12h930.5c6.6,0,12,5.4,12,12v39.5
		C1906.4,1060.4,1901,1065.8,1894.4,1065.8z"/>
	<text transform="matrix(1 0 0 1 957.4307 1021.0732)" class="st17 st18 st19">From a profil of amino-acid fitnesses, one can predict non-synonymous over </text>
	<text transform="matrix(1 0 0 1 951.8307 1054.1732)" class="st17 st18 st19">synonymous substitution rate (</text>
	<text transform="matrix(1 0 0 1 1335.1307 1054.1732)" class="st7"><tspan x="0" y="0" class="st17 st70 st19">ω</tspan><tspan x="21.1" y="0" class="st17 st72 st19">₀</tspan></text>
	<text transform="matrix(1 0 0 1 1362.9307 1054.1732)" class="st17 st18 st19">) using the average probality of fixation.</text>
	<text transform="matrix(1 0 0 1 1028.7656 850.8662)" class="st17 st18 st19">Each codon fall into a categorie </text>
	<text transform="matrix(1 0 0 1 1432.8656 850.8662)" class="st17 st70 st19">i </text>
	<text transform="matrix(1 0 0 1 1444.8656 850.8662)" class="st17 st18 st19">with its own amino-acid fitness.</text>
	<g>
		<g>
			<g>
				<line class="st10" x1="1729.1" y1="860.4" x2="1729.1" y2="905.3"/>
				<g>
					<polygon class="st8" points="1718,896.9 1729.1,901.6 1740.2,896.9 1729.1,923.2 					"/>
				</g>
			</g>
		</g>
		<g>
			<g>
				<line class="st10" x1="1442.7" y1="860.4" x2="1442.7" y2="905.3"/>
				<g>
					<polygon class="st8" points="1431.6,896.9 1442.7,901.6 1453.8,896.9 1442.7,923.2 					"/>
				</g>
			</g>
		</g>
		<g>
			<g>
				<line class="st10" x1="1156.2" y1="860.4" x2="1156.2" y2="905.3"/>
				<g>
					<polygon class="st8" points="1145.1,896.9 1156.2,901.6 1167.4,896.9 1156.2,923.2 					"/>
				</g>
			</g>
		</g>
	</g>
	<g>
		<g>
			<g>
				<line class="st10" x1="755.8" y1="1013.7" x2="525.4" y2="1110.9"/>
				<g>
					<polygon class="st8" points="528.9,1097.4 528.9,1109.4 537.5,1117.8 508.9,1117.8 					"/>
				</g>
			</g>
		</g>
		<g>
			<g>
				<line class="st10" x1="469.4" y1="1013.7" x2="469.4" y2="1099.9"/>
				<g>
					<polygon class="st8" points="458.3,1091.5 469.4,1096.2 480.5,1091.5 469.4,1117.8 					"/>
				</g>
			</g>
		</g>
		<g>
			<g>
				<line class="st10" x1="182.9" y1="1013.7" x2="419.4" y2="1111"/>
				<g>
					<polygon class="st8" points="407.4,1118.1 416,1109.6 415.8,1097.5 436,1117.8 					"/>
				</g>
			</g>
		</g>
	</g>
	<g>
		<g>
			<line class="st10" x1="1064.1" y1="1238.1" x2="1003.2" y2="1318.3"/>
			<g>
				<polygon class="st8" points="999.5,1304.9 1005.5,1315.3 1017.2,1318.3 992.4,1332.6 				"/>
			</g>
		</g>
	</g>
	<g>
		<g>
			<line class="st10" x1="702.6" y1="1236.6" x2="875.5" y2="1320.3"/>
			<g>
				<polygon class="st8" points="863,1326.6 872.1,1318.6 872.7,1306.6 891.6,1328.1 				"/>
			</g>
		</g>
	</g>
</g>
</svg>
