<?xml version="1.0" encoding="utf-8" standalone="no"?>
<!DOCTYPE svg PUBLIC "-//W3C//DTD SVG 1.1//EN"
  "http://www.w3.org/Graphics/SVG/1.1/DTD/svg11.dtd">
<!-- Created with matplotlib (http://matplotlib.org/) -->
<svg height="1080pt" version="1.1" viewBox="0 0 1440 1080" width="1440pt" xmlns="http://www.w3.org/2000/svg" xmlns:xlink="http://www.w3.org/1999/xlink">
 <defs>
  <style type="text/css">
*{stroke-linecap:butt;stroke-linejoin:round;stroke-miterlimit:100000;}
  </style>
 </defs>
 <g id="figure_1">
  <g id="patch_1">
   <path d="M 0 1080 
L 1440 1080 
L 1440 0 
L 0 0 
z
" style="fill:#ffffff;"/>
  </g>
  <g id="axes_1">
   <g id="patch_2">
    <path d="M 180 972 
L 1296 972 
L 1296 108 
L 180 108 
z
" style="fill:#ffffff;"/>
   </g>
   <g id="PathCollection_1">
    <defs>
     <path d="M 0 4.1833 
C 1.109424 4.1833 2.173559 3.742521 2.95804 2.95804 
C 3.742521 2.173559 4.1833 1.109424 4.1833 0 
C 4.1833 -1.109424 3.742521 -2.173559 2.95804 -2.95804 
C 2.173559 -3.742521 1.109424 -4.1833 0 -4.1833 
C -1.109424 -4.1833 -2.173559 -3.742521 -2.95804 -2.95804 
C -3.742521 -2.173559 -4.1833 -1.109424 -4.1833 0 
C -4.1833 1.109424 -3.742521 2.173559 -2.95804 2.95804 
C -2.173559 3.742521 -1.109424 4.1833 0 4.1833 
z
" id="m2ca43fd286" style="stroke:#000000;"/>
    </defs>
    <g clip-path="url(#p899bfbfb86)">
     <use style="fill:#e29d26;stroke:#000000;" x="964.216216216" xlink:href="#m2ca43fd286" y="197.333127006"/>
     <use style="fill:#e29d26;stroke:#000000;" x="994.378378378" xlink:href="#m2ca43fd286" y="200.925047423"/>
     <use style="fill:#e29d26;stroke:#000000;" x="1024.54054054" xlink:href="#m2ca43fd286" y="201.033932924"/>
     <use style="fill:#e29d26;stroke:#000000;" x="1054.7027027" xlink:href="#m2ca43fd286" y="201.033932924"/>
     <use style="fill:#e29d26;stroke:#000000;" x="1084.86486486" xlink:href="#m2ca43fd286" y="199.803404755"/>
     <use style="fill:#e29d26;stroke:#000000;" x="1115.02702703" xlink:href="#m2ca43fd286" y="199.803404755"/>
     <use style="fill:#e29d26;stroke:#000000;" x="1145.18918919" xlink:href="#m2ca43fd286" y="197.981707015"/>
     <use style="fill:#e29d26;stroke:#000000;" x="1175.35135135" xlink:href="#m2ca43fd286" y="204.179957714"/>
     <use style="fill:#e29d26;stroke:#000000;" x="1205.51351351" xlink:href="#m2ca43fd286" y="203.80122708"/>
     <use style="fill:#e29d26;stroke:#000000;" x="1235.67567568" xlink:href="#m2ca43fd286" y="202.960482138"/>
     <use style="fill:#e29d26;stroke:#000000;" x="1265.83783784" xlink:href="#m2ca43fd286" y="202.960482138"/>
     <use style="fill:#e29d26;stroke:#000000;" x="1296.0" xlink:href="#m2ca43fd286" y="202.960482138"/>
    </g>
   </g>
   <g id="PathCollection_2">
    <defs>
     <path d="M 0 4.1833 
C 1.109424 4.1833 2.173559 3.742521 2.95804 2.95804 
C 3.742521 2.173559 4.1833 1.109424 4.1833 0 
C 4.1833 -1.109424 3.742521 -2.173559 2.95804 -2.95804 
C 2.173559 -3.742521 1.109424 -4.1833 0 -4.1833 
C -1.109424 -4.1833 -2.173559 -3.742521 -2.95804 -2.95804 
C -3.742521 -2.173559 -4.1833 -1.109424 -4.1833 0 
C -4.1833 1.109424 -3.742521 2.173559 -2.95804 2.95804 
C -2.173559 3.742521 -1.109424 4.1833 0 4.1833 
z
" id="mc55e5f2ed8" style="stroke:#000000;"/>
    </defs>
    <g clip-path="url(#p899bfbfb86)">
     <use style="fill:#eb6231;stroke:#000000;" x="180.0" xlink:href="#mc55e5f2ed8" y="530.415350795"/>
     <use style="fill:#eb6231;stroke:#000000;" x="210.162162162" xlink:href="#mc55e5f2ed8" y="530.415350795"/>
     <use style="fill:#eb6231;stroke:#000000;" x="240.324324324" xlink:href="#mc55e5f2ed8" y="522.703107207"/>
     <use style="fill:#eb6231;stroke:#000000;" x="270.486486486" xlink:href="#mc55e5f2ed8" y="522.703107207"/>
     <use style="fill:#eb6231;stroke:#000000;" x="300.648648649" xlink:href="#mc55e5f2ed8" y="516.889810543"/>
     <use style="fill:#eb6231;stroke:#000000;" x="330.810810811" xlink:href="#mc55e5f2ed8" y="516.889810543"/>
     <use style="fill:#eb6231;stroke:#000000;" x="360.972972973" xlink:href="#mc55e5f2ed8" y="516.889810543"/>
     <use style="fill:#eb6231;stroke:#000000;" x="391.135135135" xlink:href="#mc55e5f2ed8" y="309.649118506"/>
     <use style="fill:#eb6231;stroke:#000000;" x="421.297297297" xlink:href="#mc55e5f2ed8" y="299.957824069"/>
     <use style="fill:#eb6231;stroke:#000000;" x="451.459459459" xlink:href="#mc55e5f2ed8" y="300.358939011"/>
     <use style="fill:#eb6231;stroke:#000000;" x="481.621621622" xlink:href="#mc55e5f2ed8" y="288.508025689"/>
     <use style="fill:#eb6231;stroke:#000000;" x="511.783783784" xlink:href="#mc55e5f2ed8" y="288.508025689"/>
     <use style="fill:#eb6231;stroke:#000000;" x="541.945945946" xlink:href="#mc55e5f2ed8" y="281.583395089"/>
     <use style="fill:#eb6231;stroke:#000000;" x="572.108108108" xlink:href="#mc55e5f2ed8" y="270.006727601"/>
     <use style="fill:#eb6231;stroke:#000000;" x="602.27027027" xlink:href="#mc55e5f2ed8" y="265.046377761"/>
     <use style="fill:#eb6231;stroke:#000000;" x="632.432432432" xlink:href="#mc55e5f2ed8" y="257.046201278"/>
     <use style="fill:#eb6231;stroke:#000000;" x="662.594594595" xlink:href="#mc55e5f2ed8" y="254.562457959"/>
     <use style="fill:#eb6231;stroke:#000000;" x="692.756756757" xlink:href="#mc55e5f2ed8" y="248.411245568"/>
     <use style="fill:#eb6231;stroke:#000000;" x="722.918918919" xlink:href="#mc55e5f2ed8" y="245.034440074"/>
     <use style="fill:#eb6231;stroke:#000000;" x="753.081081081" xlink:href="#mc55e5f2ed8" y="241.161177449"/>
     <use style="fill:#eb6231;stroke:#000000;" x="783.243243243" xlink:href="#mc55e5f2ed8" y="235.603104067"/>
     <use style="fill:#eb6231;stroke:#000000;" x="813.405405405" xlink:href="#mc55e5f2ed8" y="231.938618178"/>
     <use style="fill:#eb6231;stroke:#000000;" x="843.567567568" xlink:href="#mc55e5f2ed8" y="232.250068995"/>
     <use style="fill:#eb6231;stroke:#000000;" x="873.72972973" xlink:href="#mc55e5f2ed8" y="231.639647941"/>
     <use style="fill:#eb6231;stroke:#000000;" x="903.891891892" xlink:href="#mc55e5f2ed8" y="231.197130533"/>
     <use style="fill:#eb6231;stroke:#000000;" x="934.054054054" xlink:href="#mc55e5f2ed8" y="230.904798834"/>
     <use style="fill:#eb6231;stroke:#000000;" x="964.216216216" xlink:href="#mc55e5f2ed8" y="514.226100249"/>
     <use style="fill:#eb6231;stroke:#000000;" x="994.378378378" xlink:href="#mc55e5f2ed8" y="521.072297942"/>
     <use style="fill:#eb6231;stroke:#000000;" x="1024.54054054" xlink:href="#mc55e5f2ed8" y="520.714677837"/>
     <use style="fill:#eb6231;stroke:#000000;" x="1054.7027027" xlink:href="#mc55e5f2ed8" y="520.714677837"/>
     <use style="fill:#eb6231;stroke:#000000;" x="1084.86486486" xlink:href="#mc55e5f2ed8" y="520.181435675"/>
     <use style="fill:#eb6231;stroke:#000000;" x="1115.02702703" xlink:href="#mc55e5f2ed8" y="520.181435675"/>
     <use style="fill:#eb6231;stroke:#000000;" x="1145.18918919" xlink:href="#mc55e5f2ed8" y="519.828042773"/>
     <use style="fill:#eb6231;stroke:#000000;" x="1175.35135135" xlink:href="#mc55e5f2ed8" y="526.075519509"/>
     <use style="fill:#eb6231;stroke:#000000;" x="1205.51351351" xlink:href="#mc55e5f2ed8" y="525.123373392"/>
     <use style="fill:#eb6231;stroke:#000000;" x="1235.67567568" xlink:href="#mc55e5f2ed8" y="525.123373392"/>
     <use style="fill:#eb6231;stroke:#000000;" x="1265.83783784" xlink:href="#mc55e5f2ed8" y="622.741280504"/>
     <use style="fill:#eb6231;stroke:#000000;" x="1296.0" xlink:href="#mc55e5f2ed8" y="622.741280504"/>
    </g>
   </g>
   <g id="PathCollection_3">
    <defs>
     <path d="M 0 4.1833 
C 1.109424 4.1833 2.173559 3.742521 2.95804 2.95804 
C 3.742521 2.173559 4.1833 1.109424 4.1833 0 
C 4.1833 -1.109424 3.742521 -2.173559 2.95804 -2.95804 
C 2.173559 -3.742521 1.109424 -4.1833 0 -4.1833 
C -1.109424 -4.1833 -2.173559 -3.742521 -2.95804 -2.95804 
C -3.742521 -2.173559 -4.1833 -1.109424 -4.1833 0 
C -4.1833 1.109424 -3.742521 2.173559 -2.95804 2.95804 
C -2.173559 3.742521 -1.109424 4.1833 0 4.1833 
z
" id="mad3143b836" style="stroke:#000000;"/>
    </defs>
    <g clip-path="url(#p899bfbfb86)">
     <use style="fill:#5d80b4;stroke:#000000;" x="180.0" xlink:href="#mad3143b836" y="168.902681223"/>
     <use style="fill:#5d80b4;stroke:#000000;" x="210.162162162" xlink:href="#mad3143b836" y="168.902681223"/>
     <use style="fill:#5d80b4;stroke:#000000;" x="240.324324324" xlink:href="#mad3143b836" y="168.756210968"/>
     <use style="fill:#5d80b4;stroke:#000000;" x="270.486486486" xlink:href="#mad3143b836" y="168.693525763"/>
     <use style="fill:#5d80b4;stroke:#000000;" x="300.648648649" xlink:href="#mad3143b836" y="167.122787324"/>
     <use style="fill:#5d80b4;stroke:#000000;" x="330.810810811" xlink:href="#mad3143b836" y="167.122787324"/>
     <use style="fill:#5d80b4;stroke:#000000;" x="360.972972973" xlink:href="#mad3143b836" y="167.122787324"/>
     <use style="fill:#5d80b4;stroke:#000000;" x="391.135135135" xlink:href="#mad3143b836" y="133.357328956"/>
     <use style="fill:#5d80b4;stroke:#000000;" x="421.297297297" xlink:href="#mad3143b836" y="130.29561894"/>
     <use style="fill:#5d80b4;stroke:#000000;" x="451.459459459" xlink:href="#mad3143b836" y="131.427771935"/>
     <use style="fill:#5d80b4;stroke:#000000;" x="481.621621622" xlink:href="#mad3143b836" y="129.043178305"/>
     <use style="fill:#5d80b4;stroke:#000000;" x="511.783783784" xlink:href="#mad3143b836" y="129.054521682"/>
     <use style="fill:#5d80b4;stroke:#000000;" x="541.945945946" xlink:href="#mad3143b836" y="126.357520444"/>
     <use style="fill:#5d80b4;stroke:#000000;" x="572.108108108" xlink:href="#mad3143b836" y="121.961147839"/>
     <use style="fill:#5d80b4;stroke:#000000;" x="602.27027027" xlink:href="#mad3143b836" y="120.849191854"/>
     <use style="fill:#5d80b4;stroke:#000000;" x="632.432432432" xlink:href="#mad3143b836" y="117.71803387"/>
     <use style="fill:#5d80b4;stroke:#000000;" x="662.594594595" xlink:href="#mad3143b836" y="116.598964213"/>
     <use style="fill:#5d80b4;stroke:#000000;" x="692.756756757" xlink:href="#mad3143b836" y="113.74064631"/>
     <use style="fill:#5d80b4;stroke:#000000;" x="722.918918919" xlink:href="#mad3143b836" y="111.229280311"/>
     <use style="fill:#5d80b4;stroke:#000000;" x="753.081081081" xlink:href="#mad3143b836" y="113.456975867"/>
     <use style="fill:#5d80b4;stroke:#000000;" x="783.243243243" xlink:href="#mad3143b836" y="110.694223907"/>
     <use style="fill:#5d80b4;stroke:#000000;" x="813.405405405" xlink:href="#mad3143b836" y="108.0"/>
     <use style="fill:#5d80b4;stroke:#000000;" x="843.567567568" xlink:href="#mad3143b836" y="108.912834992"/>
     <use style="fill:#5d80b4;stroke:#000000;" x="873.72972973" xlink:href="#mad3143b836" y="108.620980265"/>
     <use style="fill:#5d80b4;stroke:#000000;" x="903.891891892" xlink:href="#mad3143b836" y="108.339574935"/>
     <use style="fill:#5d80b4;stroke:#000000;" x="934.054054054" xlink:href="#mad3143b836" y="108.017833954"/>
     <use style="fill:#5d80b4;stroke:#000000;" x="964.216216216" xlink:href="#mad3143b836" y="108.017833954"/>
     <use style="fill:#5d80b4;stroke:#000000;" x="994.378378378" xlink:href="#mad3143b836" y="111.901090181"/>
     <use style="fill:#5d80b4;stroke:#000000;" x="1024.54054054" xlink:href="#mad3143b836" y="111.918376453"/>
     <use style="fill:#5d80b4;stroke:#000000;" x="1054.7027027" xlink:href="#mad3143b836" y="111.918376453"/>
     <use style="fill:#5d80b4;stroke:#000000;" x="1084.86486486" xlink:href="#mad3143b836" y="110.916389751"/>
     <use style="fill:#5d80b4;stroke:#000000;" x="1115.02702703" xlink:href="#mad3143b836" y="110.916389751"/>
     <use style="fill:#5d80b4;stroke:#000000;" x="1145.18918919" xlink:href="#mad3143b836" y="110.064650331"/>
     <use style="fill:#5d80b4;stroke:#000000;" x="1175.35135135" xlink:href="#mad3143b836" y="116.380817223"/>
     <use style="fill:#5d80b4;stroke:#000000;" x="1205.51351351" xlink:href="#mad3143b836" y="116.206279265"/>
     <use style="fill:#5d80b4;stroke:#000000;" x="1235.67567568" xlink:href="#mad3143b836" y="115.815646643"/>
     <use style="fill:#5d80b4;stroke:#000000;" x="1265.83783784" xlink:href="#mad3143b836" y="115.815646643"/>
     <use style="fill:#5d80b4;stroke:#000000;" x="1296.0" xlink:href="#mad3143b836" y="115.815646643"/>
    </g>
   </g>
   <g id="line2d_1">
    <path clip-path="url(#p899bfbfb86)" d="M 964.216216 197.333127 
L 994.378378 200.925047 
L 1024.540541 201.033933 
L 1054.702703 201.033933 
L 1084.864865 199.803405 
L 1115.027027 199.803405 
L 1145.189189 197.981707 
L 1175.351351 204.179958 
L 1205.513514 203.801227 
L 1235.675676 202.960482 
L 1265.837838 202.960482 
L 1296 202.960482 
" style="fill:none;stroke:#e29d26;stroke-linecap:square;"/>
   </g>
   <g id="line2d_2">
    <path clip-path="url(#p899bfbfb86)" d="M 180 530.415351 
L 210.162162 530.415351 
L 240.324324 522.703107 
L 270.486486 522.703107 
L 300.648649 516.889811 
L 330.810811 516.889811 
L 360.972973 516.889811 
L 391.135135 309.649119 
L 421.297297 299.957824 
L 451.459459 300.358939 
L 481.621622 288.508026 
L 511.783784 288.508026 
L 541.945946 281.583395 
L 572.108108 270.006728 
L 602.27027 265.046378 
L 632.432432 257.046201 
L 662.594595 254.562458 
L 692.756757 248.411246 
L 722.918919 245.03444 
L 753.081081 241.161177 
L 783.243243 235.603104 
L 813.405405 231.938618 
L 843.567568 232.250069 
L 873.72973 231.639648 
L 903.891892 231.197131 
L 934.054054 230.904799 
L 964.216216 514.2261 
L 994.378378 521.072298 
L 1024.540541 520.714678 
L 1054.702703 520.714678 
L 1084.864865 520.181436 
L 1115.027027 520.181436 
L 1145.189189 519.828043 
L 1175.351351 526.07552 
L 1205.513514 525.123373 
L 1235.675676 525.123373 
L 1265.837838 622.741281 
L 1296 622.741281 
" style="fill:none;stroke:#eb6231;stroke-linecap:square;"/>
   </g>
   <g id="line2d_3">
    <path clip-path="url(#p899bfbfb86)" d="M 180 168.902681 
L 210.162162 168.902681 
L 240.324324 168.756211 
L 270.486486 168.693526 
L 300.648649 167.122787 
L 330.810811 167.122787 
L 360.972973 167.122787 
L 391.135135 133.357329 
L 421.297297 130.295619 
L 451.459459 131.427772 
L 481.621622 129.043178 
L 511.783784 129.054522 
L 541.945946 126.35752 
L 572.108108 121.961148 
L 602.27027 120.849192 
L 632.432432 117.718034 
L 662.594595 116.598964 
L 692.756757 113.740646 
L 722.918919 111.22928 
L 753.081081 113.456976 
L 783.243243 110.694224 
L 813.405405 108 
L 843.567568 108.912835 
L 873.72973 108.62098 
L 903.891892 108.339575 
L 934.054054 108.017834 
L 964.216216 108.017834 
L 994.378378 111.90109 
L 1024.540541 111.918376 
L 1054.702703 111.918376 
L 1084.864865 110.91639 
L 1115.027027 110.91639 
L 1145.189189 110.06465 
L 1175.351351 116.380817 
L 1205.513514 116.206279 
L 1235.675676 115.815647 
L 1265.837838 115.815647 
L 1296 115.815647 
" style="fill:none;stroke:#5d80b4;stroke-linecap:square;"/>
   </g>
   <g id="patch_3">
    <path d="M 180 972 
L 180 108 
" style="fill:none;stroke:#000000;stroke-linecap:square;stroke-linejoin:miter;"/>
   </g>
   <g id="patch_4">
    <path d="M 180 108 
L 1296 108 
" style="fill:none;stroke:#000000;stroke-linecap:square;stroke-linejoin:miter;"/>
   </g>
   <g id="patch_5">
    <path d="M 180 972 
L 1296 972 
" style="fill:none;stroke:#000000;stroke-linecap:square;stroke-linejoin:miter;"/>
   </g>
   <g id="patch_6">
    <path d="M 1296 972 
L 1296 108 
" style="fill:none;stroke:#000000;stroke-linecap:square;stroke-linejoin:miter;"/>
   </g>
   <g id="matplotlib.axis_1">
    <g id="xtick_1">
     <g id="line2d_4">
      <defs>
       <path d="M 0 0 
L 0 -4 
" id="mbcc7bde65b" style="stroke:#000000;stroke-width:0.5;"/>
      </defs>
      <g>
       <use style="stroke:#000000;stroke-width:0.5;" x="180.0" xlink:href="#mbcc7bde65b" y="972.0"/>
      </g>
     </g>
     <g id="line2d_5">
      <defs>
       <path d="M 0 0 
L 0 4 
" id="ma8002090af" style="stroke:#000000;stroke-width:0.5;"/>
      </defs>
      <g>
       <use style="stroke:#000000;stroke-width:0.5;" x="180.0" xlink:href="#ma8002090af" y="108.0"/>
      </g>
     </g>
     <g id="text_1">
      <!-- 0 -->
      <defs>
       <path d="M 31.78125 66.40625 
Q 24.171875 66.40625 20.328125 58.90625 
Q 16.5 51.421875 16.5 36.375 
Q 16.5 21.390625 20.328125 13.890625 
Q 24.171875 6.390625 31.78125 6.390625 
Q 39.453125 6.390625 43.28125 13.890625 
Q 47.125 21.390625 47.125 36.375 
Q 47.125 51.421875 43.28125 58.90625 
Q 39.453125 66.40625 31.78125 66.40625 
M 31.78125 74.21875 
Q 44.046875 74.21875 50.515625 64.515625 
Q 56.984375 54.828125 56.984375 36.375 
Q 56.984375 17.96875 50.515625 8.265625 
Q 44.046875 -1.421875 31.78125 -1.421875 
Q 19.53125 -1.421875 13.0625 8.265625 
Q 6.59375 17.96875 6.59375 36.375 
Q 6.59375 54.828125 13.0625 64.515625 
Q 19.53125 74.21875 31.78125 74.21875 
" id="BitstreamVeraSans-Roman-30"/>
      </defs>
      <g transform="translate(176.1825 985.118125)scale(0.12 -0.12)">
       <use xlink:href="#BitstreamVeraSans-Roman-30"/>
      </g>
     </g>
    </g>
    <g id="xtick_2">
     <g id="line2d_6">
      <g>
       <use style="stroke:#000000;stroke-width:0.5;" x="330.810810811" xlink:href="#mbcc7bde65b" y="972.0"/>
      </g>
     </g>
     <g id="line2d_7">
      <g>
       <use style="stroke:#000000;stroke-width:0.5;" x="330.810810811" xlink:href="#ma8002090af" y="108.0"/>
      </g>
     </g>
     <g id="text_2">
      <!-- 5 -->
      <defs>
       <path d="M 10.796875 72.90625 
L 49.515625 72.90625 
L 49.515625 64.59375 
L 19.828125 64.59375 
L 19.828125 46.734375 
Q 21.96875 47.46875 24.109375 47.828125 
Q 26.265625 48.1875 28.421875 48.1875 
Q 40.625 48.1875 47.75 41.5 
Q 54.890625 34.8125 54.890625 23.390625 
Q 54.890625 11.625 47.5625 5.09375 
Q 40.234375 -1.421875 26.90625 -1.421875 
Q 22.3125 -1.421875 17.546875 -0.640625 
Q 12.796875 0.140625 7.71875 1.703125 
L 7.71875 11.625 
Q 12.109375 9.234375 16.796875 8.0625 
Q 21.484375 6.890625 26.703125 6.890625 
Q 35.15625 6.890625 40.078125 11.328125 
Q 45.015625 15.765625 45.015625 23.390625 
Q 45.015625 31 40.078125 35.4375 
Q 35.15625 39.890625 26.703125 39.890625 
Q 22.75 39.890625 18.8125 39.015625 
Q 14.890625 38.140625 10.796875 36.28125 
z
" id="BitstreamVeraSans-Roman-35"/>
      </defs>
      <g transform="translate(326.993310811 985.118125)scale(0.12 -0.12)">
       <use xlink:href="#BitstreamVeraSans-Roman-35"/>
      </g>
     </g>
    </g>
    <g id="xtick_3">
     <g id="line2d_8">
      <g>
       <use style="stroke:#000000;stroke-width:0.5;" x="481.621621622" xlink:href="#mbcc7bde65b" y="972.0"/>
      </g>
     </g>
     <g id="line2d_9">
      <g>
       <use style="stroke:#000000;stroke-width:0.5;" x="481.621621622" xlink:href="#ma8002090af" y="108.0"/>
      </g>
     </g>
     <g id="text_3">
      <!-- 10 -->
      <defs>
       <path d="M 12.40625 8.296875 
L 28.515625 8.296875 
L 28.515625 63.921875 
L 10.984375 60.40625 
L 10.984375 69.390625 
L 28.421875 72.90625 
L 38.28125 72.90625 
L 38.28125 8.296875 
L 54.390625 8.296875 
L 54.390625 0 
L 12.40625 0 
z
" id="BitstreamVeraSans-Roman-31"/>
      </defs>
      <g transform="translate(473.986621622 985.118125)scale(0.12 -0.12)">
       <use xlink:href="#BitstreamVeraSans-Roman-31"/>
       <use x="63.623046875" xlink:href="#BitstreamVeraSans-Roman-30"/>
      </g>
     </g>
    </g>
    <g id="xtick_4">
     <g id="line2d_10">
      <g>
       <use style="stroke:#000000;stroke-width:0.5;" x="632.432432432" xlink:href="#mbcc7bde65b" y="972.0"/>
      </g>
     </g>
     <g id="line2d_11">
      <g>
       <use style="stroke:#000000;stroke-width:0.5;" x="632.432432432" xlink:href="#ma8002090af" y="108.0"/>
      </g>
     </g>
     <g id="text_4">
      <!-- 15 -->
      <g transform="translate(624.797432432 985.118125)scale(0.12 -0.12)">
       <use xlink:href="#BitstreamVeraSans-Roman-31"/>
       <use x="63.623046875" xlink:href="#BitstreamVeraSans-Roman-35"/>
      </g>
     </g>
    </g>
    <g id="xtick_5">
     <g id="line2d_12">
      <g>
       <use style="stroke:#000000;stroke-width:0.5;" x="783.243243243" xlink:href="#mbcc7bde65b" y="972.0"/>
      </g>
     </g>
     <g id="line2d_13">
      <g>
       <use style="stroke:#000000;stroke-width:0.5;" x="783.243243243" xlink:href="#ma8002090af" y="108.0"/>
      </g>
     </g>
     <g id="text_5">
      <!-- 20 -->
      <defs>
       <path d="M 19.1875 8.296875 
L 53.609375 8.296875 
L 53.609375 0 
L 7.328125 0 
L 7.328125 8.296875 
Q 12.9375 14.109375 22.625 23.890625 
Q 32.328125 33.6875 34.8125 36.53125 
Q 39.546875 41.84375 41.421875 45.53125 
Q 43.3125 49.21875 43.3125 52.78125 
Q 43.3125 58.59375 39.234375 62.25 
Q 35.15625 65.921875 28.609375 65.921875 
Q 23.96875 65.921875 18.8125 64.3125 
Q 13.671875 62.703125 7.8125 59.421875 
L 7.8125 69.390625 
Q 13.765625 71.78125 18.9375 73 
Q 24.125 74.21875 28.421875 74.21875 
Q 39.75 74.21875 46.484375 68.546875 
Q 53.21875 62.890625 53.21875 53.421875 
Q 53.21875 48.921875 51.53125 44.890625 
Q 49.859375 40.875 45.40625 35.40625 
Q 44.1875 33.984375 37.640625 27.21875 
Q 31.109375 20.453125 19.1875 8.296875 
" id="BitstreamVeraSans-Roman-32"/>
      </defs>
      <g transform="translate(775.608243243 985.118125)scale(0.12 -0.12)">
       <use xlink:href="#BitstreamVeraSans-Roman-32"/>
       <use x="63.623046875" xlink:href="#BitstreamVeraSans-Roman-30"/>
      </g>
     </g>
    </g>
    <g id="xtick_6">
     <g id="line2d_14">
      <g>
       <use style="stroke:#000000;stroke-width:0.5;" x="934.054054054" xlink:href="#mbcc7bde65b" y="972.0"/>
      </g>
     </g>
     <g id="line2d_15">
      <g>
       <use style="stroke:#000000;stroke-width:0.5;" x="934.054054054" xlink:href="#ma8002090af" y="108.0"/>
      </g>
     </g>
     <g id="text_6">
      <!-- 25 -->
      <g transform="translate(926.419054054 985.118125)scale(0.12 -0.12)">
       <use xlink:href="#BitstreamVeraSans-Roman-32"/>
       <use x="63.623046875" xlink:href="#BitstreamVeraSans-Roman-35"/>
      </g>
     </g>
    </g>
    <g id="xtick_7">
     <g id="line2d_16">
      <g>
       <use style="stroke:#000000;stroke-width:0.5;" x="1084.86486486" xlink:href="#mbcc7bde65b" y="972.0"/>
      </g>
     </g>
     <g id="line2d_17">
      <g>
       <use style="stroke:#000000;stroke-width:0.5;" x="1084.86486486" xlink:href="#ma8002090af" y="108.0"/>
      </g>
     </g>
     <g id="text_7">
      <!-- 30 -->
      <defs>
       <path d="M 40.578125 39.3125 
Q 47.65625 37.796875 51.625 33 
Q 55.609375 28.21875 55.609375 21.1875 
Q 55.609375 10.40625 48.1875 4.484375 
Q 40.765625 -1.421875 27.09375 -1.421875 
Q 22.515625 -1.421875 17.65625 -0.515625 
Q 12.796875 0.390625 7.625 2.203125 
L 7.625 11.71875 
Q 11.71875 9.328125 16.59375 8.109375 
Q 21.484375 6.890625 26.8125 6.890625 
Q 36.078125 6.890625 40.9375 10.546875 
Q 45.796875 14.203125 45.796875 21.1875 
Q 45.796875 27.640625 41.28125 31.265625 
Q 36.765625 34.90625 28.71875 34.90625 
L 20.21875 34.90625 
L 20.21875 43.015625 
L 29.109375 43.015625 
Q 36.375 43.015625 40.234375 45.921875 
Q 44.09375 48.828125 44.09375 54.296875 
Q 44.09375 59.90625 40.109375 62.90625 
Q 36.140625 65.921875 28.71875 65.921875 
Q 24.65625 65.921875 20.015625 65.03125 
Q 15.375 64.15625 9.8125 62.3125 
L 9.8125 71.09375 
Q 15.4375 72.65625 20.34375 73.4375 
Q 25.25 74.21875 29.59375 74.21875 
Q 40.828125 74.21875 47.359375 69.109375 
Q 53.90625 64.015625 53.90625 55.328125 
Q 53.90625 49.265625 50.4375 45.09375 
Q 46.96875 40.921875 40.578125 39.3125 
" id="BitstreamVeraSans-Roman-33"/>
      </defs>
      <g transform="translate(1077.22986486 985.118125)scale(0.12 -0.12)">
       <use xlink:href="#BitstreamVeraSans-Roman-33"/>
       <use x="63.623046875" xlink:href="#BitstreamVeraSans-Roman-30"/>
      </g>
     </g>
    </g>
    <g id="xtick_8">
     <g id="line2d_18">
      <g>
       <use style="stroke:#000000;stroke-width:0.5;" x="1235.67567568" xlink:href="#mbcc7bde65b" y="972.0"/>
      </g>
     </g>
     <g id="line2d_19">
      <g>
       <use style="stroke:#000000;stroke-width:0.5;" x="1235.67567568" xlink:href="#ma8002090af" y="108.0"/>
      </g>
     </g>
     <g id="text_8">
      <!-- 35 -->
      <g transform="translate(1228.04067568 985.118125)scale(0.12 -0.12)">
       <use xlink:href="#BitstreamVeraSans-Roman-33"/>
       <use x="63.623046875" xlink:href="#BitstreamVeraSans-Roman-35"/>
      </g>
     </g>
    </g>
   </g>
   <g id="matplotlib.axis_2">
    <g id="ytick_1">
     <g id="line2d_20">
      <defs>
       <path d="M 0 0 
L 4 0 
" id="m80e938d450" style="stroke:#000000;stroke-width:0.5;"/>
      </defs>
      <g>
       <use style="stroke:#000000;stroke-width:0.5;" x="180.0" xlink:href="#m80e938d450" y="972.0"/>
      </g>
     </g>
     <g id="line2d_21">
      <defs>
       <path d="M 0 0 
L -4 0 
" id="m4bd2bdf1ab" style="stroke:#000000;stroke-width:0.5;"/>
      </defs>
      <g>
       <use style="stroke:#000000;stroke-width:0.5;" x="1296.0" xlink:href="#m4bd2bdf1ab" y="972.0"/>
      </g>
     </g>
     <g id="text_9">
      <!-- $\mathdefault{10^{0}}$ -->
      <g transform="translate(153.68 975.624375)scale(0.12 -0.12)">
       <use transform="translate(0.0 0.796875)" xlink:href="#BitstreamVeraSans-Roman-31"/>
       <use transform="translate(63.623046875 0.796875)" xlink:href="#BitstreamVeraSans-Roman-30"/>
       <use transform="translate(132.75859375 48.046875)scale(0.7)" xlink:href="#BitstreamVeraSans-Roman-30"/>
      </g>
     </g>
    </g>
    <g id="ytick_2">
     <g id="line2d_22">
      <g>
       <use style="stroke:#000000;stroke-width:0.5;" x="180.0" xlink:href="#m80e938d450" y="799.899127146"/>
      </g>
     </g>
     <g id="line2d_23">
      <g>
       <use style="stroke:#000000;stroke-width:0.5;" x="1296.0" xlink:href="#m4bd2bdf1ab" y="799.899127146"/>
      </g>
     </g>
     <g id="text_10">
      <!-- $\mathdefault{10^{1}}$ -->
      <g transform="translate(153.68 803.463502146)scale(0.12 -0.12)">
       <use transform="translate(0.0 0.7156250000000028)" xlink:href="#BitstreamVeraSans-Roman-31"/>
       <use transform="translate(63.623046875 0.7156250000000028)" xlink:href="#BitstreamVeraSans-Roman-30"/>
       <use transform="translate(132.75859375 47.965625)scale(0.7)" xlink:href="#BitstreamVeraSans-Roman-31"/>
      </g>
     </g>
    </g>
    <g id="ytick_3">
     <g id="line2d_24">
      <g>
       <use style="stroke:#000000;stroke-width:0.5;" x="180.0" xlink:href="#m80e938d450" y="627.798254292"/>
      </g>
     </g>
     <g id="line2d_25">
      <g>
       <use style="stroke:#000000;stroke-width:0.5;" x="1296.0" xlink:href="#m4bd2bdf1ab" y="627.798254292"/>
      </g>
     </g>
     <g id="text_11">
      <!-- $\mathdefault{10^{2}}$ -->
      <g transform="translate(153.68 631.422629292)scale(0.12 -0.12)">
       <use transform="translate(0.0 0.796875)" xlink:href="#BitstreamVeraSans-Roman-31"/>
       <use transform="translate(63.623046875 0.796875)" xlink:href="#BitstreamVeraSans-Roman-30"/>
       <use transform="translate(132.75859375 48.046875)scale(0.7)" xlink:href="#BitstreamVeraSans-Roman-32"/>
      </g>
     </g>
    </g>
    <g id="ytick_4">
     <g id="line2d_26">
      <g>
       <use style="stroke:#000000;stroke-width:0.5;" x="180.0" xlink:href="#m80e938d450" y="455.697381438"/>
      </g>
     </g>
     <g id="line2d_27">
      <g>
       <use style="stroke:#000000;stroke-width:0.5;" x="1296.0" xlink:href="#m4bd2bdf1ab" y="455.697381438"/>
      </g>
     </g>
     <g id="text_12">
      <!-- $\mathdefault{10^{3}}$ -->
      <g transform="translate(153.68 459.321756438)scale(0.12 -0.12)">
       <use transform="translate(0.0 0.796875)" xlink:href="#BitstreamVeraSans-Roman-31"/>
       <use transform="translate(63.623046875 0.796875)" xlink:href="#BitstreamVeraSans-Roman-30"/>
       <use transform="translate(132.75859375 48.046875)scale(0.7)" xlink:href="#BitstreamVeraSans-Roman-33"/>
      </g>
     </g>
    </g>
    <g id="ytick_5">
     <g id="line2d_28">
      <g>
       <use style="stroke:#000000;stroke-width:0.5;" x="180.0" xlink:href="#m80e938d450" y="283.596508583"/>
      </g>
     </g>
     <g id="line2d_29">
      <g>
       <use style="stroke:#000000;stroke-width:0.5;" x="1296.0" xlink:href="#m4bd2bdf1ab" y="283.596508583"/>
      </g>
     </g>
     <g id="text_13">
      <!-- $\mathdefault{10^{4}}$ -->
      <defs>
       <path d="M 37.796875 64.3125 
L 12.890625 25.390625 
L 37.796875 25.390625 
z
M 35.203125 72.90625 
L 47.609375 72.90625 
L 47.609375 25.390625 
L 58.015625 25.390625 
L 58.015625 17.1875 
L 47.609375 17.1875 
L 47.609375 0 
L 37.796875 0 
L 37.796875 17.1875 
L 4.890625 17.1875 
L 4.890625 26.703125 
z
" id="BitstreamVeraSans-Roman-34"/>
      </defs>
      <g transform="translate(153.68 287.160883583)scale(0.12 -0.12)">
       <use transform="translate(0.0 0.7156250000000028)" xlink:href="#BitstreamVeraSans-Roman-31"/>
       <use transform="translate(63.623046875 0.7156250000000028)" xlink:href="#BitstreamVeraSans-Roman-30"/>
       <use transform="translate(132.75859375 47.965625)scale(0.7)" xlink:href="#BitstreamVeraSans-Roman-34"/>
      </g>
     </g>
    </g>
    <g id="ytick_6">
     <g id="line2d_30">
      <g>
       <use style="stroke:#000000;stroke-width:0.5;" x="180.0" xlink:href="#m80e938d450" y="111.495635729"/>
      </g>
     </g>
     <g id="line2d_31">
      <g>
       <use style="stroke:#000000;stroke-width:0.5;" x="1296.0" xlink:href="#m4bd2bdf1ab" y="111.495635729"/>
      </g>
     </g>
     <g id="text_14">
      <!-- $\mathdefault{10^{5}}$ -->
      <g transform="translate(153.68 115.060010729)scale(0.12 -0.12)">
       <use transform="translate(0.0 0.7156250000000028)" xlink:href="#BitstreamVeraSans-Roman-31"/>
       <use transform="translate(63.623046875 0.7156250000000028)" xlink:href="#BitstreamVeraSans-Roman-30"/>
       <use transform="translate(132.75859375 47.965625)scale(0.7)" xlink:href="#BitstreamVeraSans-Roman-35"/>
      </g>
     </g>
    </g>
    <g id="ytick_7">
     <g id="line2d_32">
      <defs>
       <path d="M 0 0 
L 2 0 
" id="med43072189" style="stroke:#000000;stroke-width:0.5;"/>
      </defs>
      <g>
       <use style="stroke:#000000;stroke-width:0.5;" x="180.0" xlink:href="#med43072189" y="920.192474991"/>
      </g>
     </g>
     <g id="line2d_33">
      <defs>
       <path d="M 0 0 
L -2 0 
" id="mb6e53bd4bc" style="stroke:#000000;stroke-width:0.5;"/>
      </defs>
      <g>
       <use style="stroke:#000000;stroke-width:0.5;" x="1296.0" xlink:href="#mb6e53bd4bc" y="920.192474991"/>
      </g>
     </g>
    </g>
    <g id="ytick_8">
     <g id="line2d_34">
      <g>
       <use style="stroke:#000000;stroke-width:0.5;" x="180.0" xlink:href="#med43072189" y="889.887015605"/>
      </g>
     </g>
     <g id="line2d_35">
      <g>
       <use style="stroke:#000000;stroke-width:0.5;" x="1296.0" xlink:href="#mb6e53bd4bc" y="889.887015605"/>
      </g>
     </g>
    </g>
    <g id="ytick_9">
     <g id="line2d_36">
      <g>
       <use style="stroke:#000000;stroke-width:0.5;" x="180.0" xlink:href="#med43072189" y="868.384949982"/>
      </g>
     </g>
     <g id="line2d_37">
      <g>
       <use style="stroke:#000000;stroke-width:0.5;" x="1296.0" xlink:href="#mb6e53bd4bc" y="868.384949982"/>
      </g>
     </g>
    </g>
    <g id="ytick_10">
     <g id="line2d_38">
      <g>
       <use style="stroke:#000000;stroke-width:0.5;" x="180.0" xlink:href="#med43072189" y="851.706652155"/>
      </g>
     </g>
     <g id="line2d_39">
      <g>
       <use style="stroke:#000000;stroke-width:0.5;" x="1296.0" xlink:href="#mb6e53bd4bc" y="851.706652155"/>
      </g>
     </g>
    </g>
    <g id="ytick_11">
     <g id="line2d_40">
      <g>
       <use style="stroke:#000000;stroke-width:0.5;" x="180.0" xlink:href="#med43072189" y="838.079490596"/>
      </g>
     </g>
     <g id="line2d_41">
      <g>
       <use style="stroke:#000000;stroke-width:0.5;" x="1296.0" xlink:href="#mb6e53bd4bc" y="838.079490596"/>
      </g>
     </g>
    </g>
    <g id="ytick_12">
     <g id="line2d_42">
      <g>
       <use style="stroke:#000000;stroke-width:0.5;" x="180.0" xlink:href="#med43072189" y="826.557889666"/>
      </g>
     </g>
     <g id="line2d_43">
      <g>
       <use style="stroke:#000000;stroke-width:0.5;" x="1296.0" xlink:href="#mb6e53bd4bc" y="826.557889666"/>
      </g>
     </g>
    </g>
    <g id="ytick_13">
     <g id="line2d_44">
      <g>
       <use style="stroke:#000000;stroke-width:0.5;" x="180.0" xlink:href="#med43072189" y="816.577424973"/>
      </g>
     </g>
     <g id="line2d_45">
      <g>
       <use style="stroke:#000000;stroke-width:0.5;" x="1296.0" xlink:href="#mb6e53bd4bc" y="816.577424973"/>
      </g>
     </g>
    </g>
    <g id="ytick_14">
     <g id="line2d_46">
      <g>
       <use style="stroke:#000000;stroke-width:0.5;" x="180.0" xlink:href="#med43072189" y="807.774031211"/>
      </g>
     </g>
     <g id="line2d_47">
      <g>
       <use style="stroke:#000000;stroke-width:0.5;" x="1296.0" xlink:href="#mb6e53bd4bc" y="807.774031211"/>
      </g>
     </g>
    </g>
    <g id="ytick_15">
     <g id="line2d_48">
      <g>
       <use style="stroke:#000000;stroke-width:0.5;" x="180.0" xlink:href="#med43072189" y="748.091602137"/>
      </g>
     </g>
     <g id="line2d_49">
      <g>
       <use style="stroke:#000000;stroke-width:0.5;" x="1296.0" xlink:href="#mb6e53bd4bc" y="748.091602137"/>
      </g>
     </g>
    </g>
    <g id="ytick_16">
     <g id="line2d_50">
      <g>
       <use style="stroke:#000000;stroke-width:0.5;" x="180.0" xlink:href="#med43072189" y="717.786142751"/>
      </g>
     </g>
     <g id="line2d_51">
      <g>
       <use style="stroke:#000000;stroke-width:0.5;" x="1296.0" xlink:href="#mb6e53bd4bc" y="717.786142751"/>
      </g>
     </g>
    </g>
    <g id="ytick_17">
     <g id="line2d_52">
      <g>
       <use style="stroke:#000000;stroke-width:0.5;" x="180.0" xlink:href="#med43072189" y="696.284077128"/>
      </g>
     </g>
     <g id="line2d_53">
      <g>
       <use style="stroke:#000000;stroke-width:0.5;" x="1296.0" xlink:href="#mb6e53bd4bc" y="696.284077128"/>
      </g>
     </g>
    </g>
    <g id="ytick_18">
     <g id="line2d_54">
      <g>
       <use style="stroke:#000000;stroke-width:0.5;" x="180.0" xlink:href="#med43072189" y="679.605779301"/>
      </g>
     </g>
     <g id="line2d_55">
      <g>
       <use style="stroke:#000000;stroke-width:0.5;" x="1296.0" xlink:href="#mb6e53bd4bc" y="679.605779301"/>
      </g>
     </g>
    </g>
    <g id="ytick_19">
     <g id="line2d_56">
      <g>
       <use style="stroke:#000000;stroke-width:0.5;" x="180.0" xlink:href="#med43072189" y="665.978617742"/>
      </g>
     </g>
     <g id="line2d_57">
      <g>
       <use style="stroke:#000000;stroke-width:0.5;" x="1296.0" xlink:href="#mb6e53bd4bc" y="665.978617742"/>
      </g>
     </g>
    </g>
    <g id="ytick_20">
     <g id="line2d_58">
      <g>
       <use style="stroke:#000000;stroke-width:0.5;" x="180.0" xlink:href="#med43072189" y="654.457016812"/>
      </g>
     </g>
     <g id="line2d_59">
      <g>
       <use style="stroke:#000000;stroke-width:0.5;" x="1296.0" xlink:href="#mb6e53bd4bc" y="654.457016812"/>
      </g>
     </g>
    </g>
    <g id="ytick_21">
     <g id="line2d_60">
      <g>
       <use style="stroke:#000000;stroke-width:0.5;" x="180.0" xlink:href="#med43072189" y="644.476552119"/>
      </g>
     </g>
     <g id="line2d_61">
      <g>
       <use style="stroke:#000000;stroke-width:0.5;" x="1296.0" xlink:href="#mb6e53bd4bc" y="644.476552119"/>
      </g>
     </g>
    </g>
    <g id="ytick_22">
     <g id="line2d_62">
      <g>
       <use style="stroke:#000000;stroke-width:0.5;" x="180.0" xlink:href="#med43072189" y="635.673158357"/>
      </g>
     </g>
     <g id="line2d_63">
      <g>
       <use style="stroke:#000000;stroke-width:0.5;" x="1296.0" xlink:href="#mb6e53bd4bc" y="635.673158357"/>
      </g>
     </g>
    </g>
    <g id="ytick_23">
     <g id="line2d_64">
      <g>
       <use style="stroke:#000000;stroke-width:0.5;" x="180.0" xlink:href="#med43072189" y="575.990729283"/>
      </g>
     </g>
     <g id="line2d_65">
      <g>
       <use style="stroke:#000000;stroke-width:0.5;" x="1296.0" xlink:href="#mb6e53bd4bc" y="575.990729283"/>
      </g>
     </g>
    </g>
    <g id="ytick_24">
     <g id="line2d_66">
      <g>
       <use style="stroke:#000000;stroke-width:0.5;" x="180.0" xlink:href="#med43072189" y="545.685269897"/>
      </g>
     </g>
     <g id="line2d_67">
      <g>
       <use style="stroke:#000000;stroke-width:0.5;" x="1296.0" xlink:href="#mb6e53bd4bc" y="545.685269897"/>
      </g>
     </g>
    </g>
    <g id="ytick_25">
     <g id="line2d_68">
      <g>
       <use style="stroke:#000000;stroke-width:0.5;" x="180.0" xlink:href="#med43072189" y="524.183204274"/>
      </g>
     </g>
     <g id="line2d_69">
      <g>
       <use style="stroke:#000000;stroke-width:0.5;" x="1296.0" xlink:href="#mb6e53bd4bc" y="524.183204274"/>
      </g>
     </g>
    </g>
    <g id="ytick_26">
     <g id="line2d_70">
      <g>
       <use style="stroke:#000000;stroke-width:0.5;" x="180.0" xlink:href="#med43072189" y="507.504906447"/>
      </g>
     </g>
     <g id="line2d_71">
      <g>
       <use style="stroke:#000000;stroke-width:0.5;" x="1296.0" xlink:href="#mb6e53bd4bc" y="507.504906447"/>
      </g>
     </g>
    </g>
    <g id="ytick_27">
     <g id="line2d_72">
      <g>
       <use style="stroke:#000000;stroke-width:0.5;" x="180.0" xlink:href="#med43072189" y="493.877744888"/>
      </g>
     </g>
     <g id="line2d_73">
      <g>
       <use style="stroke:#000000;stroke-width:0.5;" x="1296.0" xlink:href="#mb6e53bd4bc" y="493.877744888"/>
      </g>
     </g>
    </g>
    <g id="ytick_28">
     <g id="line2d_74">
      <g>
       <use style="stroke:#000000;stroke-width:0.5;" x="180.0" xlink:href="#med43072189" y="482.356143958"/>
      </g>
     </g>
     <g id="line2d_75">
      <g>
       <use style="stroke:#000000;stroke-width:0.5;" x="1296.0" xlink:href="#mb6e53bd4bc" y="482.356143958"/>
      </g>
     </g>
    </g>
    <g id="ytick_29">
     <g id="line2d_76">
      <g>
       <use style="stroke:#000000;stroke-width:0.5;" x="180.0" xlink:href="#med43072189" y="472.375679265"/>
      </g>
     </g>
     <g id="line2d_77">
      <g>
       <use style="stroke:#000000;stroke-width:0.5;" x="1296.0" xlink:href="#mb6e53bd4bc" y="472.375679265"/>
      </g>
     </g>
    </g>
    <g id="ytick_30">
     <g id="line2d_78">
      <g>
       <use style="stroke:#000000;stroke-width:0.5;" x="180.0" xlink:href="#med43072189" y="463.572285503"/>
      </g>
     </g>
     <g id="line2d_79">
      <g>
       <use style="stroke:#000000;stroke-width:0.5;" x="1296.0" xlink:href="#mb6e53bd4bc" y="463.572285503"/>
      </g>
     </g>
    </g>
    <g id="ytick_31">
     <g id="line2d_80">
      <g>
       <use style="stroke:#000000;stroke-width:0.5;" x="180.0" xlink:href="#med43072189" y="403.889856428"/>
      </g>
     </g>
     <g id="line2d_81">
      <g>
       <use style="stroke:#000000;stroke-width:0.5;" x="1296.0" xlink:href="#mb6e53bd4bc" y="403.889856428"/>
      </g>
     </g>
    </g>
    <g id="ytick_32">
     <g id="line2d_82">
      <g>
       <use style="stroke:#000000;stroke-width:0.5;" x="180.0" xlink:href="#med43072189" y="373.584397043"/>
      </g>
     </g>
     <g id="line2d_83">
      <g>
       <use style="stroke:#000000;stroke-width:0.5;" x="1296.0" xlink:href="#mb6e53bd4bc" y="373.584397043"/>
      </g>
     </g>
    </g>
    <g id="ytick_33">
     <g id="line2d_84">
      <g>
       <use style="stroke:#000000;stroke-width:0.5;" x="180.0" xlink:href="#med43072189" y="352.082331419"/>
      </g>
     </g>
     <g id="line2d_85">
      <g>
       <use style="stroke:#000000;stroke-width:0.5;" x="1296.0" xlink:href="#mb6e53bd4bc" y="352.082331419"/>
      </g>
     </g>
    </g>
    <g id="ytick_34">
     <g id="line2d_86">
      <g>
       <use style="stroke:#000000;stroke-width:0.5;" x="180.0" xlink:href="#med43072189" y="335.404033592"/>
      </g>
     </g>
     <g id="line2d_87">
      <g>
       <use style="stroke:#000000;stroke-width:0.5;" x="1296.0" xlink:href="#mb6e53bd4bc" y="335.404033592"/>
      </g>
     </g>
    </g>
    <g id="ytick_35">
     <g id="line2d_88">
      <g>
       <use style="stroke:#000000;stroke-width:0.5;" x="180.0" xlink:href="#med43072189" y="321.776872034"/>
      </g>
     </g>
     <g id="line2d_89">
      <g>
       <use style="stroke:#000000;stroke-width:0.5;" x="1296.0" xlink:href="#mb6e53bd4bc" y="321.776872034"/>
      </g>
     </g>
    </g>
    <g id="ytick_36">
     <g id="line2d_90">
      <g>
       <use style="stroke:#000000;stroke-width:0.5;" x="180.0" xlink:href="#med43072189" y="310.255271104"/>
      </g>
     </g>
     <g id="line2d_91">
      <g>
       <use style="stroke:#000000;stroke-width:0.5;" x="1296.0" xlink:href="#mb6e53bd4bc" y="310.255271104"/>
      </g>
     </g>
    </g>
    <g id="ytick_37">
     <g id="line2d_92">
      <g>
       <use style="stroke:#000000;stroke-width:0.5;" x="180.0" xlink:href="#med43072189" y="300.27480641"/>
      </g>
     </g>
     <g id="line2d_93">
      <g>
       <use style="stroke:#000000;stroke-width:0.5;" x="1296.0" xlink:href="#mb6e53bd4bc" y="300.27480641"/>
      </g>
     </g>
    </g>
    <g id="ytick_38">
     <g id="line2d_94">
      <g>
       <use style="stroke:#000000;stroke-width:0.5;" x="180.0" xlink:href="#med43072189" y="291.471412648"/>
      </g>
     </g>
     <g id="line2d_95">
      <g>
       <use style="stroke:#000000;stroke-width:0.5;" x="1296.0" xlink:href="#mb6e53bd4bc" y="291.471412648"/>
      </g>
     </g>
    </g>
    <g id="ytick_39">
     <g id="line2d_96">
      <g>
       <use style="stroke:#000000;stroke-width:0.5;" x="180.0" xlink:href="#med43072189" y="231.788983574"/>
      </g>
     </g>
     <g id="line2d_97">
      <g>
       <use style="stroke:#000000;stroke-width:0.5;" x="1296.0" xlink:href="#mb6e53bd4bc" y="231.788983574"/>
      </g>
     </g>
    </g>
    <g id="ytick_40">
     <g id="line2d_98">
      <g>
       <use style="stroke:#000000;stroke-width:0.5;" x="180.0" xlink:href="#med43072189" y="201.483524189"/>
      </g>
     </g>
     <g id="line2d_99">
      <g>
       <use style="stroke:#000000;stroke-width:0.5;" x="1296.0" xlink:href="#mb6e53bd4bc" y="201.483524189"/>
      </g>
     </g>
    </g>
    <g id="ytick_41">
     <g id="line2d_100">
      <g>
       <use style="stroke:#000000;stroke-width:0.5;" x="180.0" xlink:href="#med43072189" y="179.981458565"/>
      </g>
     </g>
     <g id="line2d_101">
      <g>
       <use style="stroke:#000000;stroke-width:0.5;" x="1296.0" xlink:href="#mb6e53bd4bc" y="179.981458565"/>
      </g>
     </g>
    </g>
    <g id="ytick_42">
     <g id="line2d_102">
      <g>
       <use style="stroke:#000000;stroke-width:0.5;" x="180.0" xlink:href="#med43072189" y="163.303160738"/>
      </g>
     </g>
     <g id="line2d_103">
      <g>
       <use style="stroke:#000000;stroke-width:0.5;" x="1296.0" xlink:href="#mb6e53bd4bc" y="163.303160738"/>
      </g>
     </g>
    </g>
    <g id="ytick_43">
     <g id="line2d_104">
      <g>
       <use style="stroke:#000000;stroke-width:0.5;" x="180.0" xlink:href="#med43072189" y="149.67599918"/>
      </g>
     </g>
     <g id="line2d_105">
      <g>
       <use style="stroke:#000000;stroke-width:0.5;" x="1296.0" xlink:href="#mb6e53bd4bc" y="149.67599918"/>
      </g>
     </g>
    </g>
    <g id="ytick_44">
     <g id="line2d_106">
      <g>
       <use style="stroke:#000000;stroke-width:0.5;" x="180.0" xlink:href="#med43072189" y="138.15439825"/>
      </g>
     </g>
     <g id="line2d_107">
      <g>
       <use style="stroke:#000000;stroke-width:0.5;" x="1296.0" xlink:href="#mb6e53bd4bc" y="138.15439825"/>
      </g>
     </g>
    </g>
    <g id="ytick_45">
     <g id="line2d_108">
      <g>
       <use style="stroke:#000000;stroke-width:0.5;" x="180.0" xlink:href="#med43072189" y="128.173933556"/>
      </g>
     </g>
     <g id="line2d_109">
      <g>
       <use style="stroke:#000000;stroke-width:0.5;" x="1296.0" xlink:href="#mb6e53bd4bc" y="128.173933556"/>
      </g>
     </g>
    </g>
    <g id="ytick_46">
     <g id="line2d_110">
      <g>
       <use style="stroke:#000000;stroke-width:0.5;" x="180.0" xlink:href="#med43072189" y="119.370539794"/>
      </g>
     </g>
     <g id="line2d_111">
      <g>
       <use style="stroke:#000000;stroke-width:0.5;" x="1296.0" xlink:href="#mb6e53bd4bc" y="119.370539794"/>
      </g>
     </g>
    </g>
   </g>
   <g id="legend_1">
    <g id="patch_7">
     <path d="M 189 963 
L 645.786562 963 
L 645.786562 878.338125 
L 189 878.338125 
z
" style="fill:#ffffff;stroke:#000000;stroke-linejoin:miter;"/>
    </g>
    <g id="PathCollection_4">
     <path d="M 201.6 898.673613 
C 202.709424 898.673613 203.773559 898.232834 204.55804 897.448352 
C 205.342521 896.663871 205.7833 895.599737 205.7833 894.490313 
C 205.7833 893.380888 205.342521 892.316754 204.55804 891.532273 
C 203.773559 890.747791 202.709424 890.307012 201.6 890.307012 
C 200.490576 890.307012 199.426441 890.747791 198.64196 891.532273 
C 197.857479 892.316754 197.4167 893.380888 197.4167 894.490313 
C 197.4167 895.599737 197.857479 896.663871 198.64196 897.448352 
C 199.426441 898.232834 200.490576 898.673613 201.6 898.673613 
z
" style="fill:#e29d26;stroke:#000000;"/>
     <path d="M 214.2 897.098613 
C 215.309424 897.098613 216.373559 896.657834 217.15804 895.873352 
C 217.942521 895.088871 218.3833 894.024737 218.3833 892.915313 
C 218.3833 891.805888 217.942521 890.741754 217.15804 889.957273 
C 216.373559 889.172791 215.309424 888.732012 214.2 888.732012 
C 213.090576 888.732012 212.026441 889.172791 211.24196 889.957273 
C 210.457479 890.741754 210.0167 891.805888 210.0167 892.915313 
C 210.0167 894.024737 210.457479 895.088871 211.24196 895.873352 
C 212.026441 896.657834 213.090576 897.098613 214.2 897.098613 
z
" style="fill:#e29d26;stroke:#000000;"/>
     <path d="M 226.8 899.461113 
C 227.909424 899.461113 228.973559 899.020334 229.75804 898.235852 
C 230.542521 897.451371 230.9833 896.387237 230.9833 895.277812 
C 230.9833 894.168388 230.542521 893.104254 229.75804 892.319773 
C 228.973559 891.535291 227.909424 891.094512 226.8 891.094512 
C 225.690576 891.094512 224.626441 891.535291 223.84196 892.319773 
C 223.057479 893.104254 222.6167 894.168388 222.6167 895.277812 
C 222.6167 896.387237 223.057479 897.451371 223.84196 898.235852 
C 224.626441 899.020334 225.690576 899.461113 226.8 899.461113 
z
" style="fill:#e29d26;stroke:#000000;"/>
    </g>
    <g id="text_15">
     <!-- CSD with unknown start-end -->
     <defs>
      <path d="M 45.40625 46.390625 
L 45.40625 75.984375 
L 54.390625 75.984375 
L 54.390625 0 
L 45.40625 0 
L 45.40625 8.203125 
Q 42.578125 3.328125 38.25 0.953125 
Q 33.9375 -1.421875 27.875 -1.421875 
Q 17.96875 -1.421875 11.734375 6.484375 
Q 5.515625 14.40625 5.515625 27.296875 
Q 5.515625 40.1875 11.734375 48.09375 
Q 17.96875 56 27.875 56 
Q 33.9375 56 38.25 53.625 
Q 42.578125 51.265625 45.40625 46.390625 
M 14.796875 27.296875 
Q 14.796875 17.390625 18.875 11.75 
Q 22.953125 6.109375 30.078125 6.109375 
Q 37.203125 6.109375 41.296875 11.75 
Q 45.40625 17.390625 45.40625 27.296875 
Q 45.40625 37.203125 41.296875 42.84375 
Q 37.203125 48.484375 30.078125 48.484375 
Q 22.953125 48.484375 18.875 42.84375 
Q 14.796875 37.203125 14.796875 27.296875 
" id="BitstreamVeraSans-Roman-64"/>
      <path d="M 54.890625 33.015625 
L 54.890625 0 
L 45.90625 0 
L 45.90625 32.71875 
Q 45.90625 40.484375 42.875 44.328125 
Q 39.84375 48.1875 33.796875 48.1875 
Q 26.515625 48.1875 22.3125 43.546875 
Q 18.109375 38.921875 18.109375 30.90625 
L 18.109375 0 
L 9.078125 0 
L 9.078125 75.984375 
L 18.109375 75.984375 
L 18.109375 46.1875 
Q 21.34375 51.125 25.703125 53.5625 
Q 30.078125 56 35.796875 56 
Q 45.21875 56 50.046875 50.171875 
Q 54.890625 44.34375 54.890625 33.015625 
" id="BitstreamVeraSans-Roman-68"/>
      <path d="M 19.671875 64.796875 
L 19.671875 8.109375 
L 31.59375 8.109375 
Q 46.6875 8.109375 53.6875 14.9375 
Q 60.6875 21.78125 60.6875 36.53125 
Q 60.6875 51.171875 53.6875 57.984375 
Q 46.6875 64.796875 31.59375 64.796875 
z
M 9.8125 72.90625 
L 30.078125 72.90625 
Q 51.265625 72.90625 61.171875 64.09375 
Q 71.09375 55.28125 71.09375 36.53125 
Q 71.09375 17.671875 61.125 8.828125 
Q 51.171875 0 30.078125 0 
L 9.8125 0 
z
" id="BitstreamVeraSans-Roman-44"/>
      <path d="M 64.40625 67.28125 
L 64.40625 56.890625 
Q 59.421875 61.53125 53.78125 63.8125 
Q 48.140625 66.109375 41.796875 66.109375 
Q 29.296875 66.109375 22.65625 58.46875 
Q 16.015625 50.828125 16.015625 36.375 
Q 16.015625 21.96875 22.65625 14.328125 
Q 29.296875 6.6875 41.796875 6.6875 
Q 48.140625 6.6875 53.78125 8.984375 
Q 59.421875 11.28125 64.40625 15.921875 
L 64.40625 5.609375 
Q 59.234375 2.09375 53.4375 0.328125 
Q 47.65625 -1.421875 41.21875 -1.421875 
Q 24.65625 -1.421875 15.125 8.703125 
Q 5.609375 18.84375 5.609375 36.375 
Q 5.609375 53.953125 15.125 64.078125 
Q 24.65625 74.21875 41.21875 74.21875 
Q 47.75 74.21875 53.53125 72.484375 
Q 59.328125 70.75 64.40625 67.28125 
" id="BitstreamVeraSans-Roman-43"/>
      <path d="M 9.421875 54.6875 
L 18.40625 54.6875 
L 18.40625 0 
L 9.421875 0 
z
M 9.421875 75.984375 
L 18.40625 75.984375 
L 18.40625 64.59375 
L 9.421875 64.59375 
z
" id="BitstreamVeraSans-Roman-69"/>
      <path d="M 53.515625 70.515625 
L 53.515625 60.890625 
Q 47.90625 63.578125 42.921875 64.890625 
Q 37.9375 66.21875 33.296875 66.21875 
Q 25.25 66.21875 20.875 63.09375 
Q 16.5 59.96875 16.5 54.203125 
Q 16.5 49.359375 19.40625 46.890625 
Q 22.3125 44.4375 30.421875 42.921875 
L 36.375 41.703125 
Q 47.40625 39.59375 52.65625 34.296875 
Q 57.90625 29 57.90625 20.125 
Q 57.90625 9.515625 50.796875 4.046875 
Q 43.703125 -1.421875 29.984375 -1.421875 
Q 24.8125 -1.421875 18.96875 -0.25 
Q 13.140625 0.921875 6.890625 3.21875 
L 6.890625 13.375 
Q 12.890625 10.015625 18.65625 8.296875 
Q 24.421875 6.59375 29.984375 6.59375 
Q 38.421875 6.59375 43.015625 9.90625 
Q 47.609375 13.234375 47.609375 19.390625 
Q 47.609375 24.75 44.3125 27.78125 
Q 41.015625 30.8125 33.5 32.328125 
L 27.484375 33.5 
Q 16.453125 35.6875 11.515625 40.375 
Q 6.59375 45.0625 6.59375 53.421875 
Q 6.59375 63.09375 13.40625 68.65625 
Q 20.21875 74.21875 32.171875 74.21875 
Q 37.3125 74.21875 42.625 73.28125 
Q 47.953125 72.359375 53.515625 70.515625 
" id="BitstreamVeraSans-Roman-53"/>
      <path d="M 9.078125 75.984375 
L 18.109375 75.984375 
L 18.109375 31.109375 
L 44.921875 54.6875 
L 56.390625 54.6875 
L 27.390625 29.109375 
L 57.625 0 
L 45.90625 0 
L 18.109375 26.703125 
L 18.109375 0 
L 9.078125 0 
z
" id="BitstreamVeraSans-Roman-6b"/>
      <path id="BitstreamVeraSans-Roman-20"/>
      <path d="M 54.890625 33.015625 
L 54.890625 0 
L 45.90625 0 
L 45.90625 32.71875 
Q 45.90625 40.484375 42.875 44.328125 
Q 39.84375 48.1875 33.796875 48.1875 
Q 26.515625 48.1875 22.3125 43.546875 
Q 18.109375 38.921875 18.109375 30.90625 
L 18.109375 0 
L 9.078125 0 
L 9.078125 54.6875 
L 18.109375 54.6875 
L 18.109375 46.1875 
Q 21.34375 51.125 25.703125 53.5625 
Q 30.078125 56 35.796875 56 
Q 45.21875 56 50.046875 50.171875 
Q 54.890625 44.34375 54.890625 33.015625 
" id="BitstreamVeraSans-Roman-6e"/>
      <path d="M 30.609375 48.390625 
Q 23.390625 48.390625 19.1875 42.75 
Q 14.984375 37.109375 14.984375 27.296875 
Q 14.984375 17.484375 19.15625 11.84375 
Q 23.34375 6.203125 30.609375 6.203125 
Q 37.796875 6.203125 41.984375 11.859375 
Q 46.1875 17.53125 46.1875 27.296875 
Q 46.1875 37.015625 41.984375 42.703125 
Q 37.796875 48.390625 30.609375 48.390625 
M 30.609375 56 
Q 42.328125 56 49.015625 48.375 
Q 55.71875 40.765625 55.71875 27.296875 
Q 55.71875 13.875 49.015625 6.21875 
Q 42.328125 -1.421875 30.609375 -1.421875 
Q 18.84375 -1.421875 12.171875 6.21875 
Q 5.515625 13.875 5.515625 27.296875 
Q 5.515625 40.765625 12.171875 48.375 
Q 18.84375 56 30.609375 56 
" id="BitstreamVeraSans-Roman-6f"/>
      <path d="M 41.109375 46.296875 
Q 39.59375 47.171875 37.8125 47.578125 
Q 36.03125 48 33.890625 48 
Q 26.265625 48 22.1875 43.046875 
Q 18.109375 38.09375 18.109375 28.8125 
L 18.109375 0 
L 9.078125 0 
L 9.078125 54.6875 
L 18.109375 54.6875 
L 18.109375 46.1875 
Q 20.953125 51.171875 25.484375 53.578125 
Q 30.03125 56 36.53125 56 
Q 37.453125 56 38.578125 55.875 
Q 39.703125 55.765625 41.0625 55.515625 
z
" id="BitstreamVeraSans-Roman-72"/>
      <path d="M 4.203125 54.6875 
L 13.1875 54.6875 
L 24.421875 12.015625 
L 35.59375 54.6875 
L 46.1875 54.6875 
L 57.421875 12.015625 
L 68.609375 54.6875 
L 77.59375 54.6875 
L 63.28125 0 
L 52.6875 0 
L 40.921875 44.828125 
L 29.109375 0 
L 18.5 0 
z
" id="BitstreamVeraSans-Roman-77"/>
      <path d="M 34.28125 27.484375 
Q 23.390625 27.484375 19.1875 25 
Q 14.984375 22.515625 14.984375 16.5 
Q 14.984375 11.71875 18.140625 8.90625 
Q 21.296875 6.109375 26.703125 6.109375 
Q 34.1875 6.109375 38.703125 11.40625 
Q 43.21875 16.703125 43.21875 25.484375 
L 43.21875 27.484375 
z
M 52.203125 31.203125 
L 52.203125 0 
L 43.21875 0 
L 43.21875 8.296875 
Q 40.140625 3.328125 35.546875 0.953125 
Q 30.953125 -1.421875 24.3125 -1.421875 
Q 15.921875 -1.421875 10.953125 3.296875 
Q 6 8.015625 6 15.921875 
Q 6 25.140625 12.171875 29.828125 
Q 18.359375 34.515625 30.609375 34.515625 
L 43.21875 34.515625 
L 43.21875 35.40625 
Q 43.21875 41.609375 39.140625 45 
Q 35.0625 48.390625 27.6875 48.390625 
Q 23 48.390625 18.546875 47.265625 
Q 14.109375 46.140625 10.015625 43.890625 
L 10.015625 52.203125 
Q 14.9375 54.109375 19.578125 55.046875 
Q 24.21875 56 28.609375 56 
Q 40.484375 56 46.34375 49.84375 
Q 52.203125 43.703125 52.203125 31.203125 
" id="BitstreamVeraSans-Roman-61"/>
      <path d="M 56.203125 29.59375 
L 56.203125 25.203125 
L 14.890625 25.203125 
Q 15.484375 15.921875 20.484375 11.0625 
Q 25.484375 6.203125 34.421875 6.203125 
Q 39.59375 6.203125 44.453125 7.46875 
Q 49.3125 8.734375 54.109375 11.28125 
L 54.109375 2.78125 
Q 49.265625 0.734375 44.1875 -0.34375 
Q 39.109375 -1.421875 33.890625 -1.421875 
Q 20.796875 -1.421875 13.15625 6.1875 
Q 5.515625 13.8125 5.515625 26.8125 
Q 5.515625 40.234375 12.765625 48.109375 
Q 20.015625 56 32.328125 56 
Q 43.359375 56 49.78125 48.890625 
Q 56.203125 41.796875 56.203125 29.59375 
M 47.21875 32.234375 
Q 47.125 39.59375 43.09375 43.984375 
Q 39.0625 48.390625 32.421875 48.390625 
Q 24.90625 48.390625 20.390625 44.140625 
Q 15.875 39.890625 15.1875 32.171875 
z
" id="BitstreamVeraSans-Roman-65"/>
      <path d="M 4.890625 31.390625 
L 31.203125 31.390625 
L 31.203125 23.390625 
L 4.890625 23.390625 
z
" id="BitstreamVeraSans-Roman-2d"/>
      <path d="M 44.28125 53.078125 
L 44.28125 44.578125 
Q 40.484375 46.53125 36.375 47.5 
Q 32.28125 48.484375 27.875 48.484375 
Q 21.1875 48.484375 17.84375 46.4375 
Q 14.5 44.390625 14.5 40.28125 
Q 14.5 37.15625 16.890625 35.375 
Q 19.28125 33.59375 26.515625 31.984375 
L 29.59375 31.296875 
Q 39.15625 29.25 43.1875 25.515625 
Q 47.21875 21.78125 47.21875 15.09375 
Q 47.21875 7.46875 41.1875 3.015625 
Q 35.15625 -1.421875 24.609375 -1.421875 
Q 20.21875 -1.421875 15.453125 -0.5625 
Q 10.6875 0.296875 5.421875 2 
L 5.421875 11.28125 
Q 10.40625 8.6875 15.234375 7.390625 
Q 20.0625 6.109375 24.8125 6.109375 
Q 31.15625 6.109375 34.5625 8.28125 
Q 37.984375 10.453125 37.984375 14.40625 
Q 37.984375 18.0625 35.515625 20.015625 
Q 33.0625 21.96875 24.703125 23.78125 
L 21.578125 24.515625 
Q 13.234375 26.265625 9.515625 29.90625 
Q 5.8125 33.546875 5.8125 39.890625 
Q 5.8125 47.609375 11.28125 51.796875 
Q 16.75 56 26.8125 56 
Q 31.78125 56 36.171875 55.265625 
Q 40.578125 54.546875 44.28125 53.078125 
" id="BitstreamVeraSans-Roman-73"/>
      <path d="M 8.5 21.578125 
L 8.5 54.6875 
L 17.484375 54.6875 
L 17.484375 21.921875 
Q 17.484375 14.15625 20.5 10.265625 
Q 23.53125 6.390625 29.59375 6.390625 
Q 36.859375 6.390625 41.078125 11.03125 
Q 45.3125 15.671875 45.3125 23.6875 
L 45.3125 54.6875 
L 54.296875 54.6875 
L 54.296875 0 
L 45.3125 0 
L 45.3125 8.40625 
Q 42.046875 3.421875 37.71875 1 
Q 33.40625 -1.421875 27.6875 -1.421875 
Q 18.265625 -1.421875 13.375 4.4375 
Q 8.5 10.296875 8.5 21.578125 
" id="BitstreamVeraSans-Roman-75"/>
      <path d="M 18.3125 70.21875 
L 18.3125 54.6875 
L 36.8125 54.6875 
L 36.8125 47.703125 
L 18.3125 47.703125 
L 18.3125 18.015625 
Q 18.3125 11.328125 20.140625 9.421875 
Q 21.96875 7.515625 27.59375 7.515625 
L 36.8125 7.515625 
L 36.8125 0 
L 27.59375 0 
Q 17.1875 0 13.234375 3.875 
Q 9.28125 7.765625 9.28125 18.015625 
L 9.28125 47.703125 
L 2.6875 47.703125 
L 2.6875 54.6875 
L 9.28125 54.6875 
L 9.28125 70.21875 
z
" id="BitstreamVeraSans-Roman-74"/>
     </defs>
     <g transform="translate(246.6 899.2153125)scale(0.18 -0.18)">
      <use xlink:href="#BitstreamVeraSans-Roman-43"/>
      <use x="69.82421875" xlink:href="#BitstreamVeraSans-Roman-53"/>
      <use x="133.30078125" xlink:href="#BitstreamVeraSans-Roman-44"/>
      <use x="210.302734375" xlink:href="#BitstreamVeraSans-Roman-20"/>
      <use x="242.08984375" xlink:href="#BitstreamVeraSans-Roman-77"/>
      <use x="323.876953125" xlink:href="#BitstreamVeraSans-Roman-69"/>
      <use x="351.66015625" xlink:href="#BitstreamVeraSans-Roman-74"/>
      <use x="390.869140625" xlink:href="#BitstreamVeraSans-Roman-68"/>
      <use x="454.248046875" xlink:href="#BitstreamVeraSans-Roman-20"/>
      <use x="486.03515625" xlink:href="#BitstreamVeraSans-Roman-75"/>
      <use x="549.4140625" xlink:href="#BitstreamVeraSans-Roman-6e"/>
      <use x="612.79296875" xlink:href="#BitstreamVeraSans-Roman-6b"/>
      <use x="670.703125" xlink:href="#BitstreamVeraSans-Roman-6e"/>
      <use x="734.08203125" xlink:href="#BitstreamVeraSans-Roman-6f"/>
      <use x="795.263671875" xlink:href="#BitstreamVeraSans-Roman-77"/>
      <use x="877.05078125" xlink:href="#BitstreamVeraSans-Roman-6e"/>
      <use x="940.4296875" xlink:href="#BitstreamVeraSans-Roman-20"/>
      <use x="972.216796875" xlink:href="#BitstreamVeraSans-Roman-73"/>
      <use x="1024.31640625" xlink:href="#BitstreamVeraSans-Roman-74"/>
      <use x="1063.525390625" xlink:href="#BitstreamVeraSans-Roman-61"/>
      <use x="1124.8046875" xlink:href="#BitstreamVeraSans-Roman-72"/>
      <use x="1165.91796875" xlink:href="#BitstreamVeraSans-Roman-74"/>
      <use x="1205.126953125" xlink:href="#BitstreamVeraSans-Roman-2d"/>
      <use x="1241.2109375" xlink:href="#BitstreamVeraSans-Roman-65"/>
      <use x="1302.734375" xlink:href="#BitstreamVeraSans-Roman-6e"/>
      <use x="1366.11328125" xlink:href="#BitstreamVeraSans-Roman-64"/>
     </g>
    </g>
    <g id="PathCollection_5">
     <path d="M 201.6 925.094238 
C 202.709424 925.094238 203.773559 924.653459 204.55804 923.868977 
C 205.342521 923.084496 205.7833 922.020362 205.7833 920.910938 
C 205.7833 919.801513 205.342521 918.737379 204.55804 917.952898 
C 203.773559 917.168416 202.709424 916.727637 201.6 916.727637 
C 200.490576 916.727637 199.426441 917.168416 198.64196 917.952898 
C 197.857479 918.737379 197.4167 919.801513 197.4167 920.910938 
C 197.4167 922.020362 197.857479 923.084496 198.64196 923.868977 
C 199.426441 924.653459 200.490576 925.094238 201.6 925.094238 
z
" style="fill:#eb6231;stroke:#000000;"/>
     <path d="M 214.2 923.519238 
C 215.309424 923.519238 216.373559 923.078459 217.15804 922.293977 
C 217.942521 921.509496 218.3833 920.445362 218.3833 919.335938 
C 218.3833 918.226513 217.942521 917.162379 217.15804 916.377898 
C 216.373559 915.593416 215.309424 915.152637 214.2 915.152637 
C 213.090576 915.152637 212.026441 915.593416 211.24196 916.377898 
C 210.457479 917.162379 210.0167 918.226513 210.0167 919.335938 
C 210.0167 920.445362 210.457479 921.509496 211.24196 922.293977 
C 212.026441 923.078459 213.090576 923.519238 214.2 923.519238 
z
" style="fill:#eb6231;stroke:#000000;"/>
     <path d="M 226.8 925.881738 
C 227.909424 925.881738 228.973559 925.440959 229.75804 924.656477 
C 230.542521 923.871996 230.9833 922.807862 230.9833 921.698438 
C 230.9833 920.589013 230.542521 919.524879 229.75804 918.740398 
C 228.973559 917.955916 227.909424 917.515137 226.8 917.515137 
C 225.690576 917.515137 224.626441 917.955916 223.84196 918.740398 
C 223.057479 919.524879 222.6167 920.589013 222.6167 921.698438 
C 222.6167 922.807862 223.057479 923.871996 223.84196 924.656477 
C 224.626441 925.440959 225.690576 925.881738 226.8 925.881738 
z
" style="fill:#eb6231;stroke:#000000;"/>
    </g>
    <g id="text_16">
     <!-- CDS with sequence lenght not multiple of 3 -->
     <defs>
      <path d="M 37.109375 75.984375 
L 37.109375 68.5 
L 28.515625 68.5 
Q 23.6875 68.5 21.796875 66.546875 
Q 19.921875 64.59375 19.921875 59.515625 
L 19.921875 54.6875 
L 34.71875 54.6875 
L 34.71875 47.703125 
L 19.921875 47.703125 
L 19.921875 0 
L 10.890625 0 
L 10.890625 47.703125 
L 2.296875 47.703125 
L 2.296875 54.6875 
L 10.890625 54.6875 
L 10.890625 58.5 
Q 10.890625 67.625 15.140625 71.796875 
Q 19.390625 75.984375 28.609375 75.984375 
z
" id="BitstreamVeraSans-Roman-66"/>
      <path d="M 45.40625 27.984375 
Q 45.40625 37.75 41.375 43.109375 
Q 37.359375 48.484375 30.078125 48.484375 
Q 22.859375 48.484375 18.828125 43.109375 
Q 14.796875 37.75 14.796875 27.984375 
Q 14.796875 18.265625 18.828125 12.890625 
Q 22.859375 7.515625 30.078125 7.515625 
Q 37.359375 7.515625 41.375 12.890625 
Q 45.40625 18.265625 45.40625 27.984375 
M 54.390625 6.78125 
Q 54.390625 -7.171875 48.1875 -13.984375 
Q 42 -20.796875 29.203125 -20.796875 
Q 24.46875 -20.796875 20.265625 -20.09375 
Q 16.0625 -19.390625 12.109375 -17.921875 
L 12.109375 -9.1875 
Q 16.0625 -11.328125 19.921875 -12.34375 
Q 23.78125 -13.375 27.78125 -13.375 
Q 36.625 -13.375 41.015625 -8.765625 
Q 45.40625 -4.15625 45.40625 5.171875 
L 45.40625 9.625 
Q 42.625 4.78125 38.28125 2.390625 
Q 33.9375 0 27.875 0 
Q 17.828125 0 11.671875 7.65625 
Q 5.515625 15.328125 5.515625 27.984375 
Q 5.515625 40.671875 11.671875 48.328125 
Q 17.828125 56 27.875 56 
Q 33.9375 56 38.28125 53.609375 
Q 42.625 51.21875 45.40625 46.390625 
L 45.40625 54.6875 
L 54.390625 54.6875 
z
" id="BitstreamVeraSans-Roman-67"/>
      <path d="M 48.78125 52.59375 
L 48.78125 44.1875 
Q 44.96875 46.296875 41.140625 47.34375 
Q 37.3125 48.390625 33.40625 48.390625 
Q 24.65625 48.390625 19.8125 42.84375 
Q 14.984375 37.3125 14.984375 27.296875 
Q 14.984375 17.28125 19.8125 11.734375 
Q 24.65625 6.203125 33.40625 6.203125 
Q 37.3125 6.203125 41.140625 7.25 
Q 44.96875 8.296875 48.78125 10.40625 
L 48.78125 2.09375 
Q 45.015625 0.34375 40.984375 -0.53125 
Q 36.96875 -1.421875 32.421875 -1.421875 
Q 20.0625 -1.421875 12.78125 6.34375 
Q 5.515625 14.109375 5.515625 27.296875 
Q 5.515625 40.671875 12.859375 48.328125 
Q 20.21875 56 33.015625 56 
Q 37.15625 56 41.109375 55.140625 
Q 45.0625 54.296875 48.78125 52.59375 
" id="BitstreamVeraSans-Roman-63"/>
      <path d="M 52 44.1875 
Q 55.375 50.25 60.0625 53.125 
Q 64.75 56 71.09375 56 
Q 79.640625 56 84.28125 50.015625 
Q 88.921875 44.046875 88.921875 33.015625 
L 88.921875 0 
L 79.890625 0 
L 79.890625 32.71875 
Q 79.890625 40.578125 77.09375 44.375 
Q 74.3125 48.1875 68.609375 48.1875 
Q 61.625 48.1875 57.5625 43.546875 
Q 53.515625 38.921875 53.515625 30.90625 
L 53.515625 0 
L 44.484375 0 
L 44.484375 32.71875 
Q 44.484375 40.625 41.703125 44.40625 
Q 38.921875 48.1875 33.109375 48.1875 
Q 26.21875 48.1875 22.15625 43.53125 
Q 18.109375 38.875 18.109375 30.90625 
L 18.109375 0 
L 9.078125 0 
L 9.078125 54.6875 
L 18.109375 54.6875 
L 18.109375 46.1875 
Q 21.1875 51.21875 25.484375 53.609375 
Q 29.78125 56 35.6875 56 
Q 41.65625 56 45.828125 52.96875 
Q 50 49.953125 52 44.1875 
" id="BitstreamVeraSans-Roman-6d"/>
      <path d="M 14.796875 27.296875 
Q 14.796875 17.390625 18.875 11.75 
Q 22.953125 6.109375 30.078125 6.109375 
Q 37.203125 6.109375 41.296875 11.75 
Q 45.40625 17.390625 45.40625 27.296875 
Q 45.40625 37.203125 41.296875 42.84375 
Q 37.203125 48.484375 30.078125 48.484375 
Q 22.953125 48.484375 18.875 42.84375 
Q 14.796875 37.203125 14.796875 27.296875 
M 45.40625 8.203125 
Q 42.578125 3.328125 38.25 0.953125 
Q 33.9375 -1.421875 27.875 -1.421875 
Q 17.96875 -1.421875 11.734375 6.484375 
Q 5.515625 14.40625 5.515625 27.296875 
Q 5.515625 40.1875 11.734375 48.09375 
Q 17.96875 56 27.875 56 
Q 33.9375 56 38.25 53.625 
Q 42.578125 51.265625 45.40625 46.390625 
L 45.40625 54.6875 
L 54.390625 54.6875 
L 54.390625 -20.796875 
L 45.40625 -20.796875 
z
" id="BitstreamVeraSans-Roman-71"/>
      <path d="M 18.109375 8.203125 
L 18.109375 -20.796875 
L 9.078125 -20.796875 
L 9.078125 54.6875 
L 18.109375 54.6875 
L 18.109375 46.390625 
Q 20.953125 51.265625 25.265625 53.625 
Q 29.59375 56 35.59375 56 
Q 45.5625 56 51.78125 48.09375 
Q 58.015625 40.1875 58.015625 27.296875 
Q 58.015625 14.40625 51.78125 6.484375 
Q 45.5625 -1.421875 35.59375 -1.421875 
Q 29.59375 -1.421875 25.265625 0.953125 
Q 20.953125 3.328125 18.109375 8.203125 
M 48.6875 27.296875 
Q 48.6875 37.203125 44.609375 42.84375 
Q 40.53125 48.484375 33.40625 48.484375 
Q 26.265625 48.484375 22.1875 42.84375 
Q 18.109375 37.203125 18.109375 27.296875 
Q 18.109375 17.390625 22.1875 11.75 
Q 26.265625 6.109375 33.40625 6.109375 
Q 40.53125 6.109375 44.609375 11.75 
Q 48.6875 17.390625 48.6875 27.296875 
" id="BitstreamVeraSans-Roman-70"/>
      <path d="M 9.421875 75.984375 
L 18.40625 75.984375 
L 18.40625 0 
L 9.421875 0 
z
" id="BitstreamVeraSans-Roman-6c"/>
     </defs>
     <g transform="translate(246.6 925.6359375)scale(0.18 -0.18)">
      <use xlink:href="#BitstreamVeraSans-Roman-43"/>
      <use x="69.82421875" xlink:href="#BitstreamVeraSans-Roman-44"/>
      <use x="146.826171875" xlink:href="#BitstreamVeraSans-Roman-53"/>
      <use x="210.302734375" xlink:href="#BitstreamVeraSans-Roman-20"/>
      <use x="242.08984375" xlink:href="#BitstreamVeraSans-Roman-77"/>
      <use x="323.876953125" xlink:href="#BitstreamVeraSans-Roman-69"/>
      <use x="351.66015625" xlink:href="#BitstreamVeraSans-Roman-74"/>
      <use x="390.869140625" xlink:href="#BitstreamVeraSans-Roman-68"/>
      <use x="454.248046875" xlink:href="#BitstreamVeraSans-Roman-20"/>
      <use x="486.03515625" xlink:href="#BitstreamVeraSans-Roman-73"/>
      <use x="538.134765625" xlink:href="#BitstreamVeraSans-Roman-65"/>
      <use x="599.658203125" xlink:href="#BitstreamVeraSans-Roman-71"/>
      <use x="663.134765625" xlink:href="#BitstreamVeraSans-Roman-75"/>
      <use x="726.513671875" xlink:href="#BitstreamVeraSans-Roman-65"/>
      <use x="788.037109375" xlink:href="#BitstreamVeraSans-Roman-6e"/>
      <use x="851.416015625" xlink:href="#BitstreamVeraSans-Roman-63"/>
      <use x="906.396484375" xlink:href="#BitstreamVeraSans-Roman-65"/>
      <use x="967.919921875" xlink:href="#BitstreamVeraSans-Roman-20"/>
      <use x="999.70703125" xlink:href="#BitstreamVeraSans-Roman-6c"/>
      <use x="1027.490234375" xlink:href="#BitstreamVeraSans-Roman-65"/>
      <use x="1089.013671875" xlink:href="#BitstreamVeraSans-Roman-6e"/>
      <use x="1152.392578125" xlink:href="#BitstreamVeraSans-Roman-67"/>
      <use x="1215.869140625" xlink:href="#BitstreamVeraSans-Roman-68"/>
      <use x="1279.248046875" xlink:href="#BitstreamVeraSans-Roman-74"/>
      <use x="1318.45703125" xlink:href="#BitstreamVeraSans-Roman-20"/>
      <use x="1350.244140625" xlink:href="#BitstreamVeraSans-Roman-6e"/>
      <use x="1413.623046875" xlink:href="#BitstreamVeraSans-Roman-6f"/>
      <use x="1474.8046875" xlink:href="#BitstreamVeraSans-Roman-74"/>
      <use x="1514.013671875" xlink:href="#BitstreamVeraSans-Roman-20"/>
      <use x="1545.80078125" xlink:href="#BitstreamVeraSans-Roman-6d"/>
      <use x="1643.212890625" xlink:href="#BitstreamVeraSans-Roman-75"/>
      <use x="1706.591796875" xlink:href="#BitstreamVeraSans-Roman-6c"/>
      <use x="1734.375" xlink:href="#BitstreamVeraSans-Roman-74"/>
      <use x="1773.583984375" xlink:href="#BitstreamVeraSans-Roman-69"/>
      <use x="1801.3671875" xlink:href="#BitstreamVeraSans-Roman-70"/>
      <use x="1864.84375" xlink:href="#BitstreamVeraSans-Roman-6c"/>
      <use x="1892.626953125" xlink:href="#BitstreamVeraSans-Roman-65"/>
      <use x="1954.150390625" xlink:href="#BitstreamVeraSans-Roman-20"/>
      <use x="1985.9375" xlink:href="#BitstreamVeraSans-Roman-6f"/>
      <use x="2047.119140625" xlink:href="#BitstreamVeraSans-Roman-66"/>
      <use x="2082.32421875" xlink:href="#BitstreamVeraSans-Roman-20"/>
      <use x="2114.111328125" xlink:href="#BitstreamVeraSans-Roman-33"/>
     </g>
    </g>
    <g id="PathCollection_6">
     <path d="M 201.6 951.514863 
C 202.709424 951.514863 203.773559 951.074084 204.55804 950.289602 
C 205.342521 949.505121 205.7833 948.440987 205.7833 947.331563 
C 205.7833 946.222138 205.342521 945.158004 204.55804 944.373523 
C 203.773559 943.589041 202.709424 943.148262 201.6 943.148262 
C 200.490576 943.148262 199.426441 943.589041 198.64196 944.373523 
C 197.857479 945.158004 197.4167 946.222138 197.4167 947.331563 
C 197.4167 948.440987 197.857479 949.505121 198.64196 950.289602 
C 199.426441 951.074084 200.490576 951.514863 201.6 951.514863 
z
" style="fill:#5d80b4;stroke:#000000;"/>
     <path d="M 214.2 949.939863 
C 215.309424 949.939863 216.373559 949.499084 217.15804 948.714602 
C 217.942521 947.930121 218.3833 946.865987 218.3833 945.756562 
C 218.3833 944.647138 217.942521 943.583004 217.15804 942.798523 
C 216.373559 942.014041 215.309424 941.573262 214.2 941.573262 
C 213.090576 941.573262 212.026441 942.014041 211.24196 942.798523 
C 210.457479 943.583004 210.0167 944.647138 210.0167 945.756562 
C 210.0167 946.865987 210.457479 947.930121 211.24196 948.714602 
C 212.026441 949.499084 213.090576 949.939863 214.2 949.939863 
z
" style="fill:#5d80b4;stroke:#000000;"/>
     <path d="M 226.8 952.302363 
C 227.909424 952.302363 228.973559 951.861584 229.75804 951.077102 
C 230.542521 950.292621 230.9833 949.228487 230.9833 948.119063 
C 230.9833 947.009638 230.542521 945.945504 229.75804 945.161023 
C 228.973559 944.376541 227.909424 943.935762 226.8 943.935762 
C 225.690576 943.935762 224.626441 944.376541 223.84196 945.161023 
C 223.057479 945.945504 222.6167 947.009638 222.6167 948.119063 
C 222.6167 949.228487 223.057479 950.292621 223.84196 951.077102 
C 224.626441 951.861584 225.690576 952.302363 226.8 952.302363 
z
" style="fill:#5d80b4;stroke:#000000;"/>
    </g>
    <g id="text_17">
     <!-- Total number of CDS -->
     <defs>
      <path d="M 48.6875 27.296875 
Q 48.6875 37.203125 44.609375 42.84375 
Q 40.53125 48.484375 33.40625 48.484375 
Q 26.265625 48.484375 22.1875 42.84375 
Q 18.109375 37.203125 18.109375 27.296875 
Q 18.109375 17.390625 22.1875 11.75 
Q 26.265625 6.109375 33.40625 6.109375 
Q 40.53125 6.109375 44.609375 11.75 
Q 48.6875 17.390625 48.6875 27.296875 
M 18.109375 46.390625 
Q 20.953125 51.265625 25.265625 53.625 
Q 29.59375 56 35.59375 56 
Q 45.5625 56 51.78125 48.09375 
Q 58.015625 40.1875 58.015625 27.296875 
Q 58.015625 14.40625 51.78125 6.484375 
Q 45.5625 -1.421875 35.59375 -1.421875 
Q 29.59375 -1.421875 25.265625 0.953125 
Q 20.953125 3.328125 18.109375 8.203125 
L 18.109375 0 
L 9.078125 0 
L 9.078125 75.984375 
L 18.109375 75.984375 
z
" id="BitstreamVeraSans-Roman-62"/>
      <path d="M -0.296875 72.90625 
L 61.375 72.90625 
L 61.375 64.59375 
L 35.5 64.59375 
L 35.5 0 
L 25.59375 0 
L 25.59375 64.59375 
L -0.296875 64.59375 
z
" id="BitstreamVeraSans-Roman-54"/>
     </defs>
     <g transform="translate(246.6 952.0565625)scale(0.18 -0.18)">
      <use xlink:href="#BitstreamVeraSans-Roman-54"/>
      <use x="60.818359375" xlink:href="#BitstreamVeraSans-Roman-6f"/>
      <use x="122.0" xlink:href="#BitstreamVeraSans-Roman-74"/>
      <use x="161.208984375" xlink:href="#BitstreamVeraSans-Roman-61"/>
      <use x="222.48828125" xlink:href="#BitstreamVeraSans-Roman-6c"/>
      <use x="250.271484375" xlink:href="#BitstreamVeraSans-Roman-20"/>
      <use x="282.05859375" xlink:href="#BitstreamVeraSans-Roman-6e"/>
      <use x="345.4375" xlink:href="#BitstreamVeraSans-Roman-75"/>
      <use x="408.81640625" xlink:href="#BitstreamVeraSans-Roman-6d"/>
      <use x="506.228515625" xlink:href="#BitstreamVeraSans-Roman-62"/>
      <use x="569.705078125" xlink:href="#BitstreamVeraSans-Roman-65"/>
      <use x="631.228515625" xlink:href="#BitstreamVeraSans-Roman-72"/>
      <use x="672.341796875" xlink:href="#BitstreamVeraSans-Roman-20"/>
      <use x="704.12890625" xlink:href="#BitstreamVeraSans-Roman-6f"/>
      <use x="765.310546875" xlink:href="#BitstreamVeraSans-Roman-66"/>
      <use x="800.515625" xlink:href="#BitstreamVeraSans-Roman-20"/>
      <use x="832.302734375" xlink:href="#BitstreamVeraSans-Roman-43"/>
      <use x="902.126953125" xlink:href="#BitstreamVeraSans-Roman-44"/>
      <use x="979.12890625" xlink:href="#BitstreamVeraSans-Roman-53"/>
     </g>
    </g>
   </g>
  </g>
 </g>
 <defs>
  <clipPath id="p899bfbfb86">
   <rect height="864.0" width="1116.0" x="180.0" y="108.0"/>
  </clipPath>
 </defs>
</svg>
