<?xml version="1.0" encoding="UTF-8" standalone="no"?>
<!-- Created with Inkscape (http://www.inkscape.org/) -->
<svg xmlns:dc="http://purl.org/dc/elements/1.1/" xmlns:cc="http://creativecommons.org/ns#" xmlns:rdf="http://www.w3.org/1999/02/22-rdf-syntax-ns#" xmlns:svg="http://www.w3.org/2000/svg" xmlns="http://www.w3.org/2000/svg" xmlns:sodipodi="http://sodipodi.sourceforge.net/DTD/sodipodi-0.dtd" xmlns:inkscape="http://www.inkscape.org/namespaces/inkscape" id="svg6628" version="1.1" inkscape:version="0.91 r13725" xml:space="preserve" width="903.75" height="580" viewBox="0 0 903.75 580" sodipodi:docname="yule_tree.svg"><metadata id="metadata6634"><rdf:RDF><cc:Work rdf:about=""><dc:format>image/svg+xml</dc:format><dc:type rdf:resource="http://purl.org/dc/dcmitype/StillImage"/><dc:title/></cc:Work></rdf:RDF></metadata><defs id="defs6632"><clipPath clipPathUnits="userSpaceOnUse" id="clipPath6646"><path d="M 0,0 723,0 723,464 0,464 0,0 Z" id="path6648" inkscape:connector-curvature="0"/></clipPath><clipPath clipPathUnits="userSpaceOnUse" id="clipPath6654"><path d="M 0,464 0,0 723,0 723,464 0,464 Z" id="path6656" inkscape:connector-curvature="0"/></clipPath></defs><sodipodi:namedview pagecolor="#ffffff" bordercolor="#666666" borderopacity="1" objecttolerance="10" gridtolerance="10" guidetolerance="10" inkscape:pageopacity="0" inkscape:pageshadow="2" inkscape:window-width="1918" inkscape:window-height="1042" id="namedview6630" showgrid="false" inkscape:zoom="1.0797315" inkscape:cx="579.33467" inkscape:cy="227.29007" inkscape:window-x="1920" inkscape:window-y="138" inkscape:window-maximized="0" inkscape:current-layer="g6636"/><g id="g6636" inkscape:groupmode="layer" inkscape:label="yule_tree" transform="matrix(1.25,0,0,-1.25,0,580)"><g id="g6638"/><g id="g6640"><g id="g6642"><g id="g6644" clip-path="url(#clipPath6646)"><g id="g6650"><g id="g6652" clip-path="url(#clipPath6654)"><g id="g6658"><path d="M 0,464 723,464 723,0 0,0 0,464 Z" style="fill:#ffffff;fill-opacity:1;fill-rule:nonzero;stroke:none" id="path6660" inkscape:connector-curvature="0"/><path d="m 670.19,119 0,-5.84 0,-5.85 46.81,0 0,7.79 -26.46,0 0,3.9 -20.35,0 z" style="fill:#000000;fill-opacity:0;fill-rule:nonzero;stroke:none" id="path6662" inkscape:connector-curvature="0"/><path d="m 520.21,33.28 0,-11.69 0,-11.69 170.86,0 0,3.89 25.93,0 0,7.8 -65.37,0 0,3.89 -27.36,0 0,7.8 -104.06,0 z" style="fill:#000000;fill-opacity:0;fill-rule:nonzero;stroke:none" id="path6664" inkscape:connector-curvature="0"/><path d="m 557.58,285.58 0,-13.15 0,-13.15 143.18,0 0,3.89 16.24,0 0,7.8 -59.78,0 0,5.84 -19.18,0 0,8.77 -80.46,0 z" style="fill:#000000;fill-opacity:0;fill-rule:nonzero;stroke:none" id="path6666" inkscape:connector-curvature="0"/><path d="m 700.76,263.17 0,-3.89 0,-3.9 16.24,0 0,7.79 -16.24,0 z" style="fill:#000000;fill-opacity:0;fill-rule:nonzero;stroke:none" id="path6668" inkscape:connector-curvature="0"/><path d="m 692.31,44.97 0,-3.9 0,-3.9 24.69,0 0,7.8 -24.69,0 z" style="fill:#000000;fill-opacity:0;fill-rule:nonzero;stroke:none" id="path6670" inkscape:connector-curvature="0"/><path d="m 609.46,68.34 0,-5.84 0,-5.84 59.59,0 0,3.89 47.95,0 0,7.79 -107.54,0 z" style="fill:#000000;fill-opacity:0;fill-rule:nonzero;stroke:none" id="path6672" inkscape:connector-curvature="0"/><path d="m 669.05,60.55 0,-3.89 0,-3.9 47.95,0 0,7.79 -47.95,0 z" style="fill:#000000;fill-opacity:0;fill-rule:nonzero;stroke:none" id="path6674" inkscape:connector-curvature="0"/><path d="m 211.66,401.06 0,-82.58 0,-82.58 495.68,0 0,3.89 9.66,0 0,7.8 -209.29,0 0,26.3 -127.33,0 0,37.5 -50.38,0 0,36.62 -3.54,0 0,53.05 -114.8,0 z" style="fill:#000000;fill-opacity:0;fill-rule:nonzero;stroke:none" id="path6676" inkscape:connector-curvature="0"/><path d="m 711.28,333.31 0,-3.9 0,-3.89 5.72,0 0,7.79 -5.72,0 z" style="fill:#000000;fill-opacity:0;fill-rule:nonzero;stroke:none" id="path6678" inkscape:connector-curvature="0"/><path d="m 295.99,184.02 0,-33.36 0,-33.36 27.61,0 0,17.77 217.37,0 0,13.15 125.73,0 0,5.85 50.3,0 0,7.79 -227.44,0 0,3.9 -0.8,0 0,18.26 -192.77,0 z" style="fill:#000000;fill-opacity:0;fill-rule:nonzero;stroke:none" id="path6680" inkscape:connector-curvature="0"/><path d="m 621.94,224.21 0,-6.82 0,-6.82 31.74,0 0,5.84 63.32,0 0,7.8 -95.06,0 z" style="fill:#000000;fill-opacity:0;fill-rule:nonzero;stroke:none" id="path6682" inkscape:connector-curvature="0"/><path d="m 638.04,294.34 0,-8.76 0,-8.77 19.18,0 0,5.85 38.76,0 0,3.89 21.02,0 0,7.79 -78.96,0 z" style="fill:#000000;fill-opacity:0;fill-rule:nonzero;stroke:none" id="path6684" inkscape:connector-curvature="0"/><path d="m 606.16,329.41 0,-5.84 0,-5.85 110.84,0 0,7.8 -5.72,0 0,3.89 -105.12,0 z" style="fill:#000000;fill-opacity:0;fill-rule:nonzero;stroke:none" id="path6686" inkscape:connector-curvature="0"/><path d="m 569.71,341.1 0,-13.15 0,-13.15 1.73,0 0,8.77 34.72,0 0,5.84 105.12,0 0,3.9 5.72,0 0,7.79 -147.29,0 z" style="fill:#000000;fill-opacity:0;fill-rule:nonzero;stroke:none" id="path6688" inkscape:connector-curvature="0"/><path d="m 323.6,135.07 0,-17.77 0,-17.78 393.4,0 0,7.79 -46.81,0 0,5.85 -31.1,0 0,8.76 -98.12,0 0,13.15 -217.37,0 z" style="fill:#000000;fill-opacity:0;fill-rule:nonzero;stroke:none" id="path6690" inkscape:connector-curvature="0"/><path d="m 349.78,412.58 0,-27.94 0,-27.95 367.22,0 0,7.79 -108.34,0 0,3.9 -84.68,0 0,5.84 -30.77,0 0,12.42 -1.93,0 0,25.94 -141.5,0 z" style="fill:#000000;fill-opacity:0;fill-rule:nonzero;stroke:none" id="path6692" inkscape:connector-curvature="0"/><path d="m 507.71,300.19 0,-26.3 0,-26.3 209.29,0 0,7.79 -16.24,0 0,3.9 -143.18,0 0,13.15 -28,0 0,27.76 -21.87,0 z" style="fill:#000000;fill-opacity:0;fill-rule:nonzero;stroke:none" id="path6694" inkscape:connector-curvature="0"/><path d="m 518.78,410.27 0,-11.21 0,-11.2 198.22,0 0,7.8 -135.65,0 0,3.89 -42.03,0 0,10.72 -20.54,0 z" style="fill:#000000;fill-opacity:0;fill-rule:nonzero;stroke:none" id="path6696" inkscape:connector-curvature="0"/><path d="m 712.69,458 0,-3.9 0,-3.89 4.31,0 0,7.79 -4.31,0 z" style="fill:#000000;fill-opacity:0;fill-rule:nonzero;stroke:none" id="path6698" inkscape:connector-curvature="0"/><path d="m 657.22,282.66 0,-5.85 0,-5.84 59.78,0 0,7.79 -21.02,0 0,3.9 -38.76,0 z" style="fill:#000000;fill-opacity:0;fill-rule:nonzero;stroke:none" id="path6700" inkscape:connector-curvature="0"/><path d="m 138.42,234.57 0,-71.42 0,-71.43 578.58,0 0,7.8 -393.4,0 0,17.78 -27.61,0 0,33.36 -96.28,0 0,83.91 -61.29,0 z" style="fill:#000000;fill-opacity:0;fill-rule:nonzero;stroke:none" id="path6702" inkscape:connector-curvature="0"/><path d="m 689.09,185.24 0,-3.9 0,-3.89 27.91,0 0,7.79 -27.91,0 z" style="fill:#000000;fill-opacity:0;fill-rule:nonzero;stroke:none" id="path6704" inkscape:connector-curvature="0"/><path d="m 676.99,146.28 0,-3.9 0,-3.9 40.01,0 0,7.8 -40.01,0 z" style="fill:#000000;fill-opacity:0;fill-rule:nonzero;stroke:none" id="path6706" inkscape:connector-curvature="0"/><path d="m 199.71,318.48 0,-83.91 0,-83.91 96.28,0 0,33.36 192.77,0 0,18.27 12.84,0 0,15.1 120.34,0 0,6.82 95.06,0 0,7.79 -9.66,0 0,3.9 -495.68,0 0,82.58 -11.95,0 z" style="fill:#000000;fill-opacity:0;fill-rule:nonzero;stroke:none" id="path6708" inkscape:connector-curvature="0"/><path d="m 523.98,380.07 0,-5.85 0,-5.84 84.68,0 0,3.9 108.34,0 0,7.79 -193.02,0 z" style="fill:#000000;fill-opacity:0;fill-rule:nonzero;stroke:none" id="path6710" inkscape:connector-curvature="0"/><path d="m 581.35,403.45 0,-3.9 0,-3.89 135.65,0 0,7.79 -135.65,0 z" style="fill:#000000;fill-opacity:0;fill-rule:nonzero;stroke:none" id="path6712" inkscape:connector-curvature="0"/><path d="m 514.22,62.5 0,-20.46 0,-20.45 5.99,0 0,11.69 104.06,0 0,7.79 68.04,0 0,3.9 24.69,0 0,7.79 -47.95,0 0,3.9 -59.59,0 0,5.84 -95.24,0 z" style="fill:#000000;fill-opacity:0;fill-rule:nonzero;stroke:none" id="path6714" inkscape:connector-curvature="0"/><path d="m 540.97,148.22 0,-13.15 0,-13.15 98.12,0 0,8.77 77.91,0 0,7.79 -40.01,0 0,3.9 -10.29,0 0,5.84 -125.73,0 z" style="fill:#000000;fill-opacity:0;fill-rule:nonzero;stroke:none" id="path6716" inkscape:connector-curvature="0"/><path d="m 489.56,169.66 0,-3.9 0,-3.9 227.44,0 0,7.8 -227.44,0 z" style="fill:#000000;fill-opacity:0;fill-rule:nonzero;stroke:none" id="path6718" inkscape:connector-curvature="0"/><path d="m 380.38,348.9 0,-37.51 0,-37.5 127.33,0 0,26.3 21.87,0 0,27.76 40.13,0 0,13.15 147.29,0 0,7.8 -336.62,0 z" style="fill:#000000;fill-opacity:0;fill-rule:nonzero;stroke:none" id="path6720" inkscape:connector-curvature="0"/><path d="m 699.07,83.93 0,-3.9 0,-3.89 17.93,0 0,7.79 -17.93,0 z" style="fill:#000000;fill-opacity:0;fill-rule:nonzero;stroke:none" id="path6722" inkscape:connector-curvature="0"/><path d="m 572.5,309.93 0,-3.9 0,-3.89 144.5,0 0,7.79 -144.5,0 z" style="fill:#000000;fill-opacity:0;fill-rule:nonzero;stroke:none" id="path6724" inkscape:connector-curvature="0"/><path d="m 571.44,323.57 0,-8.77 0,-8.77 1.06,0 0,3.9 144.5,0 0,7.79 -110.84,0 0,5.85 -34.72,0 z" style="fill:#000000;fill-opacity:0;fill-rule:nonzero;stroke:none" id="path6726" inkscape:connector-curvature="0"/><path d="m 682.96,208.62 0,-3.9 0,-3.89 34.04,0 0,7.79 -34.04,0 z" style="fill:#000000;fill-opacity:0;fill-rule:nonzero;stroke:none" id="path6728" inkscape:connector-curvature="0"/><path d="m 690.54,122.9 0,-3.9 0,-3.9 26.46,0 0,7.8 -26.46,0 z" style="fill:#000000;fill-opacity:0;fill-rule:nonzero;stroke:none" id="path6730" inkscape:connector-curvature="0"/><path d="m 666.7,154.07 0,-5.85 0,-5.84 10.29,0 0,3.9 40.01,0 0,7.79 -50.3,0 z" style="fill:#000000;fill-opacity:0;fill-rule:nonzero;stroke:none" id="path6732" inkscape:connector-curvature="0"/><path d="m 330,384.64 0,-36.63 0,-36.62 50.38,0 0,37.51 336.62,0 0,7.79 -367.22,0 0,27.95 -19.78,0 z" style="fill:#000000;fill-opacity:0;fill-rule:nonzero;stroke:none" id="path6734" inkscape:connector-curvature="0"/><path d="m 439.29,80.03 0,-18.99 0,-19 74.93,0 0,20.46 95.24,0 0,5.84 107.54,0 0,7.8 -17.93,0 0,3.89 -259.78,0 z" style="fill:#000000;fill-opacity:0;fill-rule:nonzero;stroke:none" id="path6736" inkscape:connector-curvature="0"/><path d="m 695.98,286.55 0,-3.89 0,-3.9 21.02,0 0,7.79 -21.02,0 z" style="fill:#000000;fill-opacity:0;fill-rule:nonzero;stroke:none" id="path6738" inkscape:connector-curvature="0"/><path d="m 671.47,426.83 0,-5.85 0,-5.84 9.66,0 0,3.89 35.87,0 0,7.8 -45.53,0 z" style="fill:#000000;fill-opacity:0;fill-rule:nonzero;stroke:none" id="path6740" inkscape:connector-curvature="0"/><path d="m 624.27,41.07 0,-7.79 0,-7.8 27.36,0 0,3.9 65.37,0 0,7.79 -24.69,0 0,3.9 -68.04,0 z" style="fill:#000000;fill-opacity:0;fill-rule:nonzero;stroke:none" id="path6742" inkscape:connector-curvature="0"/><path d="m 326.46,454.1 0,-53.04 0,-53.05 3.54,0 0,36.63 19.78,0 0,27.94 141.5,0 0,25.94 142.6,0 0,3.89 83.12,0 0,7.8 -4.31,0 0,3.89 -386.23,0 z" style="fill:#000000;fill-opacity:0;fill-rule:nonzero;stroke:none" id="path6744" inkscape:connector-curvature="0"/><path d="m 651.63,29.38 0,-3.9 0,-3.89 65.37,0 0,7.79 -65.37,0 z" style="fill:#000000;fill-opacity:0;fill-rule:nonzero;stroke:none" id="path6746" inkscape:connector-curvature="0"/><path d="m 493.21,399.06 0,-12.42 0,-12.42 30.77,0 0,5.85 193.02,0 0,7.79 -198.22,0 0,11.2 -25.57,0 z" style="fill:#000000;fill-opacity:0;fill-rule:nonzero;stroke:none" id="path6748" inkscape:connector-curvature="0"/><path d="m 501.6,217.39 0,-15.1 0,-15.1 120.19,0 0,5.84 95.21,0 0,7.8 -34.04,0 0,3.89 -29.28,0 0,5.85 -31.74,0 0,6.82 -120.34,0 z" style="fill:#000000;fill-opacity:0;fill-rule:nonzero;stroke:none" id="path6750" inkscape:connector-curvature="0"/><path d="m 633.88,442.41 0,-3.89 0,-3.9 83.12,0 0,7.79 -83.12,0 z" style="fill:#000000;fill-opacity:0;fill-rule:nonzero;stroke:none" id="path6752" inkscape:connector-curvature="0"/><path d="m 608.66,372.28 0,-3.9 0,-3.9 108.34,0 0,7.8 -108.34,0 z" style="fill:#000000;fill-opacity:0;fill-rule:nonzero;stroke:none" id="path6754" inkscape:connector-curvature="0"/><path d="m 653.68,216.41 0,-5.84 0,-5.85 29.28,0 0,3.9 34.04,0 0,7.79 -63.32,0 z" style="fill:#000000;fill-opacity:0;fill-rule:nonzero;stroke:none" id="path6756" inkscape:connector-curvature="0"/><path d="m 621.79,193.03 0,-5.84 0,-5.85 67.3,0 0,3.9 27.91,0 0,7.79 -95.21,0 z" style="fill:#000000;fill-opacity:0;fill-rule:nonzero;stroke:none" id="path6758" inkscape:connector-curvature="0"/><path d="m 539.32,420.98 0,-10.71 0,-10.72 42.03,0 0,3.9 135.65,0 0,7.79 -35.87,0 0,3.9 -9.66,0 0,5.84 -132.15,0 z" style="fill:#000000;fill-opacity:0;fill-rule:nonzero;stroke:none" id="path6760" inkscape:connector-curvature="0"/><path d="m 691.07,13.79 0,-3.89 0,-3.9 25.93,0 0,7.79 -25.93,0 z" style="fill:#000000;fill-opacity:0;fill-rule:nonzero;stroke:none" id="path6762" inkscape:connector-curvature="0"/><path d="m 529.58,327.95 0,-27.76 0,-27.76 28,0 0,13.15 80.46,0 0,8.76 78.96,0 0,7.8 -144.5,0 0,3.89 -1.06,0 0,8.77 -1.73,0 0,13.15 -40.13,0 z" style="fill:#000000;fill-opacity:0;fill-rule:nonzero;stroke:none" id="path6764" inkscape:connector-curvature="0"/><path d="m 707.34,239.79 0,-3.89 0,-3.9 9.66,0 0,7.79 -9.66,0 z" style="fill:#000000;fill-opacity:0;fill-rule:nonzero;stroke:none" id="path6766" inkscape:connector-curvature="0"/><path d="m 639.09,130.69 0,-8.77 0,-8.76 31.1,0 0,5.84 20.35,0 0,3.9 26.46,0 0,7.79 -77.91,0 z" style="fill:#000000;fill-opacity:0;fill-rule:nonzero;stroke:none" id="path6768" inkscape:connector-curvature="0"/><path d="m 13.04,163.15 0,-51.06 0,-51.05 426.25,0 0,18.99 259.78,0 0,3.9 17.93,0 0,7.79 -578.58,0 0,71.43 -125.38,0 z" style="fill:#000000;fill-opacity:0;fill-rule:nonzero;stroke:none" id="path6770" inkscape:connector-curvature="0"/><path d="m 681.13,419.03 0,-3.89 0,-3.9 35.87,0 0,7.79 -35.87,0 z" style="fill:#000000;fill-opacity:0;fill-rule:nonzero;stroke:none" id="path6772" inkscape:connector-curvature="0"/><path d="m 488.76,202.29 0,-18.27 0,-18.26 0.8,0 0,3.9 227.44,0 0,7.79 -27.91,0 0,3.89 -67.3,0 0,5.85 -120.19,0 0,15.1 -12.84,0 z" style="fill:#000000;fill-opacity:0;fill-rule:nonzero;stroke:none" id="path6774" inkscape:connector-curvature="0"/><path d="m 491.28,438.52 0,-25.94 0,-25.94 1.93,0 0,12.42 25.57,0 0,11.21 20.54,0 0,10.71 132.15,0 0,5.85 45.53,0 0,7.79 -83.12,0 0,3.9 -142.6,0 z" style="fill:#000000;fill-opacity:0;fill-rule:nonzero;stroke:none" id="path6776" inkscape:connector-curvature="0"/><path d="m 717,169.66 -227.44,0 0,-3.9" style="fill:none;stroke:#000000;stroke-width:1;stroke-linecap:round;stroke-linejoin:round;stroke-miterlimit:10;stroke-dasharray:none;stroke-opacity:1" id="path6778" inkscape:connector-curvature="0"/><path d="m 670.19,113.16 -31.1,0 0,8.76" style="fill:none;stroke:#000000;stroke-width:1;stroke-linecap:round;stroke-linejoin:round;stroke-miterlimit:10;stroke-dasharray:none;stroke-opacity:1" id="path6780" inkscape:connector-curvature="0"/><path d="m 520.21,21.59 -5.99,0 0,20.45" style="fill:none;stroke:#000000;stroke-width:1;stroke-linecap:round;stroke-linejoin:round;stroke-miterlimit:10;stroke-dasharray:none;stroke-opacity:1" id="path6782" inkscape:connector-curvature="0"/><path d="m 717,348.9 -336.62,0 0,-37.51" style="fill:none;stroke:#000000;stroke-width:1;stroke-linecap:round;stroke-linejoin:round;stroke-miterlimit:10;stroke-dasharray:none;stroke-opacity:1" id="path6784" inkscape:connector-curvature="0"/><path d="m 717,130.69 -77.91,0 0,-8.77" style="fill:none;stroke:#000000;stroke-width:1;stroke-linecap:round;stroke-linejoin:round;stroke-miterlimit:10;stroke-dasharray:none;stroke-opacity:1" id="path6786" inkscape:connector-curvature="0"/><path d="m 700.76,259.28 -143.18,0 0,13.15" style="fill:none;stroke:#000000;stroke-width:1;stroke-linecap:round;stroke-linejoin:round;stroke-miterlimit:10;stroke-dasharray:none;stroke-opacity:1" id="path6788" inkscape:connector-curvature="0"/><path d="m 717,364.48 -108.34,0 0,3.9" style="fill:none;stroke:#000000;stroke-width:1;stroke-linecap:round;stroke-linejoin:round;stroke-miterlimit:10;stroke-dasharray:none;stroke-opacity:1" id="path6790" inkscape:connector-curvature="0"/><path d="m 717,333.31 -5.72,0 0,-3.9" style="fill:none;stroke:#000000;stroke-width:1;stroke-linecap:round;stroke-linejoin:round;stroke-miterlimit:10;stroke-dasharray:none;stroke-opacity:1" id="path6792" inkscape:connector-curvature="0"/><path d="m 211.66,318.48 -11.95,0 0,-83.91" style="fill:none;stroke:#000000;stroke-width:1;stroke-linecap:round;stroke-linejoin:round;stroke-miterlimit:10;stroke-dasharray:none;stroke-opacity:1" id="path6794" inkscape:connector-curvature="0"/><path d="m 717,403.45 -135.65,0 0,-3.9" style="fill:none;stroke:#000000;stroke-width:1;stroke-linecap:round;stroke-linejoin:round;stroke-miterlimit:10;stroke-dasharray:none;stroke-opacity:1" id="path6796" inkscape:connector-curvature="0"/><path d="m 295.99,150.66 -96.28,0 0,83.91" style="fill:none;stroke:#000000;stroke-width:1;stroke-linecap:round;stroke-linejoin:round;stroke-miterlimit:10;stroke-dasharray:none;stroke-opacity:1" id="path6798" inkscape:connector-curvature="0"/><path d="m 717,458 -4.31,0 0,-3.9" style="fill:none;stroke:#000000;stroke-width:1;stroke-linecap:round;stroke-linejoin:round;stroke-miterlimit:10;stroke-dasharray:none;stroke-opacity:1" id="path6800" inkscape:connector-curvature="0"/><path d="m 717,247.59 -209.29,0 0,26.3" style="fill:none;stroke:#000000;stroke-width:1;stroke-linecap:round;stroke-linejoin:round;stroke-miterlimit:10;stroke-dasharray:none;stroke-opacity:1" id="path6802" inkscape:connector-curvature="0"/><path d="m 717,216.41 -63.32,0 0,-5.84" style="fill:none;stroke:#000000;stroke-width:1;stroke-linecap:round;stroke-linejoin:round;stroke-miterlimit:10;stroke-dasharray:none;stroke-opacity:1" id="path6804" inkscape:connector-curvature="0"/><path d="m 569.71,327.95 -40.13,0 0,-27.76" style="fill:none;stroke:#000000;stroke-width:1;stroke-linecap:round;stroke-linejoin:round;stroke-miterlimit:10;stroke-dasharray:none;stroke-opacity:1" id="path6806" inkscape:connector-curvature="0"/><path d="m 323.6,117.3 -27.61,0 0,33.36" style="fill:none;stroke:#000000;stroke-width:1;stroke-linecap:round;stroke-linejoin:round;stroke-miterlimit:10;stroke-dasharray:none;stroke-opacity:1" id="path6808" inkscape:connector-curvature="0"/><path d="m 349.78,384.64 -19.78,0 0,-36.63" style="fill:none;stroke:#000000;stroke-width:1;stroke-linecap:round;stroke-linejoin:round;stroke-miterlimit:10;stroke-dasharray:none;stroke-opacity:1" id="path6810" inkscape:connector-curvature="0"/><path d="m 717,356.69 -367.22,0 0,27.95" style="fill:none;stroke:#000000;stroke-width:1;stroke-linecap:round;stroke-linejoin:round;stroke-miterlimit:10;stroke-dasharray:none;stroke-opacity:1" id="path6812" inkscape:connector-curvature="0"/><path d="m 518.78,399.06 -25.57,0 0,-12.42" style="fill:none;stroke:#000000;stroke-width:1;stroke-linecap:round;stroke-linejoin:round;stroke-miterlimit:10;stroke-dasharray:none;stroke-opacity:1" id="path6814" inkscape:connector-curvature="0"/><path d="m 717,122.9 -26.46,0 0,-3.9" style="fill:none;stroke:#000000;stroke-width:1;stroke-linecap:round;stroke-linejoin:round;stroke-miterlimit:10;stroke-dasharray:none;stroke-opacity:1" id="path6816" inkscape:connector-curvature="0"/><path d="m 657.22,276.81 -19.18,0 0,8.77" style="fill:none;stroke:#000000;stroke-width:1;stroke-linecap:round;stroke-linejoin:round;stroke-miterlimit:10;stroke-dasharray:none;stroke-opacity:1" id="path6818" inkscape:connector-curvature="0"/><path d="m 712.69,454.1 -386.23,0 0,-53.04" style="fill:none;stroke:#000000;stroke-width:1;stroke-linecap:round;stroke-linejoin:round;stroke-miterlimit:10;stroke-dasharray:none;stroke-opacity:1" id="path6820" inkscape:connector-curvature="0"/><path d="m 717,138.48 -40.01,0 0,3.9" style="fill:none;stroke:#000000;stroke-width:1;stroke-linecap:round;stroke-linejoin:round;stroke-miterlimit:10;stroke-dasharray:none;stroke-opacity:1" id="path6822" inkscape:connector-curvature="0"/><path d="m 676.99,142.38 -10.29,0 0,5.84" style="fill:none;stroke:#000000;stroke-width:1;stroke-linecap:round;stroke-linejoin:round;stroke-miterlimit:10;stroke-dasharray:none;stroke-opacity:1" id="path6824" inkscape:connector-curvature="0"/><path d="m 717,317.72 -110.84,0 0,5.85" style="fill:none;stroke:#000000;stroke-width:1;stroke-linecap:round;stroke-linejoin:round;stroke-miterlimit:10;stroke-dasharray:none;stroke-opacity:1" id="path6826" inkscape:connector-curvature="0"/><path d="m 717,21.59 -65.37,0 0,3.89" style="fill:none;stroke:#000000;stroke-width:1;stroke-linecap:round;stroke-linejoin:round;stroke-miterlimit:10;stroke-dasharray:none;stroke-opacity:1" id="path6828" inkscape:connector-curvature="0"/><path d="m 717,426.83 -45.53,0 0,-5.85" style="fill:none;stroke:#000000;stroke-width:1;stroke-linecap:round;stroke-linejoin:round;stroke-miterlimit:10;stroke-dasharray:none;stroke-opacity:1" id="path6830" inkscape:connector-curvature="0"/><path d="m 717,146.28 -40.01,0 0,-3.9" style="fill:none;stroke:#000000;stroke-width:1;stroke-linecap:round;stroke-linejoin:round;stroke-miterlimit:10;stroke-dasharray:none;stroke-opacity:1" id="path6832" inkscape:connector-curvature="0"/><path d="m 717,270.97 -59.78,0 0,5.84" style="fill:none;stroke:#000000;stroke-width:1;stroke-linecap:round;stroke-linejoin:round;stroke-miterlimit:10;stroke-dasharray:none;stroke-opacity:1" id="path6834" inkscape:connector-curvature="0"/><path d="m 572.5,306.03 -1.06,0 0,8.77" style="fill:none;stroke:#000000;stroke-width:1;stroke-linecap:round;stroke-linejoin:round;stroke-miterlimit:10;stroke-dasharray:none;stroke-opacity:1" id="path6836" inkscape:connector-curvature="0"/><path d="m 717,232 -9.66,0 0,3.9" style="fill:none;stroke:#000000;stroke-width:1;stroke-linecap:round;stroke-linejoin:round;stroke-miterlimit:10;stroke-dasharray:none;stroke-opacity:1" id="path6838" inkscape:connector-curvature="0"/><path d="m 682.96,204.72 -29.28,0 0,5.85" style="fill:none;stroke:#000000;stroke-width:1;stroke-linecap:round;stroke-linejoin:round;stroke-miterlimit:10;stroke-dasharray:none;stroke-opacity:1" id="path6840" inkscape:connector-curvature="0"/><path d="m 690.54,119 -20.35,0 0,-5.84" style="fill:none;stroke:#000000;stroke-width:1;stroke-linecap:round;stroke-linejoin:round;stroke-miterlimit:10;stroke-dasharray:none;stroke-opacity:1" id="path6842" inkscape:connector-curvature="0"/><path d="m 666.7,148.22 -125.73,0 0,-13.15" style="fill:none;stroke:#000000;stroke-width:1;stroke-linecap:round;stroke-linejoin:round;stroke-miterlimit:10;stroke-dasharray:none;stroke-opacity:1" id="path6844" inkscape:connector-curvature="0"/><path d="m 717,387.86 -198.22,0 0,11.2" style="fill:none;stroke:#000000;stroke-width:1;stroke-linecap:round;stroke-linejoin:round;stroke-miterlimit:10;stroke-dasharray:none;stroke-opacity:1" id="path6846" inkscape:connector-curvature="0"/><path d="m 717,107.31 -46.81,0 0,5.85" style="fill:none;stroke:#000000;stroke-width:1;stroke-linecap:round;stroke-linejoin:round;stroke-miterlimit:10;stroke-dasharray:none;stroke-opacity:1" id="path6848" inkscape:connector-curvature="0"/><path d="m 717,341.1 -147.29,0 0,-13.15" style="fill:none;stroke:#000000;stroke-width:1;stroke-linecap:round;stroke-linejoin:round;stroke-miterlimit:10;stroke-dasharray:none;stroke-opacity:1" id="path6850" inkscape:connector-curvature="0"/><path d="m 624.27,33.28 -104.06,0 0,-11.69" style="fill:none;stroke:#000000;stroke-width:1;stroke-linecap:round;stroke-linejoin:round;stroke-miterlimit:10;stroke-dasharray:none;stroke-opacity:1" id="path6852" inkscape:connector-curvature="0"/><path d="m 717,309.93 -144.5,0 0,-3.9" style="fill:none;stroke:#000000;stroke-width:1;stroke-linecap:round;stroke-linejoin:round;stroke-miterlimit:10;stroke-dasharray:none;stroke-opacity:1" id="path6854" inkscape:connector-curvature="0"/><path d="m 326.46,401.06 -114.8,0 0,-82.58" style="fill:none;stroke:#000000;stroke-width:1;stroke-linecap:round;stroke-linejoin:round;stroke-miterlimit:10;stroke-dasharray:none;stroke-opacity:1" id="path6856" inkscape:connector-curvature="0"/><path d="m 717,177.45 -27.91,0 0,3.89" style="fill:none;stroke:#000000;stroke-width:1;stroke-linecap:round;stroke-linejoin:round;stroke-miterlimit:10;stroke-dasharray:none;stroke-opacity:1" id="path6858" inkscape:connector-curvature="0"/><path d="m 501.6,202.29 -12.84,0 0,-18.27" style="fill:none;stroke:#000000;stroke-width:1;stroke-linecap:round;stroke-linejoin:round;stroke-miterlimit:10;stroke-dasharray:none;stroke-opacity:1" id="path6860" inkscape:connector-curvature="0"/><path d="m 633.88,438.52 -142.6,0 0,-25.94" style="fill:none;stroke:#000000;stroke-width:1;stroke-linecap:round;stroke-linejoin:round;stroke-miterlimit:10;stroke-dasharray:none;stroke-opacity:1" id="path6862" inkscape:connector-curvature="0"/><path d="m 608.66,368.38 -84.68,0 0,5.84" style="fill:none;stroke:#000000;stroke-width:1;stroke-linecap:round;stroke-linejoin:round;stroke-miterlimit:10;stroke-dasharray:none;stroke-opacity:1" id="path6864" inkscape:connector-curvature="0"/><path d="m 653.68,210.57 -31.74,0 0,6.82" style="fill:none;stroke:#000000;stroke-width:1;stroke-linecap:round;stroke-linejoin:round;stroke-miterlimit:10;stroke-dasharray:none;stroke-opacity:1" id="path6866" inkscape:connector-curvature="0"/><path d="m 717,395.66 -135.65,0 0,3.89" style="fill:none;stroke:#000000;stroke-width:1;stroke-linecap:round;stroke-linejoin:round;stroke-miterlimit:10;stroke-dasharray:none;stroke-opacity:1" id="path6868" inkscape:connector-curvature="0"/><path d="m 717,200.83 -34.04,0 0,3.89" style="fill:none;stroke:#000000;stroke-width:1;stroke-linecap:round;stroke-linejoin:round;stroke-miterlimit:10;stroke-dasharray:none;stroke-opacity:1" id="path6870" inkscape:connector-curvature="0"/><path d="m 717,239.79 -9.66,0 0,-3.89" style="fill:none;stroke:#000000;stroke-width:1;stroke-linecap:round;stroke-linejoin:round;stroke-miterlimit:10;stroke-dasharray:none;stroke-opacity:1" id="path6872" inkscape:connector-curvature="0"/><path d="m 691.07,9.9 -170.86,0 0,11.69" style="fill:none;stroke:#000000;stroke-width:1;stroke-linecap:round;stroke-linejoin:round;stroke-miterlimit:10;stroke-dasharray:none;stroke-opacity:1" id="path6874" inkscape:connector-curvature="0"/><path d="m 529.58,300.19 -21.87,0 0,-26.3" style="fill:none;stroke:#000000;stroke-width:1;stroke-linecap:round;stroke-linejoin:round;stroke-miterlimit:10;stroke-dasharray:none;stroke-opacity:1" id="path6876" inkscape:connector-curvature="0"/><path d="m 717,325.52 -5.72,0 0,3.89" style="fill:none;stroke:#000000;stroke-width:1;stroke-linecap:round;stroke-linejoin:round;stroke-miterlimit:10;stroke-dasharray:none;stroke-opacity:1" id="path6878" inkscape:connector-curvature="0"/><path d="m 488.76,184.02 -192.77,0 0,-33.36" style="fill:none;stroke:#000000;stroke-width:1;stroke-linecap:round;stroke-linejoin:round;stroke-miterlimit:10;stroke-dasharray:none;stroke-opacity:1" id="path6880" inkscape:connector-curvature="0"/><path d="m 717,380.07 -193.02,0 0,-5.85" style="fill:none;stroke:#000000;stroke-width:1;stroke-linecap:round;stroke-linejoin:round;stroke-miterlimit:10;stroke-dasharray:none;stroke-opacity:1" id="path6882" inkscape:connector-curvature="0"/><path d="m 717,263.17 -16.24,0 0,-3.89" style="fill:none;stroke:#000000;stroke-width:1;stroke-linecap:round;stroke-linejoin:round;stroke-miterlimit:10;stroke-dasharray:none;stroke-opacity:1" id="path6884" inkscape:connector-curvature="0"/><path d="m 717,115.1 -26.46,0 0,3.9" style="fill:none;stroke:#000000;stroke-width:1;stroke-linecap:round;stroke-linejoin:round;stroke-miterlimit:10;stroke-dasharray:none;stroke-opacity:1" id="path6886" inkscape:connector-curvature="0"/><path d="m 557.58,272.43 -28,0 0,27.76" style="fill:none;stroke:#000000;stroke-width:1;stroke-linecap:round;stroke-linejoin:round;stroke-miterlimit:10;stroke-dasharray:none;stroke-opacity:1" id="path6888" inkscape:connector-curvature="0"/><path d="m 717,278.76 -21.02,0 0,3.9" style="fill:none;stroke:#000000;stroke-width:1;stroke-linecap:round;stroke-linejoin:round;stroke-miterlimit:10;stroke-dasharray:none;stroke-opacity:1" id="path6890" inkscape:connector-curvature="0"/><path d="m 692.31,41.07 -68.04,0 0,-7.79" style="fill:none;stroke:#000000;stroke-width:1;stroke-linecap:round;stroke-linejoin:round;stroke-miterlimit:10;stroke-dasharray:none;stroke-opacity:1" id="path6892" inkscape:connector-curvature="0"/><path d="m 717,185.24 -27.91,0 0,-3.9" style="fill:none;stroke:#000000;stroke-width:1;stroke-linecap:round;stroke-linejoin:round;stroke-miterlimit:10;stroke-dasharray:none;stroke-opacity:1" id="path6894" inkscape:connector-curvature="0"/><path d="m 609.46,62.5 -95.24,0 0,-20.46" style="fill:none;stroke:#000000;stroke-width:1;stroke-linecap:round;stroke-linejoin:round;stroke-miterlimit:10;stroke-dasharray:none;stroke-opacity:1" id="path6896" inkscape:connector-curvature="0"/><path d="m 717,37.17 -24.69,0 0,3.9" style="fill:none;stroke:#000000;stroke-width:1;stroke-linecap:round;stroke-linejoin:round;stroke-miterlimit:10;stroke-dasharray:none;stroke-opacity:1" id="path6898" inkscape:connector-curvature="0"/><path d="m 717,434.62 -83.12,0 0,3.9" style="fill:none;stroke:#000000;stroke-width:1;stroke-linecap:round;stroke-linejoin:round;stroke-miterlimit:10;stroke-dasharray:none;stroke-opacity:1" id="path6900" inkscape:connector-curvature="0"/><path d="m 717,193.03 -95.21,0 0,-5.84" style="fill:none;stroke:#000000;stroke-width:1;stroke-linecap:round;stroke-linejoin:round;stroke-miterlimit:10;stroke-dasharray:none;stroke-opacity:1" id="path6902" inkscape:connector-curvature="0"/><path d="m 717,76.14 -17.93,0 0,3.89" style="fill:none;stroke:#000000;stroke-width:1;stroke-linecap:round;stroke-linejoin:round;stroke-miterlimit:10;stroke-dasharray:none;stroke-opacity:1" id="path6904" inkscape:connector-curvature="0"/><path d="m 717,52.76 -47.95,0 0,3.9" style="fill:none;stroke:#000000;stroke-width:1;stroke-linecap:round;stroke-linejoin:round;stroke-miterlimit:10;stroke-dasharray:none;stroke-opacity:1" id="path6906" inkscape:connector-curvature="0"/><path d="m 669.05,56.66 -59.59,0 0,5.84" style="fill:none;stroke:#000000;stroke-width:1;stroke-linecap:round;stroke-linejoin:round;stroke-miterlimit:10;stroke-dasharray:none;stroke-opacity:1" id="path6908" inkscape:connector-curvature="0"/><path d="m 711.28,329.41 -105.12,0 0,-5.84" style="fill:none;stroke:#000000;stroke-width:1;stroke-linecap:round;stroke-linejoin:round;stroke-miterlimit:10;stroke-dasharray:none;stroke-opacity:1" id="path6910" inkscape:connector-curvature="0"/><path d="m 621.94,217.39 -120.34,0 0,-15.1" style="fill:none;stroke:#000000;stroke-width:1;stroke-linecap:round;stroke-linejoin:round;stroke-miterlimit:10;stroke-dasharray:none;stroke-opacity:1" id="path6912" inkscape:connector-curvature="0"/><path d="m 638.04,285.58 -80.46,0 0,-13.15" style="fill:none;stroke:#000000;stroke-width:1;stroke-linecap:round;stroke-linejoin:round;stroke-miterlimit:10;stroke-dasharray:none;stroke-opacity:1" id="path6914" inkscape:connector-curvature="0"/><path d="m 717,91.72 -578.58,0 0,71.43" style="fill:none;stroke:#000000;stroke-width:1;stroke-linecap:round;stroke-linejoin:round;stroke-miterlimit:10;stroke-dasharray:none;stroke-opacity:1" id="path6916" inkscape:connector-curvature="0"/><path d="m 606.16,323.57 -34.72,0 0,-8.77" style="fill:none;stroke:#000000;stroke-width:1;stroke-linecap:round;stroke-linejoin:round;stroke-miterlimit:10;stroke-dasharray:none;stroke-opacity:1" id="path6918" inkscape:connector-curvature="0"/><path d="m 717,442.41 -83.12,0 0,-3.89" style="fill:none;stroke:#000000;stroke-width:1;stroke-linecap:round;stroke-linejoin:round;stroke-miterlimit:10;stroke-dasharray:none;stroke-opacity:1" id="path6920" inkscape:connector-curvature="0"/><path d="m 507.71,273.89 -127.33,0 0,37.5" style="fill:none;stroke:#000000;stroke-width:1;stroke-linecap:round;stroke-linejoin:round;stroke-miterlimit:10;stroke-dasharray:none;stroke-opacity:1" id="path6922" inkscape:connector-curvature="0"/><path d="m 138.42,163.15 -125.38,0 0,-51.06" style="fill:none;stroke:#000000;stroke-width:1;stroke-linecap:round;stroke-linejoin:round;stroke-miterlimit:10;stroke-dasharray:none;stroke-opacity:1" id="path6924" inkscape:connector-curvature="0"/><path d="m 689.09,181.34 -67.3,0 0,5.85" style="fill:none;stroke:#000000;stroke-width:1;stroke-linecap:round;stroke-linejoin:round;stroke-miterlimit:10;stroke-dasharray:none;stroke-opacity:1" id="path6926" inkscape:connector-curvature="0"/><path d="m 199.71,234.57 -61.29,0 0,-71.42" style="fill:none;stroke:#000000;stroke-width:1;stroke-linecap:round;stroke-linejoin:round;stroke-miterlimit:10;stroke-dasharray:none;stroke-opacity:1" id="path6928" inkscape:connector-curvature="0"/><path d="m 523.98,374.22 -30.77,0 0,12.42" style="fill:none;stroke:#000000;stroke-width:1;stroke-linecap:round;stroke-linejoin:round;stroke-miterlimit:10;stroke-dasharray:none;stroke-opacity:1" id="path6930" inkscape:connector-curvature="0"/><path d="m 717,450.21 -4.31,0 0,3.89" style="fill:none;stroke:#000000;stroke-width:1;stroke-linecap:round;stroke-linejoin:round;stroke-miterlimit:10;stroke-dasharray:none;stroke-opacity:1" id="path6932" inkscape:connector-curvature="0"/><path d="m 581.35,399.55 -42.03,0 0,10.72" style="fill:none;stroke:#000000;stroke-width:1;stroke-linecap:round;stroke-linejoin:round;stroke-miterlimit:10;stroke-dasharray:none;stroke-opacity:1" id="path6934" inkscape:connector-curvature="0"/><path d="m 717,68.34 -107.54,0 0,-5.84" style="fill:none;stroke:#000000;stroke-width:1;stroke-linecap:round;stroke-linejoin:round;stroke-miterlimit:10;stroke-dasharray:none;stroke-opacity:1" id="path6936" inkscape:connector-curvature="0"/><path d="m 514.22,42.04 -74.93,0 0,19" style="fill:none;stroke:#000000;stroke-width:1;stroke-linecap:round;stroke-linejoin:round;stroke-miterlimit:10;stroke-dasharray:none;stroke-opacity:1" id="path6938" inkscape:connector-curvature="0"/><path d="m 540.97,135.07 -217.37,0 0,-17.77" style="fill:none;stroke:#000000;stroke-width:1;stroke-linecap:round;stroke-linejoin:round;stroke-miterlimit:10;stroke-dasharray:none;stroke-opacity:1" id="path6940" inkscape:connector-curvature="0"/><path d="m 717,411.24 -35.87,0 0,3.9" style="fill:none;stroke:#000000;stroke-width:1;stroke-linecap:round;stroke-linejoin:round;stroke-miterlimit:10;stroke-dasharray:none;stroke-opacity:1" id="path6942" inkscape:connector-curvature="0"/><path d="m 717,161.86 -227.44,0 0,3.9" style="fill:none;stroke:#000000;stroke-width:1;stroke-linecap:round;stroke-linejoin:round;stroke-miterlimit:10;stroke-dasharray:none;stroke-opacity:1" id="path6944" inkscape:connector-curvature="0"/><path d="m 489.56,165.76 -0.8,0 0,18.26" style="fill:none;stroke:#000000;stroke-width:1;stroke-linecap:round;stroke-linejoin:round;stroke-miterlimit:10;stroke-dasharray:none;stroke-opacity:1" id="path6946" inkscape:connector-curvature="0"/><path d="m 717,294.34 -78.96,0 0,-8.76" style="fill:none;stroke:#000000;stroke-width:1;stroke-linecap:round;stroke-linejoin:round;stroke-miterlimit:10;stroke-dasharray:none;stroke-opacity:1" id="path6948" inkscape:connector-curvature="0"/><path d="m 717,6 -25.93,0 0,3.9" style="fill:none;stroke:#000000;stroke-width:1;stroke-linecap:round;stroke-linejoin:round;stroke-miterlimit:10;stroke-dasharray:none;stroke-opacity:1" id="path6950" inkscape:connector-curvature="0"/><path d="m 380.38,311.39 -50.38,0 0,36.62" style="fill:none;stroke:#000000;stroke-width:1;stroke-linecap:round;stroke-linejoin:round;stroke-miterlimit:10;stroke-dasharray:none;stroke-opacity:1" id="path6952" inkscape:connector-curvature="0"/><path d="m 699.07,80.03 -259.78,0 0,-18.99" style="fill:none;stroke:#000000;stroke-width:1;stroke-linecap:round;stroke-linejoin:round;stroke-miterlimit:10;stroke-dasharray:none;stroke-opacity:1" id="path6954" inkscape:connector-curvature="0"/><path d="m 717,83.93 -17.93,0 0,-3.9" style="fill:none;stroke:#000000;stroke-width:1;stroke-linecap:round;stroke-linejoin:round;stroke-miterlimit:10;stroke-dasharray:none;stroke-opacity:1" id="path6956" inkscape:connector-curvature="0"/><path d="m 571.44,314.8 -1.73,0 0,13.15" style="fill:none;stroke:#000000;stroke-width:1;stroke-linecap:round;stroke-linejoin:round;stroke-miterlimit:10;stroke-dasharray:none;stroke-opacity:1" id="path6958" inkscape:connector-curvature="0"/><path d="m 330,348.01 -3.54,0 0,53.05" style="fill:none;stroke:#000000;stroke-width:1;stroke-linecap:round;stroke-linejoin:round;stroke-miterlimit:10;stroke-dasharray:none;stroke-opacity:1" id="path6960" inkscape:connector-curvature="0"/><path d="m 717,154.07 -50.3,0 0,-5.85" style="fill:none;stroke:#000000;stroke-width:1;stroke-linecap:round;stroke-linejoin:round;stroke-miterlimit:10;stroke-dasharray:none;stroke-opacity:1" id="path6962" inkscape:connector-curvature="0"/><path d="m 439.29,61.04 -426.25,0 0,51.05" style="fill:none;stroke:#000000;stroke-width:1;stroke-linecap:round;stroke-linejoin:round;stroke-miterlimit:10;stroke-dasharray:none;stroke-opacity:1" id="path6964" inkscape:connector-curvature="0"/><path d="m 717,419.03 -35.87,0 0,-3.89" style="fill:none;stroke:#000000;stroke-width:1;stroke-linecap:round;stroke-linejoin:round;stroke-miterlimit:10;stroke-dasharray:none;stroke-opacity:1" id="path6966" inkscape:connector-curvature="0"/><path d="m 717,29.38 -65.37,0 0,-3.9" style="fill:none;stroke:#000000;stroke-width:1;stroke-linecap:round;stroke-linejoin:round;stroke-miterlimit:10;stroke-dasharray:none;stroke-opacity:1" id="path6968" inkscape:connector-curvature="0"/><path d="m 717,224.21 -95.06,0 0,-6.82" style="fill:none;stroke:#000000;stroke-width:1;stroke-linecap:round;stroke-linejoin:round;stroke-miterlimit:10;stroke-dasharray:none;stroke-opacity:1" id="path6970" inkscape:connector-curvature="0"/><path d="m 695.98,282.66 -38.76,0 0,-5.85" style="fill:none;stroke:#000000;stroke-width:1;stroke-linecap:round;stroke-linejoin:round;stroke-miterlimit:10;stroke-dasharray:none;stroke-opacity:1" id="path6972" inkscape:connector-curvature="0"/><path d="m 717,208.62 -34.04,0 0,-3.9" style="fill:none;stroke:#000000;stroke-width:1;stroke-linecap:round;stroke-linejoin:round;stroke-miterlimit:10;stroke-dasharray:none;stroke-opacity:1" id="path6974" inkscape:connector-curvature="0"/><path d="m 671.47,420.98 -132.15,0 0,-10.71" style="fill:none;stroke:#000000;stroke-width:1;stroke-linecap:round;stroke-linejoin:round;stroke-miterlimit:10;stroke-dasharray:none;stroke-opacity:1" id="path6976" inkscape:connector-curvature="0"/><path d="m 717,255.38 -16.24,0 0,3.9" style="fill:none;stroke:#000000;stroke-width:1;stroke-linecap:round;stroke-linejoin:round;stroke-miterlimit:10;stroke-dasharray:none;stroke-opacity:1" id="path6978" inkscape:connector-curvature="0"/><path d="m 651.63,25.48 -27.36,0 0,7.8" style="fill:none;stroke:#000000;stroke-width:1;stroke-linecap:round;stroke-linejoin:round;stroke-miterlimit:10;stroke-dasharray:none;stroke-opacity:1" id="path6980" inkscape:connector-curvature="0"/><path d="m 493.21,386.64 -1.93,0 0,25.94" style="fill:none;stroke:#000000;stroke-width:1;stroke-linecap:round;stroke-linejoin:round;stroke-miterlimit:10;stroke-dasharray:none;stroke-opacity:1" id="path6982" inkscape:connector-curvature="0"/><path d="m 717,44.97 -24.69,0 0,-3.9" style="fill:none;stroke:#000000;stroke-width:1;stroke-linecap:round;stroke-linejoin:round;stroke-miterlimit:10;stroke-dasharray:none;stroke-opacity:1" id="path6984" inkscape:connector-curvature="0"/><path d="m 717,13.79 -25.93,0 0,-3.89" style="fill:none;stroke:#000000;stroke-width:1;stroke-linecap:round;stroke-linejoin:round;stroke-miterlimit:10;stroke-dasharray:none;stroke-opacity:1" id="path6986" inkscape:connector-curvature="0"/><path d="m 621.79,187.19 -120.19,0 0,15.1" style="fill:none;stroke:#000000;stroke-width:1;stroke-linecap:round;stroke-linejoin:round;stroke-miterlimit:10;stroke-dasharray:none;stroke-opacity:1" id="path6988" inkscape:connector-curvature="0"/><path d="m 717,99.52 -393.4,0 0,17.78" style="fill:none;stroke:#000000;stroke-width:1;stroke-linecap:round;stroke-linejoin:round;stroke-miterlimit:10;stroke-dasharray:none;stroke-opacity:1" id="path6990" inkscape:connector-curvature="0"/><path d="m 539.32,410.27 -20.54,0 0,-11.21" style="fill:none;stroke:#000000;stroke-width:1;stroke-linecap:round;stroke-linejoin:round;stroke-miterlimit:10;stroke-dasharray:none;stroke-opacity:1" id="path6992" inkscape:connector-curvature="0"/><path d="m 717,302.14 -144.5,0 0,3.89" style="fill:none;stroke:#000000;stroke-width:1;stroke-linecap:round;stroke-linejoin:round;stroke-miterlimit:10;stroke-dasharray:none;stroke-opacity:1" id="path6994" inkscape:connector-curvature="0"/><path d="m 717,286.55 -21.02,0 0,-3.89" style="fill:none;stroke:#000000;stroke-width:1;stroke-linecap:round;stroke-linejoin:round;stroke-miterlimit:10;stroke-dasharray:none;stroke-opacity:1" id="path6996" inkscape:connector-curvature="0"/><path d="m 717,372.28 -108.34,0 0,-3.9" style="fill:none;stroke:#000000;stroke-width:1;stroke-linecap:round;stroke-linejoin:round;stroke-miterlimit:10;stroke-dasharray:none;stroke-opacity:1" id="path6998" inkscape:connector-curvature="0"/><path d="m 707.34,235.9 -495.68,0 0,82.58" style="fill:none;stroke:#000000;stroke-width:1;stroke-linecap:round;stroke-linejoin:round;stroke-miterlimit:10;stroke-dasharray:none;stroke-opacity:1" id="path7000" inkscape:connector-curvature="0"/><path d="m 639.09,121.92 -98.12,0 0,13.15" style="fill:none;stroke:#000000;stroke-width:1;stroke-linecap:round;stroke-linejoin:round;stroke-miterlimit:10;stroke-dasharray:none;stroke-opacity:1" id="path7002" inkscape:connector-curvature="0"/><path d="m 717,60.55 -47.95,0 0,-3.89" style="fill:none;stroke:#000000;stroke-width:1;stroke-linecap:round;stroke-linejoin:round;stroke-miterlimit:10;stroke-dasharray:none;stroke-opacity:1" id="path7004" inkscape:connector-curvature="0"/><path d="m 6,112.09 7.04,0" style="fill:none;stroke:#000000;stroke-width:1;stroke-linecap:round;stroke-linejoin:round;stroke-miterlimit:10;stroke-dasharray:none;stroke-opacity:1" id="path7006" inkscape:connector-curvature="0"/><path d="m 681.13,415.14 -9.66,0 0,5.84" style="fill:none;stroke:#000000;stroke-width:1;stroke-linecap:round;stroke-linejoin:round;stroke-miterlimit:10;stroke-dasharray:none;stroke-opacity:1" id="path7008" inkscape:connector-curvature="0"/><path d="m 491.28,412.58 -141.5,0 0,-27.94" style="fill:none;stroke:#000000;stroke-width:1;stroke-linecap:round;stroke-linejoin:round;stroke-miterlimit:10;stroke-dasharray:none;stroke-opacity:1" id="path7010" inkscape:connector-curvature="0"/></g></g></g></g></g></g></g></svg>